<?xml version="1.0" encoding="UTF-8" standalone="no"?>
<!DOCTYPE svg  PUBLIC '-//W3C//DTD SVG 1.1//EN'  'http://www.w3.org/Graphics/SVG/1.1/DTD/svg11.dtd'>
<svg version="1.1" xmlns="http://www.w3.org/2000/svg">
<defs>
<font id="SoberanaSans-UltraItalic" horiz-adv-x="750">
<font-face cap-height="750" unicode-range="U+0020-00FE" underline-position="-150" font-family="Soberana Sans Ultra" font-weight="900" panose-1="2 0 0 0 0 0 0 0 0 0" descent="-230" font-style="italic" underline-thickness="50" x-height="546" units-per-em="1000" slope="-8" ascent="770" bbox="-92 -244 1265 1109"/>
<missing-glyph/>
<glyph unicode=" " glyph-name="space" horiz-adv-x="260"/>
<glyph unicode="!" glyph-name="exclam" horiz-adv-x="443" d="M325 267h-228l32 473l294 24zM174 -14q-59 0 -93.5 29t-34.5 81q0 66 40.5 101.5t112.5 35.5q59 0 95.5 -29.5t36.5 -85.5q0 -61 -42 -96.5t-115 -35.5z"/>
<glyph unicode='&quot;' glyph-name="quotedbl" horiz-adv-x="529" d="M235 485h-137l6 260l207 19zM490 485h-137l6 260l207 19z"/>
<glyph unicode="#" glyph-name="numbersign" horiz-adv-x="650" d="M450 659h161l-33 -125h79l-23 -160h-99l-21 -79h89l-22 -159h-109l-33 -126h-162l33 126h-86l-33 -126h-161l33 126h-77l22 159h97l21 79h-87l23 160h107l33 125h162l-34 -125h86zM288 374l-21 -79h86l21 79h-86z"/>
<glyph unicode="$" glyph-name="dollar" d="M406 863l198 -18l-34 -124q76 -15 129 -38l-96 -199q-90 40 -173 40q-61 0 -61 -23q0 -12 24 -21.5t77 -26t94 -35.5q108 -47 108 -152q0 -124 -82 -193t-212 -83l-36 -140l-201 16l35 133q-95 18 -158 55l67 207q52 -30 124 -50t129 -20q66 0 66 25q0 10 -24 17.5 t-70 18.5t-75 22q-149 52 -149 180q0 118 79.5 188t202.5 87z"/>
<glyph unicode="%" glyph-name="percent" horiz-adv-x="1074" d="M235 493q44 0 44 91q0 38 -26 38q-45 0 -45 -89q0 -40 27 -40zM806 98q45 0 45 90q0 39 -27 39q-43 0 -43 -92q0 -37 25 -37zM368 -14l-163 110l483 638l167 -107zM220 381q-170 0 -170 140q0 101 58 157t162 56q167 0 167 -139q0 -102 -56.5 -158t-160.5 -56zM790 -14 q-167 0 -167 139q0 102 56 158t160 56q170 0 170 -140q0 -102 -57.5 -157.5t-161.5 -55.5z"/>
<glyph unicode="&amp;" glyph-name="ampersand" horiz-adv-x="799" d="M749 0q-38 -14 -93 -14q-94 0 -166 51q-8 5 -24 17q-111 -68 -251 -68q-103 0 -167 43t-64 131q0 135 159 251q-15 46 -15 94q0 115 79.5 187t199.5 72q59 0 118 -18.5t96 -48.5l-90 -167q-55 41 -114 41q-23 0 -39 -11.5t-16 -35.5q0 -70 125 -183q7 11 15 23.5t18 29 t16 26.5h228q-56 -101 -126 -194l5 -3q49 -31 102 -31h30zM263 166q27 0 51 9q-40 37 -69 70q-18 -25 -18 -44q0 -15 9.5 -25t26.5 -10z"/>
<glyph unicode="&apos;" glyph-name="quotesingle" horiz-adv-x="274" d="M235 485h-137l6 260l207 19z"/>
<glyph unicode="(" glyph-name="parenleft" horiz-adv-x="440" d="M330 -104q-151 22 -227.5 120.5t-76.5 240.5q0 197 113.5 336t313.5 177l-28 -197q-71 -48 -107 -127.5t-36 -174.5q0 -115 76 -178z"/>
<glyph unicode=")" glyph-name="parenright" horiz-adv-x="440" d="M-20 -104l28 197q71 49 107 128.5t36 175.5q0 115 -76 176l28 197q151 -22 227.5 -120t76.5 -239q0 -200 -114 -341t-313 -174z"/>
<glyph unicode="*" glyph-name="asterisk" horiz-adv-x="469" d="M313 365h-155l67 150l-132 -107l-44 125l159 32l-150 32l77 125l104 -108l-25 150h155l-67 -150l132 107l43 -125l-158 -32l149 -32l-76 -125l-104 108z"/>
<glyph unicode="+" glyph-name="plus" horiz-adv-x="650" d="M405 10h-170v188h-190v171h190v188h170v-188h190v-171h-190v-188z"/>
<glyph unicode="," glyph-name="comma" horiz-adv-x="336" d="M142 -131l-181 30q65 98 65 193q0 38 -12 76l234 29q9 -38 9 -78q0 -64 -30.5 -123t-84.5 -127z"/>
<glyph unicode="-" glyph-name="hyphen" horiz-adv-x="460" d="M-1 207l22 159l423 25l-22 -159z"/>
<glyph unicode="." glyph-name="period" horiz-adv-x="336" d="M-2 100q0 60 40 95.5t109 35.5q54 0 87 -28.5t33 -80.5q0 -66 -38 -101t-107 -35q-56 0 -90 29t-34 85z"/>
<glyph unicode="/" glyph-name="slash" horiz-adv-x="615" d="M640 691l-479 -741l-188 108l478 742z"/>
<glyph unicode="0" glyph-name="zero" d="M351 182q37 0 64 93t27 183q0 74 -42 74q-40 0 -65 -90t-25 -176q0 -84 41 -84zM323 -14q-134 0 -205.5 65.5t-71.5 212.5q0 72 12.5 138t41.5 127t72.5 106t109 72t147.5 27q277 0 277 -268q0 -116 -30 -209t-83 -151.5t-121.5 -89t-148.5 -30.5z"/>
<glyph unicode="1" glyph-name="one" d="M667 0h-644l28 203h186l39 280l-187 -7l25 174q169 15 365 70h104l-73 -517h185z"/>
<glyph unicode="2" glyph-name="two" d="M25 0l22 163q160 88 252 164t92 141q0 45 -56 45q-40 0 -94 -17.5t-91 -38.5l-54 195q146 82 326 82q54 0 99 -9t85.5 -30t64 -61t23.5 -95q0 -99 -50.5 -174.5t-143.5 -143.5l1 -7h175l-30 -214h-621z"/>
<glyph unicode="3" glyph-name="three" d="M302 -14q-179 0 -290 78l92 194q36 -27 90.5 -47t100.5 -20q100 0 100 47q0 49 -166 49l17 123q36 8 55.5 13t47.5 15t41 23t13 29q0 33 -55 33q-42 0 -98 -17.5t-92 -41.5l-46 177q61 41 146 67t177 26q128 0 199 -42.5t71 -119.5q0 -110 -142 -172l-1 -9 q117 -44 117 -151q0 -66 -35 -117t-91.5 -79.5t-120.5 -43t-130 -14.5z"/>
<glyph unicode="4" glyph-name="four" d="M482 734l213 -14l-58 -411h53l-41 -195h-39l-16 -114h-245l16 114h-346l20 148q97 105 443 472zM407 414q-11 -11 -31.5 -32t-37.5 -38.5t-31 -32.5l2 -6h87l16 107z"/>
<glyph unicode="5" glyph-name="five" d="M308 -14q-175 0 -297 77l92 199q38 -25 106 -46t120 -21q74 0 74 44q0 14 -9.5 24.5t-30 18t-41 12.5t-55 9t-58 6t-63.5 5t-60 5q55 166 111 401h526l-29 -202h-277q-4 -22 -13 -52q146 -18 211.5 -64.5t65.5 -141.5q0 -70 -32 -124t-86 -86t-118.5 -48t-136.5 -16z"/>
<glyph unicode="6" glyph-name="six" d="M663 543q-90 -11 -178.5 -44t-138.5 -85l4 -3q64 34 135 34q85 0 141 -41.5t56 -128.5q0 -75 -28.5 -132t-78 -90.5t-111.5 -50t-135 -16.5q-54 0 -103.5 13.5t-92.5 40.5t-68.5 75t-25.5 110q0 99 36 181.5t95 138t138.5 96.5t161 62.5t169.5 30.5zM374 293 q-41 0 -79 -32v-18q0 -28 12.5 -54t42.5 -26q32 0 54 22t22 56q0 25 -14 38.5t-38 13.5z"/>
<glyph unicode="7" glyph-name="seven" d="M369 0h-335q82 115 359 516h-313l29 204h603l27 -92q-48 -86 -370 -628z"/>
<glyph unicode="8" glyph-name="eight" d="M322 -14q-58 0 -108 9.5t-93.5 30t-68.5 57.5t-25 87q0 76 39 124.5t112 87.5q-82 53 -82 129q0 62 29.5 107t79.5 69.5t105.5 35.5t117.5 11q275 0 275 -167q0 -65 -33.5 -108t-98.5 -76q33 -19 52.5 -34t36.5 -46t17 -71q0 -65 -32 -114.5t-85 -77t-113 -41t-125 -13.5 zM346 164q71 0 71 51q0 19 -14.5 30t-47.5 22q-21 -8 -32 -13t-22.5 -19.5t-11.5 -34.5q0 -19 18.5 -27.5t38.5 -8.5zM390 469q65 23 65 62q0 33 -51 33q-64 0 -64 -41q0 -18 14.5 -33t35.5 -21z"/>
<glyph unicode="9" glyph-name="nine" d="M87 178q47 4 156 42.5t161 90.5l-4 3q-64 -34 -135 -34q-86 0 -140.5 39.5t-54.5 127.5q0 137 102 212t253 75q56 0 103 -10.5t90.5 -35.5t68 -73.5t24.5 -117.5q0 -90 -35 -168t-93 -133.5t-137 -99t-162 -69.5t-173 -41zM376 432q49 0 81 32q0 3 0.5 9t0.5 9 q0 78 -59 78q-32 0 -53.5 -22.5t-21.5 -57.5q0 -48 52 -48z"/>
<glyph unicode=":" glyph-name="colon" horiz-adv-x="336" d="M-2 100q0 60 40 95.5t109 35.5q54 0 87 -28.5t33 -80.5q0 -66 -38 -101t-107 -35q-56 0 -90 29t-34 85zM45 429q0 60 40 95.5t109 35.5q54 0 87 -28.5t33 -80.5q0 -66 -38 -101t-107 -35q-56 0 -90 29t-34 85z"/>
<glyph unicode=";" glyph-name="semicolon" horiz-adv-x="336" d="M142 -131l-181 30q65 98 65 193q0 38 -12 76l234 29q9 -38 9 -78q0 -64 -30.5 -123t-84.5 -127zM45 429q0 60 40 95.5t109 35.5q54 0 87 -28.5t33 -80.5q0 -66 -38 -101t-107 -35q-56 0 -90 29t-34 85z"/>
<glyph unicode="&lt;" glyph-name="less" horiz-adv-x="650" d="M65 226v119l510 240v-190l-236 -110l236 -108v-191z"/>
<glyph unicode="=" glyph-name="equal" horiz-adv-x="650" d="M595 338h-550v171h550v-171zM595 58h-550v171h550v-171z"/>
<glyph unicode="&gt;" glyph-name="greater" horiz-adv-x="650" d="M575 345v-119l-510 -240v191l236 108l-236 110v190z"/>
<glyph unicode="?" glyph-name="question" horiz-adv-x="582" d="M132 265q-10 27 -10 64q0 34 17 63t41 47.5t48 33.5t41 29t17 27q0 21 -37 21q-63 0 -137 -40l-40 187q50 28 124 47.5t144 19.5q239 0 239 -162q0 -44 -20.5 -83.5t-50.5 -67t-59.5 -52t-50 -49.5t-20.5 -49q0 -23 5 -36h-251zM219 -14q-59 0 -93.5 29t-34.5 81 q0 66 40.5 101.5t112.5 35.5q59 0 95.5 -29.5t36.5 -85.5q0 -61 -42 -96.5t-115 -35.5z"/>
<glyph unicode="@" glyph-name="at" horiz-adv-x="792" d="M394 -127q-90 0 -161.5 32t-114.5 86t-65.5 119.5t-22.5 137.5q0 182 110 299t298 118q62 0 119.5 -17.5t106.5 -52t78.5 -95t29.5 -139.5q0 -71 -27.5 -134.5t-83.5 -105.5t-128 -42q-78 0 -99 65l-7 1q-62 -60 -126 -60q-58 0 -89.5 43t-31.5 114q0 45 12 86t37 76.5 t70 57t103 21.5q72 0 134 -43l41 34h50q-36 -273 -36 -282q0 -17 17 -17q12 0 28 10.5t33 31.5t28.5 59t11.5 86q0 125 -79 189t-195 64q-160 -1 -255 -102t-95 -263q0 -141 84 -232t223 -91q68 0 142 28.5t118 69.5l30 -46q-127 -106 -288 -106zM380 210q21 0 44 29l14 106 q-12 7 -29 7q-28 0 -43.5 -27.5t-15.5 -63.5q0 -51 30 -51z"/>
<glyph unicode="A" glyph-name="A" horiz-adv-x="895" d="M553 0l-28 139h-222q-16 -33 -64 -139h-284q176 333 412 750h267q27 -90 99.5 -350t106.5 -400h-287zM461 444h-7q-34 -63 -61 -119h94q-20 95 -26 119z"/>
<glyph unicode="B" glyph-name="B" horiz-adv-x="765" d="M0 0l105 750h382q41 0 73 -2.5t69.5 -11.5t62 -25.5t41.5 -46t17 -70.5q0 -70 -36 -120.5t-103 -73.5l-2 -9q56 -19 89 -52.5t33 -94.5q0 -65 -27 -113.5t-75 -76.5t-105.5 -41t-124.5 -13h-399zM300 166h49q40 0 70.5 20t30.5 60q0 25 -18.5 39t-52.5 14h-60zM340 449 h33q38 0 63 24t25 67q0 45 -57 45h-45z"/>
<glyph unicode="C" glyph-name="C" horiz-adv-x="729" d="M398 -14q-75 0 -140 17.5t-118 53.5t-83.5 97.5t-30.5 143.5q0 211 129 338.5t346 127.5q155 0 243 -51l-75 -199q-72 34 -151 34q-89 0 -141.5 -55t-52.5 -152q0 -68 41.5 -102.5t113.5 -34.5q91 0 173 34l3 -201q-124 -51 -257 -51z"/>
<glyph unicode="D" glyph-name="D" horiz-adv-x="833" d="M0 0l105 750h368q164 0 251 -74t87 -222q0 -208 -116 -331t-328 -123h-367zM354 547l-48 -345h48q55 0 92.5 36t52 85.5t14.5 108.5q0 68 -30 91.5t-82 23.5h-47z"/>
<glyph unicode="E" glyph-name="E" horiz-adv-x="600" d="M0 0l105 750h523l-28 -202h-244l-12 -82h178l-47 -174h-155l-13 -89h246l-28 -203h-525z"/>
<glyph unicode="F" glyph-name="F" horiz-adv-x="614" d="M0 0l105 750h549l-28 -202h-270l-15 -102h220l-48 -175h-196l-38 -271h-279z"/>
<glyph unicode="G" glyph-name="G" horiz-adv-x="800" d="M385 -14q-76 0 -139.5 18t-113.5 54t-78 96.5t-28 140.5q0 224 134.5 346.5t366.5 122.5q157 0 265 -51l-75 -200q-81 35 -186 35q-101 0 -155 -56.5t-54 -158.5q0 -63 35 -96t100 -33q21 0 32 5l10 70h-37l22 160h287l-54 -388q-141 -65 -332 -65z"/>
<glyph unicode="H" glyph-name="H" horiz-adv-x="866" d="M0 0l105 750h278l-38 -269h210l38 269h278l-105 -750h-278l39 278h-210l-39 -278h-278z"/>
<glyph unicode="I" glyph-name="I" horiz-adv-x="378" d="M0 0l105 750h278l-105 -750h-278z"/>
<glyph unicode="J" glyph-name="J" horiz-adv-x="473" d="M109 546l29 204h345l-75 -532q-18 -125 -86.5 -178.5t-182.5 -53.5q-67 0 -149 16l12 203q19 -6 52 -6q39 0 55.5 18.5t22.5 58.5l38 270h-61z"/>
<glyph unicode="K" glyph-name="K" horiz-adv-x="828" d="M782 185l-26 -185q-68 -14 -130 -14q-67 0 -108.5 20.5t-73.5 76.5q-44 77 -93 195h-34l-39 -278h-278l105 750h278l-38 -269h31q48 56 187 269h300q-47 -82 -256 -354q16 -46 44.5 -101.5t53.5 -85.5q19 -23 77 -24z"/>
<glyph unicode="L" glyph-name="L" horiz-adv-x="620" d="M0 0l105 750h279l-77 -547h276l-28 -203h-555z"/>
<glyph unicode="M" glyph-name="M" horiz-adv-x="1068" d="M1053 750l-75 -750h-264l35 331h-7q-144 -215 -192 -277q-52 -11 -123 -14q-74 201 -115 298l-9 -1l-58 -337h-255l136 750h281q92 -236 128 -346h9q54 78 108.5 164.5t82.5 133.5l28 48h290z"/>
<glyph unicode="N" glyph-name="N" horiz-adv-x="880" d="M780 0l-183 -14q-99 141 -271 366l-8 -1l-49 -351h-269l105 750h238q116 -135 222 -290l8 2l41 288h271z"/>
<glyph unicode="O" glyph-name="O" horiz-adv-x="873" d="M385 -14q-168 0 -263.5 76t-95.5 232q0 216 121.5 343t345.5 127q359 0 359 -302q0 -219 -122.5 -347.5t-344.5 -128.5zM411 182q45 0 77 26t47.5 70t21.5 86t6 88q0 65 -24 92t-72 27q-37 0 -65 -18.5t-44.5 -46.5t-26.5 -65.5t-13.5 -71t-3.5 -67.5q0 -62 23.5 -91 t73.5 -29z"/>
<glyph unicode="P" glyph-name="P" horiz-adv-x="760" d="M374 195q-46 0 -68 1l-27 -196h-279l105 750h385q273 0 273 -209q0 -157 -111 -251.5t-278 -94.5zM356 548l-21 -143q26 -2 42 -2q44 0 73 23t29 71q0 30 -20 40.5t-61 10.5h-42z"/>
<glyph unicode="Q" glyph-name="Q" horiz-adv-x="874" d="M662 -211q-101 0 -217 64.5t-200 148.5q-219 57 -219 292q0 216 121.5 343t345.5 127q359 0 359 -302q0 -156 -63.5 -268t-182.5 -165q74 -57 152 -57q22 0 44 2l-24 -168q-50 -17 -116 -17zM411 182q45 0 77 26t47.5 70t21.5 86t6 88q0 65 -24 92t-72 27 q-37 0 -65 -18.5t-44.5 -46.5t-26.5 -65.5t-13.5 -71t-3.5 -67.5q0 -62 23.5 -91t73.5 -29z"/>
<glyph unicode="R" glyph-name="R" horiz-adv-x="791" d="M741 186l-26 -186q-60 -14 -129 -14q-53 0 -86.5 10t-59.5 44q-44 57 -104 192h-26l-32 -232h-278l105 750h344q285 0 285 -197q0 -159 -139 -249q34 -58 62 -92q21 -26 68 -26h16zM355 548l-17 -121h27q36 0 61.5 19t25.5 57q0 26 -17.5 35.5t-52.5 9.5h-27z"/>
<glyph unicode="S" glyph-name="S" horiz-adv-x="676" d="M279 -14q-180 0 -296 68l67 207q123 -69 242 -69q77 0 77 26q0 14 -20 24.5t-66.5 26.5t-76.5 30q-48 22 -77 41.5t-51.5 56.5t-22.5 86q0 74 28.5 129.5t79 87.5t113.5 48t137 16q58 0 131.5 -14t124.5 -36l-71 -199q-36 15 -93 26.5t-103 11.5q-64 0 -64 -25 q0 -12 30 -24t83.5 -31.5t89.5 -40.5q48 -28 72.5 -62t24.5 -89q0 -145 -101.5 -220t-257.5 -75z"/>
<glyph unicode="T" glyph-name="T" horiz-adv-x="741" d="M181 0l77 548h-216l28 202h711l-28 -202h-216l-77 -548h-279z"/>
<glyph unicode="U" glyph-name="U" horiz-adv-x="845" d="M371 -14q-168 0 -251.5 61.5t-83.5 207.5q0 44 7 90l57 405h279l-59 -416q-4 -36 -4 -48q0 -49 21 -69t65 -20q50 0 79.5 28t40.5 109l59 416h279l-60 -423q-26 -181 -131.5 -261t-297.5 -80z"/>
<glyph unicode="V" glyph-name="V" horiz-adv-x="864" d="M532 0h-300q-27 81 -89 335t-88 415h291q32 -241 74 -458h6q107 212 202 458h291q-67 -155 -201.5 -411t-185.5 -339z"/>
<glyph unicode="W" glyph-name="W" horiz-adv-x="1220" d="M651 0q-31 144 -47 221h-6q-28 -49 -73.5 -125t-56.5 -96h-289q-20 76 -62.5 335.5t-56.5 414.5h291q11 -202 43 -442h6q72 111 131 208q-10 27 -20.5 35.5t-30.5 8.5l27 190q51 8 106 8q64 0 105.5 -20.5t51.5 -81.5l55 -338h6q81 208 146 432h288q-65 -174 -173 -430 t-143 -320h-298z"/>
<glyph unicode="X" glyph-name="X" horiz-adv-x="838" d="M-65 0q127 169 284 370q-13 21 -38.5 66.5t-40.5 70.5q-25 41 -74 41l28 202q44 6 129 6q60 0 92.5 -18t63.5 -75q17 -32 58 -117h6q19 24 39 53.5t52.5 81t44.5 69.5h304q-158 -219 -271 -364q59 -118 90 -161q29 -40 95 -40l-27 -186q-11 -4 -61 -8.5t-72 -4.5 q-67 0 -104.5 17t-68.5 78l-64 124h-8q-22 -31 -142 -205h-315z"/>
<glyph unicode="Y" glyph-name="Y" horiz-adv-x="797" d="M197 0l40 289q-91 162 -124 211q-30 42 -72 42l29 208q44 5 112 5q60 0 100 -21t67 -76l58 -116h6q19 24 39.5 55.5t51 81.5t44.5 71h304q-139 -201 -336 -455l-41 -295h-278z"/>
<glyph unicode="Z" glyph-name="Z" horiz-adv-x="760" d="M-30 0l15 113q61 78 373 426l-1 8h-284l29 203h650l21 -109q-27 -31 -114 -128t-153.5 -172.5t-109.5 -129.5l2 -8h320l-28 -203h-720z"/>
<glyph unicode="[" glyph-name="bracketleft" horiz-adv-x="505" d="M480 570h-113l-67 -474h113l-27 -194h-365l121 862h365z"/>
<glyph unicode="\" glyph-name="backslash" horiz-adv-x="615" d="M343 -50l-274 755l224 95l270 -742z"/>
<glyph unicode="]" glyph-name="bracketright" horiz-adv-x="505" d="M18 96h113l67 474h-113l27 194h365l-121 -862h-365z"/>
<glyph unicode="^" glyph-name="asciicircum" horiz-adv-x="650" d="M255 750h130l233 -514h-193l-105 235l-105 -235h-193z"/>
<glyph unicode="_" glyph-name="underscore" horiz-adv-x="650" d="M-92 -230l23 159h669l-23 -159h-669z"/>
<glyph unicode="`" glyph-name="grave" horiz-adv-x="600" d="M401 623l-196 240l187 103l117 -293z"/>
<glyph unicode="a" glyph-name="a" horiz-adv-x="760" d="M527 -14q-107 0 -131 79l-4 2q-88 -81 -195 -81q-84 0 -133.5 60t-49.5 163q0 159 89.5 255t260.5 96q126 0 215 -51l59 37h79l-48 -339q-2 -14 -2 -20q0 -19 21 -19l32 2l-20 -150q-87 -34 -173 -34zM339 167q38 0 64 42l21 152q-21 16 -47 16q-45 0 -66 -43t-21 -97 q0 -70 49 -70z"/>
<glyph unicode="b" glyph-name="b" horiz-adv-x="728" d="M-5 0l108 770h269l-27 -192l-17 -87l5 -2q73 70 164 70q93 0 148.5 -60t55.5 -161q0 -164 -93 -258t-258 -94q-149 0 -240 55l-43 -41h-72zM374 377q-37 0 -63 -41l-22 -152q21 -16 49 -16q86 0 86 139q0 70 -50 70z"/>
<glyph unicode="c" glyph-name="c" horiz-adv-x="575" d="M278 -14q-126 0 -195 61t-69 174q0 155 87 247t255 92q51 0 112 -10.5t97 -30.5l-61 -188q-62 30 -123 30q-46 0 -68.5 -30t-22.5 -78q0 -63 71 -63q70 0 137 24l14 -182q-96 -46 -234 -46z"/>
<glyph unicode="d" glyph-name="d" horiz-adv-x="728" d="M213 -14q-91 0 -145 61t-54 161q0 92 27 162t74 110t103.5 59.5t121.5 19.5t109 -21l33 232h266l-108 -770h-231l-18 62l-7 1q-38 -40 -76.5 -58.5t-94.5 -18.5zM339 167q40 0 64 41l21 152q-19 17 -47 17q-45 0 -66 -42.5t-21 -94.5q0 -73 49 -73z"/>
<glyph unicode="e" glyph-name="e" horiz-adv-x="661" d="M577 201l14 -171q-114 -44 -269 -44q-43 0 -83.5 6.5t-82.5 23.5t-72.5 43t-50 70t-19.5 100q0 162 97 246.5t269 84.5q257 0 257 -210q0 -56 -14 -103h-337q-1 -12 -1 -17q0 -24 21 -41t73 -17q89 0 198 29zM304 343h98q1 7 1 18q0 45 -37 45q-47 0 -62 -63z"/>
<glyph unicode="f" glyph-name="f" horiz-adv-x="501" d="M92 374h-85l24 172h86l2 13q19 122 92 173.5t198 51.5q101 0 178 -24l-59 -169q-40 11 -75 11q-61 0 -67 -40l-3 -16h128l-41 -172h-112l-82 -604h-268z"/>
<glyph unicode="g" glyph-name="g" horiz-adv-x="729" d="M246 -244q-52 0 -123.5 8.5t-115.5 24.5l23 195q79 -23 178 -23q170 0 170 109v4l-4 2q-78 -75 -181 -75q-77 0 -128 52.5t-51 149.5q0 163 88.5 260t259.5 97q131 0 218 -50l58 36h81l-70 -486q-44 -304 -403 -304zM334 168q37 0 68 41l21 152q-17 13 -50 13 q-45 0 -67 -41.5t-22 -92.5q0 -33 13 -52.5t37 -19.5z"/>
<glyph unicode="h" glyph-name="h" horiz-adv-x="722" d="M-5 0l108 770h269l-28 -197l-18 -101l8 -1q84 88 192 88q88 0 126 -40t38 -128q0 -25 -7 -74l-44 -317h-269l40 287q3 18 3 31q0 22 -9 30.5t-29 8.5q-40 0 -68 -46l-43 -311h-269z"/>
<glyph unicode="i" glyph-name="i" horiz-adv-x="352" d="M-5 0l76 546h269l-76 -546h-269zM96 753q0 63 41 99.5t115 36.5q58 0 90.5 -29.5t32.5 -83.5q0 -69 -38 -105.5t-112 -36.5q-60 0 -94.5 30.5t-34.5 88.5z"/>
<glyph unicode="j" glyph-name="j" horiz-adv-x="409" d="M36 361l26 185h335l-81 -580q-14 -102 -85 -149t-208 -47q-56 0 -84 11l7 195q20 -6 49 -6q30 0 44.5 15.5t19.5 52.5l45 323h-68zM155 753q0 63 41 99.5t115 36.5q58 0 90.5 -29.5t32.5 -83.5q0 -69 -38 -105.5t-112 -36.5q-60 0 -94.5 30.5t-34.5 88.5z"/>
<glyph unicode="k" glyph-name="k" horiz-adv-x="737" d="M-5 0l108 770h269l-53 -378h15q33 42 100 154h293q-76 -114 -184 -245q13 -21 55 -80q23 -33 56 -33q28 0 37 1l-26 -184q-40 -19 -108 -19q-53 0 -94.5 22t-80.5 76q-29 40 -73 110h-18l-27 -194h-269z"/>
<glyph unicode="l" glyph-name="l" horiz-adv-x="349" d="M-5 0l108 770h266l-108 -770h-266z"/>
<glyph unicode="m" glyph-name="m" horiz-adv-x="1086" d="M-5 0l76 546h240l9 -74l9 -1q85 88 195 88q123 0 153 -91l9 -2q85 93 204 93q164 0 164 -162q0 -27 -4 -52l-48 -345h-269l41 294q2 18 2 23q0 40 -33 40q-44 0 -68 -48q-1 -7 -2.5 -18t-1.5 -12l-39 -279h-267l41 294q2 18 2 24q0 39 -32 39q-45 0 -69 -48l-43 -309 h-269z"/>
<glyph unicode="n" glyph-name="n" horiz-adv-x="723" d="M-5 0l76 546h240l9 -74l9 -1q84 88 200 88q162 0 162 -159q0 -27 -5 -62l-47 -338h-269l42 299q1 6 1 17q0 41 -34 41q-48 0 -72 -48l-43 -309h-269z"/>
<glyph unicode="o" glyph-name="o" horiz-adv-x="714" d="M341 167q71 0 71 128q0 82 -51 82q-72 0 -72 -128q0 -82 52 -82zM306 -14q-138 0 -215 59t-77 174q0 73 19 131.5t62 107t121.5 75.5t187.5 27q139 0 211 -64.5t72 -169.5q0 -72 -20 -131t-62.5 -107t-118.5 -75t-180 -27z"/>
<glyph unicode="p" glyph-name="p" horiz-adv-x="725" d="M366 -14q-61 0 -105 21l-33 -237h-266l109 775h231l17 -62l7 -1q38 40 77.5 59t94.5 19q91 0 145.5 -62t54.5 -162q0 -152 -87.5 -251t-244.5 -99zM372 378q-40 0 -64 -41l-21 -152q19 -17 52 -17q44 0 63 42t19 97q0 71 -49 71z"/>
<glyph unicode="q" glyph-name="q" horiz-adv-x="729" d="M333 -230l33 195l20 89l-7 2q-72 -70 -163 -70q-94 0 -148 61.5t-54 169.5q0 168 91 255t262 87q139 0 224 -48l55 35h71l-109 -776h-275zM339 167q38 0 64 42l21 152q-21 16 -47 16q-45 0 -66 -43t-21 -97q0 -70 49 -70z"/>
<glyph unicode="r" glyph-name="r" horiz-adv-x="576" d="M581 519l-69 -204q-30 12 -59 12q-25 0 -58 -19t-52 -36t-48 -45l-31 -227h-269l76 546h226l10 -111l8 -1q67 69 110.5 97.5t81.5 28.5q48 0 74 -41z"/>
<glyph unicode="s" glyph-name="s" horiz-adv-x="584" d="M541 205q0 -64 -28.5 -109t-78 -68t-102 -32.5t-113.5 -9.5q-62 0 -138 14.5t-107 32.5l52 164q118 -42 227 -42q45 0 45 15q0 8 -14 11t-53 9t-76 16q-58 16 -92.5 47.5t-34.5 91.5q0 215 317 215q65 0 128.5 -10.5t93.5 -23.5l-57 -161q-78 29 -180 29q-46 0 -46 -13 q0 -6 11 -9t51 -11t82 -19q113 -32 113 -137z"/>
<glyph unicode="t" glyph-name="t" horiz-adv-x="562" d="M505 374h-148l-15 -109q-2 -18 -2 -27q0 -41 36 -41q52 0 103 19l32 -182q-48 -20 -121.5 -34t-130.5 -14q-103 0 -148.5 51.5t-45.5 121.5q0 39 6 81l19 134h-85l24 172h88l75 160h210l-22 -160h162z"/>
<glyph unicode="u" glyph-name="u" horiz-adv-x="718" d="M706 546l-76 -546h-228l-18 63l-8 1q-26 -27 -52.5 -44t-54.5 -24t-47 -8.5t-49 -1.5q-77 0 -120 40.5t-43 122.5q0 27 4 51l48 346h269l-43 -314q-2 -14 -2 -20q0 -43 35 -43q42 0 69 38l47 339h269z"/>
<glyph unicode="v" glyph-name="v" horiz-adv-x="723" d="M438 0h-253q-100 300 -159 546h269l46 -229h9q21 40 113 229h286q-159 -308 -311 -546z"/>
<glyph unicode="w" glyph-name="w" horiz-adv-x="1019" d="M809 0h-272q-35 109 -49 157h-6q-27 -43 -105 -157h-241q-72 317 -110 546h259q7 -44 49 -275h9q12 15 62 93q-6 18 -12.5 22.5t-20.5 5.5l21 154q45 7 99 7q65 0 96.5 -16.5t42.5 -66.5l42 -183h8q42 95 92 259h272q-115 -293 -236 -546z"/>
<glyph unicode="x" glyph-name="x" horiz-adv-x="728" d="M739 546q-75 -115 -180 -256q25 -45 48 -73q24 -30 74 -33l-25 -184q-56 -7 -99 -7q-59 0 -92 15.5t-60 56.5q-22 32 -54 91h-7q-45 -67 -100 -156h-289q102 140 198 262q-7 13 -45 76q-21 33 -66 35l24 174q45 5 102 5q67 0 98.5 -14.5t55.5 -57.5q20 -36 41 -82h7 q32 47 92 148h277z"/>
<glyph unicode="y" glyph-name="y" horiz-adv-x="772" d="M379 -230h-299q112 173 145 230h-64q-63 252 -86 337q-6 21 -16 28t-29 8l24 174q56 8 104 8q81 0 112 -21t47 -80q14 -50 43 -203h7q95 194 137 295h294q-115 -238 -419 -776z"/>
<glyph unicode="z" glyph-name="z" horiz-adv-x="632" d="M580 176l-24 -176h-581l14 104q150 162 253 262l-1 8h-202l24 172h539l10 -106q-155 -147 -260 -258l2 -6h226z"/>
<glyph unicode="{" glyph-name="braceleft" horiz-adv-x="530" d="M411 -98h-190q-155 0 -155 132q0 18 3 37l18 125q1 6 1 15q0 26 -18 37.5t-59 14.5l20 139q47 4 68 18t26 49l18 126q24 169 199 169h190l-27 -194h-36q-43 0 -61.5 -11t-24.5 -48l-8 -57q-6 -43 -35.5 -75.5t-68.5 -43.5l-1 -5q31 -10 51.5 -36.5t20.5 -63.5 q0 -13 -1 -19l-8 -55q-1 -6 -1 -16q0 -27 16 -35.5t54 -8.5h36z"/>
<glyph unicode="|" glyph-name="bar" horiz-adv-x="447" d="M335 -150h-233v1050h233v-1050z"/>
<glyph unicode="}" glyph-name="braceright" horiz-adv-x="530" d="M-9 -98l27 194h36q43 0 61.5 11.5t23.5 48.5l8 55q6 43 36 75.5t69 43.5l1 5q-32 10 -52.5 37.5t-20.5 64.5q0 11 1 17l8 57q2 14 2 18q0 26 -16 33.5t-54 7.5h-36l27 194h190q154 0 154 -131q0 -19 -3 -38l-18 -126q-1 -5 -1 -15q0 -26 18 -37.5t59 -14.5l-20 -139 q-47 -4 -68 -18t-26 -49l-18 -125q-24 -169 -198 -169h-190z"/>
<glyph unicode="~" glyph-name="asciitilde" horiz-adv-x="650" d="M582 385q-1 -105 -40.5 -148.5t-91.5 -43.5q-40 0 -116 12t-94 12q-13 0 -20.5 -7t-8.5 -28h-153q0 58 13.5 99t36 59.5t43.5 26t46 7.5q29 0 105 -12t102 -12q25 0 25 35h153z"/>
<glyph unicode=" " glyph-name="uni00A0" horiz-adv-x="260"/>
<glyph unicode="¡" glyph-name="exclamdown" horiz-adv-x="443" d="M-4 -218l98 497h228l-32 -473zM88 428q0 61 42 96.5t115 35.5q59 0 93.5 -29t34.5 -81q0 -66 -40.5 -101.5t-112.5 -35.5q-59 0 -95.5 29.5t-36.5 85.5z"/>
<glyph unicode="¢" glyph-name="cent" d="M188 -74l35 137q-165 52 -165 232q0 170 85.5 272.5t243.5 125.5l36 135l204 -13l-33 -126q63 -12 127 -46l-76 -198q-71 39 -150 39q-57 0 -90 -39t-33 -105q0 -44 23 -63t69 -19q84 0 169 33l18 -197q-88 -42 -225 -49l-32 -131z"/>
<glyph unicode="£" glyph-name="sterling" d="M62 364l17 124h82q13 69 47 118.5t82.5 76.5t101 39t112.5 12q111 0 210 -33l-66 -186q-64 24 -125 24q-66 0 -84 -51h189l-17 -124h-185q0 -23 -1 -31h181l-17 -123h-184q-13 -25 -34 -44h291l-23 -166h-628l17 125q98 25 116 85h-104l17 123h95v31h-90z"/>
<glyph unicode="¤" glyph-name="currency" d="M339 101q-74 0 -125 27l-72 -62l-106 113l85 75q-5 27 -5 51q0 69 34 139l-67 75l137 115l58 -64q60 29 131 29t124 -28l73 63l106 -113l-87 -75q6 -25 6 -55q0 -67 -35 -135l68 -75l-136 -115l-58 64q-58 -29 -131 -29zM365 257q43 0 72 32.5t29 81.5q0 35 -23.5 53.5 t-59.5 18.5q-43 0 -72.5 -32.5t-29.5 -80.5q0 -36 23.5 -54.5t60.5 -18.5z"/>
<glyph unicode="¥" glyph-name="yen" d="M185 0l11 83h-137l17 122h137l5 32h-137l17 123h111l-53 113q-19 39 -59 39l30 208q46 7 76 7q26 0 41.5 -2t36.5 -11t37 -30t29 -55l37 -100h7q59 94 115 191h249q-132 -204 -243 -360h114l-17 -123h-127l-5 -32h127l-17 -122h-127l-11 -83h-264z"/>
<glyph unicode="¦" glyph-name="brokenbar" horiz-adv-x="447" d="M335 503h-233v397h233v-397zM335 -150h-233v400h233v-400z"/>
<glyph unicode="§" glyph-name="section" horiz-adv-x="719" d="M257 -164q-153 0 -297 62l65 190q53 -25 128.5 -41.5t125.5 -16.5q46 0 46 21q0 12 -32.5 24.5t-79 27.5t-93 35t-79 55t-32.5 80q0 124 146 176q-46 39 -46 94q0 56 31.5 100t82 69.5t106.5 38.5t111 13q154 0 297 -62l-65 -190q-52 25 -127.5 41.5t-125.5 16.5 q-46 0 -46 -22q0 -12 32.5 -24.5t78.5 -27.5t92.5 -34.5t79 -54.5t32.5 -80q0 -124 -145 -176q45 -40 45 -94q0 -73 -55 -125.5t-127.5 -74t-148.5 -21.5zM413 299q0 28 -62 56q-66 -11 -66 -54q0 -29 62 -56q66 11 66 54z"/>
<glyph unicode="¨" glyph-name="dieresis" horiz-adv-x="600" d="M67 758q0 58 36.5 92t101.5 34q50 0 80 -27.5t30 -77.5q0 -63 -35 -96.5t-99 -33.5q-52 0 -83 27.5t-31 81.5zM399 758q0 58 36.5 92t101.5 34q50 0 80 -27.5t30 -77.5q0 -63 -35 -96.5t-99 -33.5q-52 0 -83 27.5t-31 81.5z"/>
<glyph unicode="©" glyph-name="copyright" horiz-adv-x="830" d="M441 156q-102 0 -173.5 55.5t-71.5 167.5q0 116 68 173t174 57q77 0 144 -32l-18 -123q-46 22 -96 22q-47 0 -69 -27t-22 -69q0 -89 95 -89q50 0 101 19l11 -125q-71 -29 -143 -29zM420 -14q-165 0 -277.5 107.5t-112.5 283.5q0 174 112.5 280.5t277.5 106.5 t277.5 -107.5t112.5 -283.5q0 -174 -112.5 -280.5t-277.5 -106.5zM420 37q143 0 238.5 92t95.5 247t-95.5 247t-238.5 92t-238.5 -92.5t-95.5 -246.5t95.5 -246.5t238.5 -92.5z"/>
<glyph unicode="ª" glyph-name="ordfeminine" horiz-adv-x="477" d="M477 490l-12 -93q-47 -21 -107 -21t-75 48l-3 1q-53 -49 -108 -49q-52 0 -82 36.5t-30 99.5q0 97 54.5 155.5t159.5 58.5q69 0 116 -31l36 23h49l-29 -206q-1 -6 -1 -12q0 -11 13 -11zM245 487q22 0 42 25l12 92q-8 8 -30 8q-28 0 -41 -24t-13 -57q0 -44 30 -44z"/>
<glyph unicode="«" glyph-name="guillemotleft" horiz-adv-x="722" d="M20 252l12 86l344 264l-31 -220l-115 -88l90 -88l-30 -220zM350 252l12 86l344 264l-31 -220l-115 -88l90 -88l-30 -220z"/>
<glyph unicode="¬" glyph-name="logicalnot" horiz-adv-x="650" d="M595 509v-359h-172v188h-378v171h550z"/>
<glyph unicode="­" glyph-name="uni00AD" horiz-adv-x="460" d="M-1 207l22 159l423 25l-22 -159z"/>
<glyph unicode="®" glyph-name="registered" horiz-adv-x="506" d="M288 351q-92 0 -152.5 61t-60.5 148q0 89 60 146.5t153 57.5q92 0 152.5 -58t60.5 -146q0 -87 -61 -148t-152 -61zM290 398q71 0 116 46t45 118q0 70 -45 111t-117 41q-73 0 -117.5 -41t-44.5 -111q0 -72 45.5 -118t117.5 -46zM383 475q-14 -4 -34 -4q-23 0 -35.5 12 t-33.5 49h-9v-57h-67v191h86q37 0 60.5 -15.5t23.5 -47.5q0 -36 -30 -55l15 -20q7 -10 24 -10v-43zM271 612v-34h14q24 0 24 18q0 16 -22 16h-16z"/>
<glyph unicode="¯" glyph-name="macron" horiz-adv-x="600" d="M568 822l-22 -158h-406l22 158h406z"/>
<glyph unicode="°" glyph-name="degree" horiz-adv-x="400" d="M207 426q-58 0 -96 37t-38 93q0 70 51 124t129 54q60 0 98.5 -35t38.5 -93q0 -74 -50.5 -127t-132.5 -53zM222 513q32 0 52.5 25t20.5 56q0 54 -54 54q-30 0 -51.5 -24t-21.5 -57q0 -25 14.5 -39.5t39.5 -14.5z"/>
<glyph unicode="±" glyph-name="plusminus" horiz-adv-x="650" d="M405 233h-170v142h-190v171h190v174h170v-174h190v-171h-190v-142zM595 0h-550v171h550v-171z"/>
<glyph unicode="²" glyph-name="twosuperior" horiz-adv-x="420" d="M37 382l13 83q88 39 133.5 68.5t45.5 59.5q0 21 -27 21q-24 0 -57.5 -11.5t-57.5 -26.5l-21 101q81 49 186 49q68 0 113 -23.5t45 -79.5q0 -40 -27 -69.5t-77 -59.5l1 -4h97l-15 -108h-352z"/>
<glyph unicode="³" glyph-name="threesuperior" horiz-adv-x="420" d="M195 376q-101 0 -165 38l51 97q52 -32 108 -32q50 0 50 19q0 20 -90 20l8 58q83 15 83 36q0 10 -31 10q-55 0 -101 -25l-30 85q84 44 185 44q74 0 115.5 -20.5t41.5 -57.5q0 -31 -21.5 -52.5t-55.5 -29.5l-1 -4q67 -15 67 -63q0 -60 -63.5 -91.5t-150.5 -31.5z"/>
<glyph unicode="´" glyph-name="acute" horiz-adv-x="600" d="M272 623l-94 50l199 293l159 -103z"/>
<glyph unicode="µ" glyph-name="mu" horiz-adv-x="768" d="M730 197l23 -125q-116 -86 -226 -86q-46 0 -82.5 20.5t-45.5 55.5l-9 2q-16 -31 -49 -54.5t-71 -23.5q-14 0 -26 4q-3 -36 -3 -77q0 -55 6 -99l-248 -44q-5 52 -5 102q0 124 30 335l47 339h269l-46 -326q-1 -4 -1 -11q0 -20 10.5 -30t26.5 -10q19 0 39 11t30 28l47 338 h269l-45 -321q-2 -20 -2 -24q0 -21 18 -21q15 0 44 17z"/>
<glyph unicode="¶" glyph-name="paragraph" horiz-adv-x="1091" d="M626 -150l98 696h-66l-98 -696h-273l49 346q-141 0 -222.5 56.5t-81.5 171.5q0 160 104.5 243t276.5 83h708l-29 -204h-95l-98 -696h-273zM365 400l20 146q-40 -1 -65 -21.5t-25 -64.5q0 -59 70 -60z"/>
<glyph unicode="·" glyph-name="periodcentered" horiz-adv-x="336" d="M30 325q0 60 40 95.5t108 35.5q56 0 88.5 -28.5t32.5 -80.5q0 -65 -38.5 -100.5t-106.5 -35.5q-55 0 -89.5 29t-34.5 85z"/>
<glyph unicode="¸" glyph-name="cedilla" horiz-adv-x="600" d="M223 0h152l-67 -48q66 -17 66 -71q0 -41 -27 -69.5t-63.5 -39.5t-78.5 -11q-75 0 -127 29l31 63q41 -19 76 -19t35 23q0 19 -57 19h-30l-13 41z"/>
<glyph unicode="¹" glyph-name="onesuperior" horiz-adv-x="420" d="M42 382l15 103h94l16 116l-95 -4l13 88q66 5 200 38h62l-33 -238h94l-15 -103h-351z"/>
<glyph unicode="º" glyph-name="ordmasculine" horiz-adv-x="442" d="M245 488q19 0 31.5 22.5t12.5 66.5q0 39 -26 39q-45 0 -45 -90q0 -38 27 -38zM230 376q-170 0 -170 138q0 104 58 158t162 54q167 0 167 -138q0 -111 -59.5 -161.5t-157.5 -50.5z"/>
<glyph unicode="»" glyph-name="guillemotright" horiz-adv-x="752" d="M702 252l-344 -266l30 220l116 88l-91 88l31 220l270 -264zM372 252l-344 -266l30 220l116 88l-91 88l31 220l270 -264z"/>
<glyph unicode="¼" glyph-name="onequarter" horiz-adv-x="1114" d="M42 382l15 103h94l16 116l-95 -4l13 88q66 5 200 38h62l-33 -238h94l-15 -103h-351zM441 -14l-163 110l483 638l167 -107zM904 344l129 -7l-27 -192h27l-22 -96h-19l-7 -49h-146l7 49h-191l10 74q54 50 138 127.5t101 93.5zM824 145h38l5 37l-4 1l-41 -35z"/>
<glyph unicode="½" glyph-name="onehalf" horiz-adv-x="1114" d="M42 382l15 103h94l16 116l-95 -4l13 88q66 5 200 38h62l-33 -238h94l-15 -103h-351zM394 -14l-163 110l483 638l167 -107zM657 0l13 83q88 39 133.5 68.5t45.5 59.5q0 21 -27 21q-24 0 -57.5 -11.5t-57.5 -26.5l-21 101q81 49 186 49q68 0 113 -23.5t45 -79.5 q0 -40 -27 -69.5t-77 -59.5l1 -4h97l-15 -108h-352z"/>
<glyph unicode="¾" glyph-name="threequarters" horiz-adv-x="1114" d="M195 376q-101 0 -165 38l51 97q52 -32 108 -32q50 0 50 19q0 20 -90 20l8 58q83 15 83 36q0 10 -31 10q-55 0 -101 -25l-30 85q84 44 185 44q74 0 115.5 -20.5t41.5 -57.5q0 -31 -21.5 -52.5t-55.5 -29.5l-1 -4q67 -15 67 -63q0 -60 -63.5 -91.5t-150.5 -31.5zM423 -14 l-163 110l483 638l167 -107zM904 344l129 -7l-27 -192h27l-22 -96h-19l-7 -49h-146l7 49h-191l10 74q54 50 138 127.5t101 93.5zM824 145h38l5 37l-4 1l-41 -35z"/>
<glyph unicode="¿" glyph-name="questiondown" horiz-adv-x="572" d="M420 305q10 -27 10 -64q0 -34 -17 -63t-41 -47.5t-48 -33.5t-41 -29t-17 -27q0 -21 37 -21q63 0 137 40l40 -187q-50 -28 -124 -47.5t-144 -19.5q-239 0 -239 162q0 37 15 71t37 58t48.5 48t48.5 42.5t37 40t15 41.5q0 23 -5 36h251zM176 452q0 61 42 96.5t115 35.5 q59 0 93.5 -29t34.5 -81q0 -66 -40.5 -101.5t-112.5 -35.5q-59 0 -95.5 29.5t-36.5 85.5z"/>
<glyph unicode="À" glyph-name="Agrave" horiz-adv-x="895" d="M553 0l-28 139h-222q-16 -33 -64 -139h-284q176 333 412 750h267q27 -90 99.5 -350t106.5 -400h-287zM461 444h-7q-34 -63 -61 -119h94q-20 95 -26 119zM643 825l-309 102l124 176l262 -184z"/>
<glyph unicode="Á" glyph-name="Aacute" horiz-adv-x="895" d="M553 0l-28 139h-222q-16 -33 -64 -139h-284q176 333 412 750h267q27 -90 99.5 -350t106.5 -400h-287zM461 444h-7q-34 -63 -61 -119h94q-20 95 -26 119zM382 825l-49 94l314 184l74 -176z"/>
<glyph unicode="Â" glyph-name="Acircumflex" horiz-adv-x="895" d="M553 0l-28 139h-222q-16 -33 -64 -139h-284q176 333 412 750h267q27 -90 99.5 -350t106.5 -400h-287zM461 444h-7q-34 -63 -61 -119h94q-20 95 -26 119zM420 1087h221l167 -159l-90 -103l-209 102l-241 -102l-60 103z"/>
<glyph unicode="Ã" glyph-name="Atilde" horiz-adv-x="895" d="M553 0l-28 139h-222q-16 -33 -64 -139h-284q176 333 412 750h267q27 -90 99.5 -350t106.5 -400h-287zM461 444h-7q-34 -63 -61 -119h94q-20 95 -26 119zM761 1018q-8 -55 -26 -95t-41.5 -60t-46 -28.5t-45.5 -8.5q-40 0 -93.5 12t-71.5 12q-13 0 -21.5 -7t-12.5 -28h-153 q8 58 27 99t44.5 59.5t47.5 26t47 7.5q30 0 83 -12t79 -12t30 35h153z"/>
<glyph unicode="Ä" glyph-name="Adieresis" horiz-adv-x="895" d="M553 0l-28 139h-222q-16 -33 -64 -139h-284q176 333 412 750h267q27 -90 99.5 -350t106.5 -400h-287zM461 444h-7q-34 -63 -61 -119h94q-20 95 -26 119zM222 913q0 58 36.5 92t101.5 34q50 0 80 -27.5t30 -77.5q0 -63 -35 -96.5t-99 -33.5q-52 0 -83 27.5t-31 81.5z M554 913q0 58 36.5 92t101.5 34q50 0 80 -27.5t30 -77.5q0 -63 -35 -96.5t-99 -33.5q-52 0 -83 27.5t-31 81.5z"/>
<glyph unicode="Å" glyph-name="Aring" horiz-adv-x="895" d="M553 0l-28 139h-222q-16 -33 -64 -139h-284q176 333 412 750h267q27 -90 99.5 -350t106.5 -400h-287zM461 444h-7q-34 -63 -61 -119h94q-20 95 -26 119zM492 781q-67 0 -107.5 38.5t-40.5 100.5q0 78 56.5 133.5t137.5 55.5q67 0 108 -38t41 -100q0 -79 -56.5 -134.5 t-138.5 -55.5zM505 873q33 0 58 23.5t25 60.5q0 26 -17.5 43t-45.5 17q-33 0 -58 -23.5t-25 -60.5q0 -26 17.5 -43t45.5 -17z"/>
<glyph unicode="Æ" glyph-name="AE" horiz-adv-x="1102" d="M502 0l12 89h-199l-72 -89h-313q504 583 667 750h533l-28 -202h-244l-12 -82h178l-47 -174h-155l-13 -89h246l-28 -203h-525zM551 381l-86 -106h75l15 104z"/>
<glyph unicode="Ç" glyph-name="Ccedilla" horiz-adv-x="729" d="M655 37q-88 -36 -189 -47l-52 -38q66 -17 66 -71q0 -41 -27 -69.5t-63.5 -39.5t-78.5 -11q-75 0 -127 29l31 63q41 -19 76 -19t35 23q0 19 -57 19h-30l-13 41l92 74q-130 17 -211 93t-81 214q0 211 129 338.5t346 127.5q155 0 243 -51l-75 -199q-72 34 -151 34 q-89 0 -141.5 -55t-52.5 -152q0 -68 41.5 -102.5t113.5 -34.5q91 0 173 34z"/>
<glyph unicode="È" glyph-name="Egrave" horiz-adv-x="600" d="M0 0l105 750h523l-28 -202h-244l-12 -82h178l-47 -174h-155l-13 -89h246l-28 -203h-525zM475 825l-309 102l124 176l262 -184z"/>
<glyph unicode="É" glyph-name="Eacute" horiz-adv-x="600" d="M0 0l105 750h523l-28 -202h-244l-12 -82h178l-47 -174h-155l-13 -89h246l-28 -203h-525zM234 825l-49 94l314 184l74 -176z"/>
<glyph unicode="Ê" glyph-name="Ecircumflex" horiz-adv-x="600" d="M0 0l105 750h523l-28 -202h-244l-12 -82h178l-47 -174h-155l-13 -89h246l-28 -203h-525zM292 1087h221l167 -159l-90 -103l-209 102l-241 -102l-60 103z"/>
<glyph unicode="Ë" glyph-name="Edieresis" horiz-adv-x="600" d="M0 0l105 750h523l-28 -202h-244l-12 -82h178l-47 -174h-155l-13 -89h246l-28 -203h-525zM88 913q0 58 36.5 92t101.5 34q50 0 80 -27.5t30 -77.5q0 -63 -35 -96.5t-99 -33.5q-52 0 -83 27.5t-31 81.5zM420 913q0 58 36.5 92t101.5 34q50 0 80 -27.5t30 -77.5 q0 -63 -35 -96.5t-99 -33.5q-52 0 -83 27.5t-31 81.5z"/>
<glyph unicode="Ì" glyph-name="Igrave" horiz-adv-x="378" d="M0 0l105 750h278l-105 -750h-278zM385 825l-309 102l124 176l262 -184z"/>
<glyph unicode="Í" glyph-name="Iacute" horiz-adv-x="378" d="M0 0l105 750h278l-105 -750h-278zM124 825l-49 94l314 184l74 -176z"/>
<glyph unicode="Î" glyph-name="Icircumflex" horiz-adv-x="378" d="M0 0l105 750h278l-105 -750h-278zM181 1087h221l167 -159l-90 -103l-209 102l-241 -102l-60 103z"/>
<glyph unicode="Ï" glyph-name="Idieresis" horiz-adv-x="378" d="M0 0l105 750h278l-105 -750h-278zM-23 913q0 58 36.5 92t101.5 34q50 0 80 -27.5t30 -77.5q0 -63 -35 -96.5t-99 -33.5q-52 0 -83 27.5t-31 81.5zM309 913q0 58 36.5 92t101.5 34q50 0 80 -27.5t30 -77.5q0 -63 -35 -96.5t-99 -33.5q-52 0 -83 27.5t-31 81.5z"/>
<glyph unicode="Ð" glyph-name="Eth" horiz-adv-x="853" d="M0 280l25 181h59l41 289h368q164 0 251 -74t87 -222q0 -208 -116 -331t-328 -123h-367l39 280h-59zM374 547l-12 -86h81l-25 -181h-81l-11 -78h48q55 0 92.5 36t52 85.5t14.5 108.5q0 68 -30 91.5t-82 23.5h-47z"/>
<glyph unicode="Ñ" glyph-name="Ntilde" horiz-adv-x="880" d="M780 0l-183 -14q-99 141 -271 366l-8 -1l-49 -351h-269l105 750h238q116 -135 222 -290l8 2l41 288h271zM773 1018q-8 -55 -26 -95t-41.5 -60t-46 -28.5t-45.5 -8.5q-40 0 -93.5 12t-71.5 12q-13 0 -21.5 -7t-12.5 -28h-153q8 58 27 99t44.5 59.5t47.5 26t47 7.5 q30 0 83 -12t79 -12t30 35h153z"/>
<glyph unicode="Ò" glyph-name="Ograve" horiz-adv-x="873" d="M385 -14q-168 0 -263.5 76t-95.5 232q0 216 121.5 343t345.5 127q359 0 359 -302q0 -219 -122.5 -347.5t-344.5 -128.5zM411 182q45 0 77 26t47.5 70t21.5 86t6 88q0 65 -24 92t-72 27q-37 0 -65 -18.5t-44.5 -46.5t-26.5 -65.5t-13.5 -71t-3.5 -67.5q0 -62 23.5 -91 t73.5 -29zM632 825l-309 102l124 176l262 -184z"/>
<glyph unicode="Ó" glyph-name="Oacute" horiz-adv-x="873" d="M385 -14q-168 0 -263.5 76t-95.5 232q0 216 121.5 343t345.5 127q359 0 359 -302q0 -219 -122.5 -347.5t-344.5 -128.5zM411 182q45 0 77 26t47.5 70t21.5 86t6 88q0 65 -24 92t-72 27q-37 0 -65 -18.5t-44.5 -46.5t-26.5 -65.5t-13.5 -71t-3.5 -67.5q0 -62 23.5 -91 t73.5 -29zM371 825l-49 94l314 184l74 -176z"/>
<glyph unicode="Ô" glyph-name="Ocircumflex" horiz-adv-x="873" d="M385 -14q-168 0 -263.5 76t-95.5 232q0 216 121.5 343t345.5 127q359 0 359 -302q0 -219 -122.5 -347.5t-344.5 -128.5zM411 182q45 0 77 26t47.5 70t21.5 86t6 88q0 65 -24 92t-72 27q-37 0 -65 -18.5t-44.5 -46.5t-26.5 -65.5t-13.5 -71t-3.5 -67.5q0 -62 23.5 -91 t73.5 -29zM428 1087h221l167 -159l-90 -103l-209 102l-241 -102l-60 103z"/>
<glyph unicode="Õ" glyph-name="Otilde" horiz-adv-x="873" d="M385 -14q-168 0 -263.5 76t-95.5 232q0 216 121.5 343t345.5 127q359 0 359 -302q0 -219 -122.5 -347.5t-344.5 -128.5zM411 182q45 0 77 26t47.5 70t21.5 86t6 88q0 65 -24 92t-72 27q-37 0 -65 -18.5t-44.5 -46.5t-26.5 -65.5t-13.5 -71t-3.5 -67.5q0 -62 23.5 -91 t73.5 -29zM770 1018q-8 -55 -26 -95t-41.5 -60t-46 -28.5t-45.5 -8.5q-40 0 -93.5 12t-71.5 12q-13 0 -21.5 -7t-12.5 -28h-153q8 58 27 99t44.5 59.5t47.5 26t47 7.5q29 0 82 -12t80 -12q26 0 30 35h153z"/>
<glyph unicode="Ö" glyph-name="Odieresis" horiz-adv-x="873" d="M385 -14q-168 0 -263.5 76t-95.5 232q0 216 121.5 343t345.5 127q359 0 359 -302q0 -219 -122.5 -347.5t-344.5 -128.5zM411 182q45 0 77 26t47.5 70t21.5 86t6 88q0 65 -24 92t-72 27q-37 0 -65 -18.5t-44.5 -46.5t-26.5 -65.5t-13.5 -71t-3.5 -67.5q0 -62 23.5 -91 t73.5 -29zM224 913q0 58 36.5 92t101.5 34q50 0 80 -27.5t30 -77.5q0 -63 -35 -96.5t-99 -33.5q-52 0 -83 27.5t-31 81.5zM556 913q0 58 36.5 92t101.5 34q50 0 80 -27.5t30 -77.5q0 -63 -35 -96.5t-99 -33.5q-52 0 -83 27.5t-31 81.5z"/>
<glyph unicode="×" glyph-name="multiply" horiz-adv-x="650" d="M453 30l-133 133l-134 -133l-120 120l133 134l-132 133l120 120l133 -133l133 133l120 -120l-133 -133l134 -134z"/>
<glyph unicode="Ø" glyph-name="Oslash" horiz-adv-x="873" d="M845 790l-86 -100q93 -76 93 -228q0 -219 -122.5 -347.5t-344.5 -128.5q-119 0 -200 37l-44 -51h-76l69 80q-108 78 -108 242q0 216 121.5 343t345.5 127q132 0 217 -43l59 69h76zM314 302q0 -16 2 -38l231 268q-22 39 -80 39q-37 0 -65 -18.5t-44.5 -46.5t-26.5 -65.5 t-13.5 -71t-3.5 -67.5zM411 182q45 0 77 26t47.5 70t21.5 86t6 88v10l-221 -257q23 -23 69 -23z"/>
<glyph unicode="Ù" glyph-name="Ugrave" horiz-adv-x="845" d="M371 -14q-168 0 -251.5 61.5t-83.5 207.5q0 44 7 90l57 405h279l-59 -416q-4 -36 -4 -48q0 -49 21 -69t65 -20q50 0 79.5 28t40.5 109l59 416h279l-60 -423q-26 -181 -131.5 -261t-297.5 -80zM590 825l-309 102l124 176l262 -184z"/>
<glyph unicode="Ú" glyph-name="Uacute" horiz-adv-x="845" d="M371 -14q-168 0 -251.5 61.5t-83.5 207.5q0 44 7 90l57 405h279l-59 -416q-4 -36 -4 -48q0 -49 21 -69t65 -20q50 0 79.5 28t40.5 109l59 416h279l-60 -423q-26 -181 -131.5 -261t-297.5 -80zM379 825l-49 94l314 184l74 -176z"/>
<glyph unicode="Û" glyph-name="Ucircumflex" horiz-adv-x="845" d="M371 -14q-168 0 -251.5 61.5t-83.5 207.5q0 44 7 90l57 405h279l-59 -416q-4 -36 -4 -48q0 -49 21 -69t65 -20q50 0 79.5 28t40.5 109l59 416h279l-60 -423q-26 -181 -131.5 -261t-297.5 -80zM417 1087h221l167 -159l-90 -103l-209 102l-241 -102l-60 103z"/>
<glyph unicode="Ü" glyph-name="Udieresis" horiz-adv-x="845" d="M371 -14q-168 0 -251.5 61.5t-83.5 207.5q0 44 7 90l57 405h279l-59 -416q-4 -36 -4 -48q0 -49 21 -69t65 -20q50 0 79.5 28t40.5 109l59 416h279l-60 -423q-26 -181 -131.5 -261t-297.5 -80zM213 913q0 58 36.5 92t101.5 34q50 0 80 -27.5t30 -77.5q0 -63 -35 -96.5 t-99 -33.5q-52 0 -83 27.5t-31 81.5zM545 913q0 58 36.5 92t101.5 34q50 0 80 -27.5t30 -77.5q0 -63 -35 -96.5t-99 -33.5q-52 0 -83 27.5t-31 81.5z"/>
<glyph unicode="Ý" glyph-name="Yacute" horiz-adv-x="797" d="M197 0l40 289q-91 162 -124 211q-30 42 -72 42l29 208q44 5 112 5q60 0 100 -21t67 -76l58 -116h6q19 24 39.5 55.5t51 81.5t44.5 71h304q-139 -201 -336 -455l-41 -295h-278zM347 825l-49 94l314 184l74 -176z"/>
<glyph unicode="Þ" glyph-name="Thorn" horiz-adv-x="755" d="M360 97q-46 0 -68 1l-13 -98h-279l105 750h279l-14 -98h106q273 0 273 -209q0 -159 -110.5 -252.5t-278.5 -93.5zM342 450l-20 -143q24 -2 41 -2q44 0 73 23t29 71q0 30 -20 40.5t-61 10.5h-42z"/>
<glyph unicode="ß" glyph-name="germandbls" horiz-adv-x="873" d="M540 -13q-126 0 -206 46l52 163q77 -42 154 -42q45 0 45 16q0 10 -31 22t-67.5 25.5t-67.5 46.5t-31 79t21 82.5t46 55.5t46 41.5t21 44.5q0 15 -14 23t-36 8q-47 0 -68 -25.5t-28 -75.5l-100 -727h-268l84 604h-85l24 172h86l1 7q9 64 44.5 110.5t90 72t114 37 t127.5 11.5q41 0 78.5 -2.5t86.5 -12.5t84 -26.5t59.5 -47t24.5 -71.5q0 -40 -16.5 -71.5t-40.5 -51t-47.5 -35t-40 -30.5t-16.5 -30t17.5 -29t42 -27.5t49 -31.5t42 -49t17.5 -71q0 -73 -45 -122.5t-108.5 -69t-140.5 -19.5z"/>
<glyph unicode="à" glyph-name="agrave" horiz-adv-x="760" d="M527 -14q-107 0 -131 79l-4 2q-88 -81 -195 -81q-84 0 -133.5 60t-49.5 163q0 159 89.5 255t260.5 96q126 0 215 -51l59 37h79l-48 -339q-2 -14 -2 -20q0 -19 21 -19l32 2l-20 -150q-87 -34 -173 -34zM339 167q38 0 64 42l21 152q-21 16 -47 16q-45 0 -66 -43t-21 -97 q0 -70 49 -70zM410 623l-196 240l187 103l117 -293z"/>
<glyph unicode="á" glyph-name="aacute" horiz-adv-x="760" d="M527 -14q-107 0 -131 79l-4 2q-88 -81 -195 -81q-84 0 -133.5 60t-49.5 163q0 159 89.5 255t260.5 96q126 0 215 -51l59 37h79l-48 -339q-2 -14 -2 -20q0 -19 21 -19l32 2l-20 -150q-87 -34 -173 -34zM339 167q38 0 64 42l21 152q-21 16 -47 16q-45 0 -66 -43t-21 -97 q0 -70 49 -70zM331 623l-94 50l199 293l159 -103z"/>
<glyph unicode="â" glyph-name="acircumflex" horiz-adv-x="760" d="M527 -14q-107 0 -131 79l-4 2q-88 -81 -195 -81q-84 0 -133.5 60t-49.5 163q0 159 89.5 255t260.5 96q126 0 215 -51l59 37h79l-48 -339q-2 -14 -2 -20q0 -19 21 -19l32 2l-20 -150q-87 -34 -173 -34zM339 167q38 0 64 42l21 152q-21 16 -47 16q-45 0 -66 -43t-21 -97 q0 -70 49 -70zM551 945l115 -249l-145 -73l-103 162l-148 -162l-124 73l184 249h221z"/>
<glyph unicode="ã" glyph-name="atilde" horiz-adv-x="760" d="M527 -14q-107 0 -131 79l-4 2q-88 -81 -195 -81q-84 0 -133.5 60t-49.5 163q0 159 89.5 255t260.5 96q126 0 215 -51l59 37h79l-48 -339q-2 -14 -2 -20q0 -19 21 -19l32 2l-20 -150q-87 -34 -173 -34zM339 167q38 0 64 42l21 152q-21 16 -47 16q-45 0 -66 -43t-21 -97 q0 -70 49 -70zM652 852q-8 -55 -26 -95t-41.5 -60t-46 -28.5t-45.5 -8.5q-40 0 -93.5 12t-71.5 12q-13 0 -21.5 -7t-12.5 -28h-153q8 58 27 99t44.5 59.5t47.5 26t47 7.5q29 0 82 -12t80 -12q26 0 30 35h153z"/>
<glyph unicode="ä" glyph-name="adieresis" horiz-adv-x="760" d="M527 -14q-107 0 -131 79l-4 2q-88 -81 -195 -81q-84 0 -133.5 60t-49.5 163q0 159 89.5 255t260.5 96q126 0 215 -51l59 37h79l-48 -339q-2 -14 -2 -20q0 -19 21 -19l32 2l-20 -150q-87 -34 -173 -34zM339 167q38 0 64 42l21 152q-21 16 -47 16q-45 0 -66 -43t-21 -97 q0 -70 49 -70zM113 758q0 58 36.5 92t101.5 34q50 0 80 -27.5t30 -77.5q0 -63 -35 -96.5t-99 -33.5q-52 0 -83 27.5t-31 81.5zM445 758q0 58 36.5 92t101.5 34q50 0 80 -27.5t30 -77.5q0 -63 -35 -96.5t-99 -33.5q-52 0 -83 27.5t-31 81.5z"/>
<glyph unicode="å" glyph-name="aring" horiz-adv-x="760" d="M527 -14q-107 0 -131 79l-4 2q-88 -81 -195 -81q-84 0 -133.5 60t-49.5 163q0 159 89.5 255t260.5 96q126 0 215 -51l59 37h79l-48 -339q-2 -14 -2 -20q0 -19 21 -19l32 2l-20 -150q-87 -34 -173 -34zM339 167q38 0 64 42l21 152q-21 16 -47 16q-45 0 -66 -43t-21 -97 q0 -70 49 -70zM373 638q-67 0 -107.5 38.5t-40.5 100.5q0 78 56.5 133.5t137.5 55.5q67 0 108 -38t41 -100q0 -79 -56.5 -134.5t-138.5 -55.5zM386 730q33 0 58 23.5t25 60.5q0 26 -17.5 43t-45.5 17q-33 0 -58 -23.5t-25 -60.5q0 -26 17.5 -43t45.5 -17z"/>
<glyph unicode="æ" glyph-name="ae" horiz-adv-x="993" d="M909 201l14 -171q-114 -44 -269 -44q-153 0 -230 78q-49 -37 -115.5 -57.5t-131.5 -20.5q-84 0 -138 35t-54 103q0 116 147 152q72 18 237 54q2 12 2 17q0 34 -57 34q-87 0 -203 -46l-51 153q145 72 306 72q109 0 166 -36q73 35 180 35q257 0 257 -209q0 -56 -14 -103 h-337q-1 -12 -1 -17q0 -24 21 -41t73 -17q89 0 198 29zM304 142q24 0 43 24l9 68q-43 -11 -62 -18q-11 -3 -19.5 -14.5t-8.5 -24.5q0 -35 38 -35zM636 343h98q1 7 1 18q0 45 -37 45q-47 0 -62 -63z"/>
<glyph unicode="ç" glyph-name="ccedilla" horiz-adv-x="575" d="M512 32q-54 -27 -138 -39l-57 -41q66 -17 66 -71q0 -41 -27 -69.5t-63.5 -39.5t-78.5 -11q-75 0 -127 29l31 63q41 -19 76 -19t35 23q0 19 -57 19h-30l-13 41l90 73q-99 14 -152 73t-53 158q0 155 87 247t255 92q51 0 112 -10.5t97 -30.5l-61 -188q-62 30 -123 30 q-46 0 -68.5 -30t-22.5 -78q0 -63 71 -63q70 0 137 24z"/>
<glyph unicode="è" glyph-name="egrave" horiz-adv-x="661" d="M577 201l14 -171q-114 -44 -269 -44q-43 0 -83.5 6.5t-82.5 23.5t-72.5 43t-50 70t-19.5 100q0 162 97 246.5t269 84.5q257 0 257 -210q0 -56 -14 -103h-337q-1 -12 -1 -17q0 -24 21 -41t73 -17q89 0 198 29zM304 343h98q1 7 1 18q0 45 -37 45q-47 0 -62 -63zM358 623 l-196 240l187 103l117 -293z"/>
<glyph unicode="é" glyph-name="eacute" horiz-adv-x="661" d="M577 201l14 -171q-114 -44 -269 -44q-43 0 -83.5 6.5t-82.5 23.5t-72.5 43t-50 70t-19.5 100q0 162 97 246.5t269 84.5q257 0 257 -210q0 -56 -14 -103h-337q-1 -12 -1 -17q0 -24 21 -41t73 -17q89 0 198 29zM304 343h98q1 7 1 18q0 45 -37 45q-47 0 -62 -63zM289 623 l-94 50l199 293l159 -103z"/>
<glyph unicode="ê" glyph-name="ecircumflex" horiz-adv-x="661" d="M577 201l14 -171q-114 -44 -269 -44q-43 0 -83.5 6.5t-82.5 23.5t-72.5 43t-50 70t-19.5 100q0 162 97 246.5t269 84.5q257 0 257 -210q0 -56 -14 -103h-337q-1 -12 -1 -17q0 -24 21 -41t73 -17q89 0 198 29zM304 343h98q1 7 1 18q0 45 -37 45q-47 0 -62 -63zM522 945 l115 -249l-145 -73l-103 162l-148 -162l-124 73l184 249h221z"/>
<glyph unicode="ë" glyph-name="edieresis" horiz-adv-x="661" d="M577 201l14 -171q-114 -44 -269 -44q-43 0 -83.5 6.5t-82.5 23.5t-72.5 43t-50 70t-19.5 100q0 162 97 246.5t269 84.5q257 0 257 -210q0 -56 -14 -103h-337q-1 -12 -1 -17q0 -24 21 -41t73 -17q89 0 198 29zM304 343h98q1 7 1 18q0 45 -37 45q-47 0 -62 -63zM74 758 q0 58 36.5 92t101.5 34q50 0 80 -27.5t30 -77.5q0 -63 -35 -96.5t-99 -33.5q-52 0 -83 27.5t-31 81.5zM406 758q0 58 36.5 92t101.5 34q50 0 80 -27.5t30 -77.5q0 -63 -35 -96.5t-99 -33.5q-52 0 -83 27.5t-31 81.5z"/>
<glyph unicode="ì" glyph-name="igrave" horiz-adv-x="352" d="M-5 0l76 546h269l-76 -546h-269zM224 623l-196 240l187 103l117 -293z"/>
<glyph unicode="í" glyph-name="iacute" horiz-adv-x="352" d="M170 623l-94 50l199 293l159 -103zM-5 0l76 546h269l-76 -546h-269z"/>
<glyph unicode="î" glyph-name="icircumflex" horiz-adv-x="352" d="M-5 0l76 546h269l-76 -546h-269zM372 945l115 -249l-145 -73l-103 162l-148 -162l-124 73l184 249h221z"/>
<glyph unicode="ï" glyph-name="idieresis" horiz-adv-x="352" d="M-5 0l76 546h269l-76 -546h-269zM-71 758q0 58 36.5 92t101.5 34q50 0 80 -27.5t30 -77.5q0 -63 -35 -96.5t-99 -33.5q-52 0 -83 27.5t-31 81.5zM261 758q0 58 36.5 92t101.5 34q50 0 80 -27.5t30 -77.5q0 -63 -35 -96.5t-99 -33.5q-52 0 -83 27.5t-31 81.5z"/>
<glyph unicode="ð" glyph-name="eth" horiz-adv-x="675" d="M183 443l19 119l35 12q-36 17 -79 31l96 179q152 -36 252 -118l159 54l-18 -126l-59 -19q59 -92 59 -207q0 -172 -103 -277t-283 -105q-100 0 -173.5 49.5t-73.5 144.5q0 134 87 199t230 65q18 0 45 -5l7 4q-12 37 -26 57zM309 162q70 0 83 130q-28 4 -48 4 q-36 0 -60 -22t-24 -62q0 -50 49 -50z"/>
<glyph unicode="ñ" glyph-name="ntilde" horiz-adv-x="723" d="M-5 0l76 546h240l9 -74l9 -1q84 88 200 88q162 0 162 -159q0 -27 -5 -62l-47 -338h-269l42 299q1 6 1 17q0 41 -34 41q-48 0 -72 -48l-43 -309h-269zM617 852q-8 -55 -26 -95t-41.5 -60t-46 -28.5t-45.5 -8.5q-40 0 -93.5 12t-71.5 12q-13 0 -21.5 -7t-12.5 -28h-153 q8 58 27 99t44.5 59.5t47.5 26t47 7.5q30 0 83 -12t79 -12t30 35h153z"/>
<glyph unicode="ò" glyph-name="ograve" horiz-adv-x="714" d="M341 167q71 0 71 128q0 82 -51 82q-72 0 -72 -128q0 -82 52 -82zM306 -14q-138 0 -215 59t-77 174q0 73 19 131.5t62 107t121.5 75.5t187.5 27q139 0 211 -64.5t72 -169.5q0 -72 -20 -131t-62.5 -107t-118.5 -75t-180 -27zM377 623l-196 240l187 103l117 -293z"/>
<glyph unicode="ó" glyph-name="oacute" horiz-adv-x="714" d="M341 167q71 0 71 128q0 82 -51 82q-72 0 -72 -128q0 -82 52 -82zM306 -14q-138 0 -215 59t-77 174q0 73 19 131.5t62 107t121.5 75.5t187.5 27q139 0 211 -64.5t72 -169.5q0 -72 -20 -131t-62.5 -107t-118.5 -75t-180 -27zM308 623l-94 50l199 293l159 -103z"/>
<glyph unicode="ô" glyph-name="ocircumflex" horiz-adv-x="714" d="M341 167q71 0 71 128q0 82 -51 82q-72 0 -72 -128q0 -82 52 -82zM306 -14q-138 0 -215 59t-77 174q0 73 19 131.5t62 107t121.5 75.5t187.5 27q139 0 211 -64.5t72 -169.5q0 -72 -20 -131t-62.5 -107t-118.5 -75t-180 -27zM523 945l115 -249l-145 -73l-103 162l-148 -162 l-124 73l184 249h221z"/>
<glyph unicode="õ" glyph-name="otilde" horiz-adv-x="714" d="M341 167q71 0 71 128q0 82 -51 82q-72 0 -72 -128q0 -82 52 -82zM306 -14q-138 0 -215 59t-77 174q0 73 19 131.5t62 107t121.5 75.5t187.5 27q139 0 211 -64.5t72 -169.5q0 -72 -20 -131t-62.5 -107t-118.5 -75t-180 -27zM618 852q-8 -55 -26 -95t-41.5 -60t-46 -28.5 t-45.5 -8.5q-40 0 -93.5 12t-71.5 12q-13 0 -21.5 -7t-12.5 -28h-153q8 58 27 99t44.5 59.5t47.5 26t47 7.5q29 0 82 -12t80 -12q26 0 30 35h153z"/>
<glyph unicode="ö" glyph-name="odieresis" horiz-adv-x="714" d="M341 167q71 0 71 128q0 82 -51 82q-72 0 -72 -128q0 -82 52 -82zM306 -14q-138 0 -215 59t-77 174q0 73 19 131.5t62 107t121.5 75.5t187.5 27q139 0 211 -64.5t72 -169.5q0 -72 -20 -131t-62.5 -107t-118.5 -75t-180 -27zM83 758q0 58 36.5 92t101.5 34q50 0 80 -27.5 t30 -77.5q0 -63 -35 -96.5t-99 -33.5q-52 0 -83 27.5t-31 81.5zM415 758q0 58 36.5 92t101.5 34q50 0 80 -27.5t30 -77.5q0 -63 -35 -96.5t-99 -33.5q-52 0 -83 27.5t-31 81.5z"/>
<glyph unicode="÷" glyph-name="divide" horiz-adv-x="650" d="M595 198h-550v171h550v-171zM320 -14q-44 0 -69.5 22.5t-25.5 64.5q0 40 25.5 64t69.5 24q45 0 70 -24t25 -64q0 -42 -25 -64.5t-70 -22.5zM320 406q-45 0 -70 24t-25 64q0 42 25 64.5t70 22.5q44 0 69.5 -22.5t25.5 -64.5q0 -40 -25.5 -64t-69.5 -24z"/>
<glyph unicode="ø" glyph-name="oslash" horiz-adv-x="714" d="M142 -28h-77l48 58q-99 59 -99 189q0 73 19 131t62 107t121.5 75.5t187.5 26.5q75 0 130 -20l21 25h77l-42 -51q97 -61 97 -187q0 -72 -20 -131t-62.5 -107t-118.5 -75t-180 -27q-75 0 -137 19zM289 249v-6l102 123q-11 11 -30 11q-72 0 -72 -128zM341 167q71 0 71 128v3 l-100 -121q11 -10 29 -10z"/>
<glyph unicode="ù" glyph-name="ugrave" horiz-adv-x="718" d="M706 546l-76 -546h-228l-18 63l-8 1q-26 -27 -52.5 -44t-54.5 -24t-47 -8.5t-49 -1.5q-77 0 -120 40.5t-43 122.5q0 27 4 51l48 346h269l-43 -314q-2 -14 -2 -20q0 -43 35 -43q42 0 69 38l47 339h269zM407 623l-196 240l187 103l117 -293z"/>
<glyph unicode="ú" glyph-name="uacute" horiz-adv-x="718" d="M706 546l-76 -546h-228l-18 63l-8 1q-26 -27 -52.5 -44t-54.5 -24t-47 -8.5t-49 -1.5q-77 0 -120 40.5t-43 122.5q0 27 4 51l48 346h269l-43 -314q-2 -14 -2 -20q0 -43 35 -43q42 0 69 38l47 339h269zM358 623l-94 50l199 293l159 -103z"/>
<glyph unicode="û" glyph-name="ucircumflex" horiz-adv-x="718" d="M706 546l-76 -546h-228l-18 63l-8 1q-26 -27 -52.5 -44t-54.5 -24t-47 -8.5t-49 -1.5q-77 0 -120 40.5t-43 122.5q0 27 4 51l48 346h269l-43 -314q-2 -14 -2 -20q0 -43 35 -43q42 0 69 38l47 339h269zM548 945l115 -249l-145 -73l-103 162l-148 -162l-124 73l184 249h221 z"/>
<glyph unicode="ü" glyph-name="udieresis" horiz-adv-x="718" d="M706 546l-76 -546h-228l-18 63l-8 1q-26 -27 -52.5 -44t-54.5 -24t-47 -8.5t-49 -1.5q-77 0 -120 40.5t-43 122.5q0 27 4 51l48 346h269l-43 -314q-2 -14 -2 -20q0 -43 35 -43q42 0 69 38l47 339h269zM109 758q0 58 36.5 92t101.5 34q50 0 80 -27.5t30 -77.5 q0 -63 -35 -96.5t-99 -33.5q-52 0 -83 27.5t-31 81.5zM441 758q0 58 36.5 92t101.5 34q50 0 80 -27.5t30 -77.5q0 -63 -35 -96.5t-99 -33.5q-52 0 -83 27.5t-31 81.5z"/>
<glyph unicode="ý" glyph-name="yacute" horiz-adv-x="772" d="M379 -230h-299q112 173 145 230h-64q-63 252 -86 337q-6 21 -16 28t-29 8l24 174q56 8 104 8q81 0 112 -21t47 -80q14 -50 43 -203h7q95 194 137 295h294q-115 -238 -419 -776zM370 623l-94 50l199 293l159 -103z"/>
<glyph unicode="þ" glyph-name="thorn" horiz-adv-x="725" d="M515 560q85 0 134 -58t49 -158q0 -98 -33.5 -177.5t-106 -130t-174.5 -50.5q-88 0 -127 21l-33 -237h-262l141 1000h270l-31 -217l-10 -73l7 -1q40 42 78 61.5t98 19.5zM345 170q43 0 63.5 41t20.5 95q0 71 -51 71q-36 0 -66 -40l-22 -153q16 -14 55 -14z"/>
</font>
</defs>
</svg>
