<?xml version="1.0" encoding="UTF-8" standalone="no"?>
<!DOCTYPE svg  PUBLIC '-//W3C//DTD SVG 1.1//EN'  'http://www.w3.org/Graphics/SVG/1.1/DTD/svg11.dtd'>
<svg xmlns="http://www.w3.org/2000/svg" version="1.1">
<defs>
<font id="SoberanaSans-LightItalic" horiz-adv-x="650">
<font-face unicode-range="U+0020-00FE" font-family="Soberana Sans Light" bbox="-80 -230 1046 995" font-style="italic" descent="-230" underline-thickness="50" ascent="770" underline-position="-150" slope="-8" font-weight="300" units-per-em="1000" x-height="538" cap-height="750" panose-1="2 0 0 0 0 0 0 0 0 0"/>
<missing-glyph/>
<glyph unicode=" " horiz-adv-x="260" glyph-name="space"/>
<glyph unicode="!" horiz-adv-x="308" glyph-name="exclam" d="M152 183h-42l58 567l81 7zM104 -7q-18 0 -29.5 10t-11.5 27q0 22 13 36t36 14q19 0 30 -11.5t11 -28.5q0 -20 -14.5 -33.5t-34.5 -13.5z"/>
<glyph unicode='&quot;' horiz-adv-x="379" glyph-name="quotedbl" d="M152 538h-37l10 212l80 7zM312 538h-37l10 212l80 7z"/>
<glyph unicode="#" glyph-name="numbersign" d="M471 637h48l-54 -202l146 1l-7 -46l-151 1l-34 -131l147 1l-6 -46l-153 1l-54 -206h-48l54 206h-137l-54 -206h-48l54 206l-144 -1l6 46l150 -1l34 131l-146 -1l7 46l151 -1l54 202h48l-54 -202h137zM268 391l-34 -131h137l34 131h-137z"/>
<glyph unicode="$" glyph-name="dollar" d="M486 851l-36 -129q68 -12 116 -40l-28 -53q-72 43 -157 43q-67 0 -117 -30.5t-50 -97.5q0 -32 24 -60t54.5 -45.5t76.5 -43.5t72 -46q75 -58 75 -140q0 -107 -75 -161.5t-189 -54.5h-4l-35 -129l-54 5l35 128q-81 11 -133 52l22 59q73 -58 176 -58q49 0 89.5 12t71 47 t30.5 89q0 44 -32 76t-100.5 70t-91.5 55q-80 57 -80 136q0 91 70.5 141.5t168.5 50.5h10l36 129z"/>
<glyph unicode="%" horiz-adv-x="869" glyph-name="percent" d="M228 417q61 0 94.5 48.5t33.5 118.5q0 49 -23.5 75.5t-66.5 26.5q-64 0 -97.5 -49t-33.5 -119q0 -101 93 -101zM606 34q61 0 94.5 48.5t33.5 118.5q0 49 -23.5 75.5t-66.5 26.5q-64 0 -97.5 -49t-33.5 -119q0 -101 93 -101zM183 -7l-38 24l542 710l36 -23zM221 376 q-63 0 -100 36.5t-37 102.5q0 85 50 148.5t137 63.5q67 0 102 -38t35 -102q0 -86 -50 -148.5t-137 -62.5zM599 -7q-63 0 -100 36.5t-37 102.5q0 85 50 148.5t137 63.5q67 0 102 -38t35 -102q0 -86 -50 -148.5t-137 -62.5z"/>
<glyph unicode="&amp;" horiz-adv-x="760" glyph-name="ampersand" d="M681 43l-6 -43q-25 -7 -39 -7q-51 0 -111 49q-38 32 -68 60q-115 -109 -239 -109q-98 0 -149 48t-51 118q0 146 188 255q-37 74 -37 138q0 91 57.5 148t157.5 57t163 -54l-30 -50q-60 48 -135 48q-65 0 -106.5 -38t-41.5 -109q0 -75 65.5 -175t162.5 -195q62 72 159 236 h67q-81 -145 -188 -272q57 -50 92 -74q44 -31 73 -31h16zM224 49q46 0 98.5 22t98.5 66q-125 122 -192 233q-62 -36 -103.5 -88.5t-41.5 -117.5q0 -51 35.5 -83t104.5 -32z"/>
<glyph unicode="&apos;" horiz-adv-x="219" glyph-name="quotesingle" d="M152 538h-37l10 212l80 7z"/>
<glyph unicode="(" horiz-adv-x="426" glyph-name="parenleft" d="M290 -41l-9 -61q-102 45 -161 139.5t-59 220.5q0 175 94 312.5t249 201.5l-9 -61q-266 -149 -266 -455q0 -199 161 -297z"/>
<glyph unicode=")" horiz-adv-x="426" glyph-name="parenright" d="M15 -102l9 61q266 149 266 453q0 202 -161 299l9 61q102 -46 161 -140t59 -221q0 -173 -94.5 -311t-248.5 -202z"/>
<glyph unicode="*" horiz-adv-x="435" glyph-name="asterisk" d="M248 397h-51l31 142l-127 -83l-21 47l138 59l-121 59l33 47l105 -83l9 142h51l-31 -142l127 83l21 -47l-139 -59l122 -59l-33 -47l-105 83z"/>
<glyph unicode="+" glyph-name="plus" d="M351 68h-52v234h-219v48h219v235h52v-235h219v-48h-219v-234z"/>
<glyph unicode="," horiz-adv-x="230" glyph-name="comma" d="M16 -118l-32 11q76 52 76 108q0 42 -43 82l61 18q44 -34 44 -80q0 -75 -106 -139z"/>
<glyph unicode="-" horiz-adv-x="380" glyph-name="hyphen" d="M13 236l7 49l322 20l-7 -49z"/>
<glyph unicode="." horiz-adv-x="230" glyph-name="period" d="M23 35q0 21 15 35t36 14q18 0 30 -10.5t12 -28.5q0 -22 -14 -37t-37 -15q-19 0 -30.5 12t-11.5 30z"/>
<glyph unicode="/" horiz-adv-x="555" glyph-name="slash" d="M562 767l-520 -807l-45 23l521 807z"/>
<glyph unicode="0" glyph-name="zero" d="M281 49q63 0 111.5 42.5t74.5 109t39 134t13 129.5q0 207 -150 207q-62 0 -110.5 -42.5t-75 -109t-39.5 -134t-13 -128.5q0 -208 150 -208zM274 -7q-100 0 -155.5 70t-55.5 199q0 60 10.5 122t34.5 124t59 110.5t89.5 78.5t120.5 30q104 0 157 -72t53 -198 q0 -57 -9.5 -117t-33.5 -123t-58.5 -112t-89.5 -80.5t-122 -31.5z"/>
<glyph unicode="1" glyph-name="one" d="M470 0h-367l7 55h160l83 588l-162 -12l6 41q112 15 211 48h18l-94 -665h145z"/>
<glyph unicode="2" glyph-name="two" d="M63 0l5 35q25 23 75.5 68.5t72.5 66t62.5 58.5t58.5 59t46.5 53.5t41 55.5t27 52t20 56t5.5 55q0 54 -31.5 82.5t-89.5 28.5q-98 0 -181 -65l-13 53q82 69 202 69q87 0 133.5 -44t46.5 -121q0 -36 -10.5 -73.5t-25.5 -69t-42.5 -69t-49 -63.5t-59.5 -63.5t-59 -57 t-61.5 -56t-55.5 -50.5l-1 -5h319l-7 -55h-429z"/>
<glyph unicode="3" glyph-name="three" d="M261 -7q-63 0 -116.5 20.5t-80.5 46.5l28 57q72 -67 170 -67q80 0 131.5 46t51.5 129q0 138 -198 138l6 44q216 52 216 170q0 93 -105 93q-102 0 -186 -73l-13 57q86 73 210 73q75 0 117.5 -37t42.5 -107q0 -131 -153 -187l-1 -4q61 -16 95.5 -57.5t34.5 -105.5 q0 -107 -69 -171.5t-181 -64.5z"/>
<glyph unicode="4" glyph-name="four" d="M494 720l27 -10l-64 -459h93l-15 -55h-86l-26 -196h-62l26 196h-342l7 49q239 262 442 475zM443 581l-5 2q-18 -19 -76 -80.5t-114.5 -122t-113.5 -123.5v-6h261z"/>
<glyph unicode="5" glyph-name="five" d="M258 -7q-124 0 -194 65l27 58q70 -67 172 -67q80 0 130.5 51t50.5 133q0 70 -64.5 109.5t-230.5 53.5q53 184 83 324h326l-8 -55h-272q-33 -139 -54 -215q67 -10 114.5 -23.5t89 -37.5t62.5 -62t21 -90q0 -111 -70.5 -177.5t-182.5 -66.5z"/>
<glyph unicode="6" glyph-name="six" d="M523 726l11 -54q-116 -35 -210 -109.5t-138 -177.5l5 -1q84 50 159 50q89 0 134 -46t45 -122q0 -14 -2 -31t-8 -52t-22.5 -65t-41.5 -60t-69 -47.5t-101 -17.5q-97 0 -146.5 66.5t-49.5 167.5q0 185 119 313.5t315 185.5zM336 376q-80 0 -173 -63q-9 -42 -9 -85 q0 -81 36 -130t99 -49q79 0 126 57t47 152q0 118 -126 118z"/>
<glyph unicode="7" glyph-name="seven" d="M183 0h-71l403 663h-365l9 57h430l10 -23z"/>
<glyph unicode="8" glyph-name="eight" d="M277 -7q-96 0 -144 47t-48 116q0 147 179 227q-105 65 -105 156q0 88 62 138t156 50q82 0 126.5 -38.5t44.5 -103.5q0 -72 -38.5 -116t-114.5 -87q63 -37 92 -74t29 -91q0 -104 -67 -164t-172 -60zM282 50q73 0 121.5 43t48.5 121q0 47 -29.5 75.5t-100.5 62.5 q-35 -15 -62 -30t-54 -38t-42 -54.5t-15 -68.5q0 -51 34.5 -81t98.5 -30zM334 413q150 63 150 164q0 93 -112 93q-59 0 -102.5 -33t-43.5 -96q0 -71 108 -128z"/>
<glyph unicode="9" glyph-name="nine" d="M135 -6l-11 52q143 54 221.5 129t118.5 170l-4 2q-76 -54 -173 -54q-87 0 -129 50t-42 123q0 112 68 186.5t179 74.5q97 0 145 -61.5t48 -157.5q0 -186 -117 -321t-304 -193zM305 352q44 0 93 17.5t86 46.5q10 52 10 83q0 73 -34.5 122t-98.5 49q-78 0 -128 -55t-50 -145 q0 -57 31 -87.5t91 -30.5z"/>
<glyph unicode=":" horiz-adv-x="230" glyph-name="colon" d="M23 35q0 21 15 35t36 14q18 0 30 -10.5t12 -28.5q0 -22 -14 -37t-37 -15q-19 0 -30.5 12t-11.5 30zM67 345q0 21 15 35t36 14q18 0 30 -10.5t12 -28.5q0 -22 -14 -37t-37 -15q-19 0 -30.5 12t-11.5 30z"/>
<glyph unicode=";" horiz-adv-x="230" glyph-name="semicolon" d="M16 -118l-32 11q76 52 76 108q0 42 -43 82l61 18q44 -34 44 -80q0 -75 -106 -139zM67 345q0 21 15 35t36 14q18 0 30 -10.5t12 -28.5q0 -22 -14 -37t-37 -15q-19 0 -30.5 12t-11.5 30z"/>
<glyph unicode="&lt;" glyph-name="less" d="M95 304v45l450 215v-53l-393 -185l393 -183v-54z"/>
<glyph unicode="=" glyph-name="equal" d="M570 382h-490v48h490v-48zM570 222h-490v48h490v-48z"/>
<glyph unicode="&gt;" glyph-name="greater" d="M555 349v-45l-450 -215v54l393 183l-393 185v53z"/>
<glyph unicode="?" horiz-adv-x="456" glyph-name="question" d="M184 183h-50q-13 32 -13 65q0 45 25 85t60.5 70.5t71 60t60.5 67.5t25 80q0 47 -31 71.5t-83 24.5q-71 0 -123 -34l-15 47q65 37 144 37q84 0 125 -40t41 -103q0 -44 -18.5 -82t-46 -64.5t-59.5 -54t-59.5 -50.5t-46 -54.5t-18.5 -66.5q0 -32 11 -59zM142 -7 q-19 0 -30 11.5t-11 28.5q0 20 14.5 33.5t34.5 13.5q18 0 29.5 -10t11.5 -27q0 -22 -13 -36t-36 -14z"/>
<glyph unicode="@" horiz-adv-x="840" glyph-name="at" d="M404 -113q-69 0 -130 21.5t-109.5 62.5t-76.5 108.5t-28 153.5q0 183 105.5 300t292.5 118q61 0 117.5 -18t103 -53t74 -92t27.5 -128q0 -113 -67 -197t-165 -84q-62 0 -69 60l-4 1q-16 -20 -48 -37.5t-65 -17.5q-61 0 -89.5 43.5t-28.5 108.5q0 101 52.5 168.5 t145.5 67.5q48 0 90 -29l16 22h23q-45 -262 -45 -299q0 -40 33 -40q68 0 119.5 66t51.5 167q0 117 -79 181.5t-197 64.5q-157 -1 -251 -102.5t-94 -267.5q0 -148 84 -226t214 -78q134 0 257 85l26 -34q-128 -96 -286 -96zM363 133q57 0 116 63l36 206q-31 26 -75 26 q-68 0 -105.5 -56t-37.5 -134q0 -105 66 -105z"/>
<glyph unicode="A" horiz-adv-x="697" glyph-name="A" d="M607 0h-67q-32 130 -61 252h-296q-95 -188 -125 -252h-68q63 125 203.5 394t190.5 356h38q22 -89 101 -409.5t84 -340.5zM390 646h-5q-60 -119 -174 -339h257q-7 31 -78 339z"/>
<glyph unicode="B" horiz-adv-x="575" glyph-name="B" d="M35 0l105 750h155q203 0 203 -149q0 -130 -135 -191l-1 -5q138 -29 138 -156q0 -114 -74.5 -181.5t-191.5 -67.5h-199zM105 55h124q86 0 144.5 50.5t58.5 137.5q0 127 -189 127h-93zM157 425h81q75 0 133 45.5t58 121.5q0 103 -137 103h-97z"/>
<glyph unicode="C" horiz-adv-x="687" glyph-name="C" d="M369 -7q-87 0 -157.5 32.5t-115.5 104t-45 172.5q0 204 113.5 329.5t307.5 125.5q52 0 110 -16t89 -40l-19 -58q-37 25 -88.5 41.5t-98.5 16.5q-161 0 -253.5 -108t-92.5 -289q0 -125 73.5 -189t188.5 -64q104 0 207 49v-60q-93 -47 -219 -47z"/>
<glyph unicode="D" horiz-adv-x="740" glyph-name="D" d="M35 0l105 750h214q174 0 254 -77.5t80 -214.5q0 -199 -110 -328.5t-311 -129.5h-232zM195 695l-90 -640h154q164 0 262 109.5t98 281.5q0 120 -67.5 184.5t-203.5 64.5h-153z"/>
<glyph unicode="E" horiz-adv-x="510" glyph-name="E" d="M35 0l105 750h357l-8 -55h-294l-40 -288h228l-16 -56h-220l-42 -296h302l-7 -55h-365z"/>
<glyph unicode="F" horiz-adv-x="479" glyph-name="F" d="M35 0l105 750h354l-8 -55h-291l-40 -287h234l-15 -57h-227l-49 -351h-63z"/>
<glyph unicode="G" horiz-adv-x="748" glyph-name="G" d="M382 -7q-150 0 -240.5 83t-90.5 225q0 214 117 335t320 121q59 0 120.5 -16t94.5 -40l-19 -58q-38 25 -93.5 41.5t-108.5 16.5q-166 0 -264.5 -105t-98.5 -287q0 -127 75 -193t197 -66q97 0 181 34l31 218h-110l7 51h172l-42 -301q-48 -28 -119 -43.5t-129 -15.5z"/>
<glyph unicode="H" horiz-adv-x="742" glyph-name="H" d="M35 0l105 750h63l-46 -326h447l46 326h62l-105 -750h-62l51 368h-447l-51 -368h-63z"/>
<glyph unicode="I" horiz-adv-x="232" glyph-name="I" d="M35 0l105 750h62l-105 -750h-62z"/>
<glyph unicode="J" horiz-adv-x="404" glyph-name="J" d="M209 697l8 53h162l-78 -554q-14 -100 -67 -152t-154 -52q-40 0 -75 8l2 53q32 -8 71 -8q139 0 161 161l69 491h-99z"/>
<glyph unicode="K" horiz-adv-x="628" glyph-name="K" d="M553 41l-5 -41q-26 -7 -42 -7q-25 0 -37 7t-27 24q-24 28 -87 144t-96 202h-109l-52 -370h-63l105 750h63l-46 -324h107q109 120 270 324h74q-165 -206 -297 -353q83 -197 169 -319q26 -37 73 -37z"/>
<glyph unicode="L" horiz-adv-x="496" glyph-name="L" d="M35 0l105 750h63l-98 -695h298l-7 -55h-361z"/>
<glyph unicode="M" horiz-adv-x="893" glyph-name="M" d="M828 750l-60 -750h-62l54 632h-4q-125 -233 -335 -572l-38 -6q-2 8 -19 69.5t-30.5 108.5t-35 118.5t-45.5 145t-49 142.5h-4l-112 -638h-63l136 750h64q43 -107 88.5 -250t69 -227.5t30.5 -114.5h4q227 382 338 592h73z"/>
<glyph unicode="N" horiz-adv-x="769" glyph-name="N" d="M634 1l-32 -8q-49 90 -190 310.5t-222 337.5h-5l-89 -641h-61l105 750h49q76 -105 204 -300t195 -312h4l85 612h62z"/>
<glyph unicode="O" horiz-adv-x="797" glyph-name="O" d="M350 -7q-145 0 -217.5 86t-72.5 222q0 90 26 171t74 145t125 102t172 38q145 0 217.5 -86.5t72.5 -219.5q0 -119 -44 -221.5t-136.5 -169.5t-216.5 -67zM355 50q79 0 142 33.5t102 90t59.5 128t20.5 151.5q0 115 -59.5 181t-173.5 66q-101 0 -175 -59t-108.5 -147 t-34.5 -190q0 -117 57.5 -185.5t169.5 -68.5z"/>
<glyph unicode="P" horiz-adv-x="542" glyph-name="P" d="M212 312q-33 0 -70 5l-44 -317h-63l105 750h180q100 0 153 -44.5t53 -125.5q0 -132 -86.5 -200t-227.5 -68zM195 695l-45 -323q25 -4 56 -4q256 0 256 203q0 124 -164 124h-103z"/>
<glyph unicode="Q" horiz-adv-x="799" glyph-name="Q" d="M602 -155q-73 0 -157.5 46t-144.5 105q-120 15 -180 98t-60 207q0 91 26 172.5t75 145t125.5 101t170.5 37.5q145 0 217.5 -86.5t72.5 -219.5q0 -111 -39 -208.5t-121 -166t-192 -80.5q119 -100 243 -100q9 0 48 3l-6 -44q-40 -10 -78 -10zM355 50q79 0 142 33.5t102 90 t59.5 128t20.5 151.5q0 115 -59.5 181t-173.5 66q-101 0 -175 -58t-108.5 -146.5t-34.5 -191.5q0 -117 57.5 -185.5t169.5 -68.5z"/>
<glyph unicode="R" horiz-adv-x="611" glyph-name="R" d="M541 41l-5 -41q-26 -7 -43 -7q-25 0 -37.5 7t-25.5 25q-21 28 -66.5 124t-74.5 180h-145l-46 -329h-63l105 750h173q99 0 151.5 -41.5t52.5 -122.5q0 -177 -168 -241q52 -150 125 -267q14 -23 26 -30t31 -7h10zM195 695l-44 -312h79q99 0 160 45t61 149q0 118 -160 118 h-96z"/>
<glyph unicode="S" horiz-adv-x="554" glyph-name="S" d="M200 -7q-118 0 -188 58l20 59q73 -61 176 -61q51 0 92 13.5t71 50t30 93.5q0 36 -23.5 67t-52.5 49.5t-75.5 45.5t-71.5 46q-79 60 -79 141q0 96 69.5 149t170.5 53q103 0 181 -47l-27 -52q-71 44 -158 44q-69 0 -118.5 -33t-49.5 -104q0 -28 14 -52t40 -43t52.5 -35 t61.5 -36.5t57 -38.5q75 -61 75 -143q0 -111 -75.5 -167.5t-191.5 -56.5z"/>
<glyph unicode="T" horiz-adv-x="675" glyph-name="T" d="M256 0l97 695h-256l8 55h575l-8 -55h-256l-97 -695h-63z"/>
<glyph unicode="U" horiz-adv-x="736" glyph-name="U" d="M316 -7q-105 0 -178 66t-73 185q0 28 4 53l64 453h63l-64 -455q-3 -24 -3 -45q0 -97 55.5 -148t137.5 -51q60 0 112 23t94 80t54 141l64 455h63l-64 -457q-22 -153 -115 -226.5t-214 -73.5z"/>
<glyph unicode="V" horiz-adv-x="648" glyph-name="V" d="M284 0h-40q-28 107 -81.5 361.5t-77.5 388.5h68q83 -463 122 -644h5q159 306 315 644h68q-328 -661 -379 -750z"/>
<glyph unicode="W" horiz-adv-x="1036" glyph-name="W" d="M682 0h-38q-21 89 -104 510h-4q-182 -374 -260 -510h-38q-38 150 -153 750h66q70 -390 120 -640h5q145 286 244 502l-11 45q-4 18 -7 25.5t-14 15.5t-31 8l6 42q22 2 41 2q33 0 46.5 -14.5t21.5 -58.5q2 -9 23 -129t45.5 -254.5t34.5 -187.5h5q50 99 108.5 224 t122.5 266.5t69 153.5h66q-53 -119 -183.5 -391t-180.5 -359z"/>
<glyph unicode="X" horiz-adv-x="671" glyph-name="X" d="M59 0h-74q156 197 315 391q-62 137 -123 261q-14 28 -27.5 40.5t-38.5 12.5l5 42q15 3 27 3q32 0 50.5 -16t39.5 -57q6 -14 52 -116.5t56 -124.5h5q54 66 239 314h70q-194 -256 -285 -364q110 -233 155 -308q14 -22 26 -29.5t40 -7.5l-5 -41q-23 -7 -41 -7q-36 0 -60 32 q-10 14 -34 63t-61.5 128.5t-59.5 122.5h-4q-94 -115 -267 -339z"/>
<glyph unicode="Y" horiz-adv-x="602" glyph-name="Y" d="M219 0l50 356q-44 102 -135 299q-13 28 -24.5 39t-34.5 11l5 42q11 3 22 3q33 0 51 -15t37 -58l114 -267h4q85 108 239 340h71q-124 -183 -290 -398l-49 -352h-60z"/>
<glyph unicode="Z" horiz-adv-x="641" glyph-name="Z" d="M0 0l3 23q266 351 525 668l-1 4h-404l8 55h493l7 -21q-210 -255 -532 -670v-4h444l-7 -55h-536z"/>
<glyph unicode="[" horiz-adv-x="408" glyph-name="bracketleft" d="M368 713h-136l-107 -757h136l-7 -55h-198l121 867h198z"/>
<glyph unicode="\" horiz-adv-x="555" glyph-name="backslash" d="M457 -40l-407 807l48 23l407 -807z"/>
<glyph unicode="]" horiz-adv-x="408" glyph-name="bracketright" d="M33 -44h136l107 757h-136l7 55h198l-121 -867h-198z"/>
<glyph unicode="^" glyph-name="asciicircum" d="M298 720h54l201 -434h-54l-174 378l-174 -378h-54z"/>
<glyph unicode="_" glyph-name="underscore" d="M-73 -200l7 50h639l-7 -50h-639z"/>
<glyph unicode="`" horiz-adv-x="400" glyph-name="grave" d="M299 615l-130 176l69 33l92 -193z"/>
<glyph unicode="a" horiz-adv-x="583" glyph-name="a" d="M443 -7q-34 0 -47 18t-13 56l-5 2q-87 -76 -175 -76q-44 0 -76.5 20t-49 54.5t-24 72.5t-7.5 82q0 65 16 122t47.5 102.5t85 72t122.5 26.5q76 0 143 -37l18 30h25l-63 -452q-1 -7 -1 -19q0 -24 24 -24l39 2l-5 -35q-25 -17 -54 -17zM211 47q41 0 91 24.5t84 60.5l46 332 q-49 31 -112 31q-56 0 -98.5 -23t-66.5 -63t-35.5 -86.5t-11.5 -99.5q0 -85 26.5 -130.5t76.5 -45.5z"/>
<glyph unicode="b" horiz-adv-x="558" glyph-name="b" d="M35 0l107 770h60l-25 -181l-20 -117l5 -1q87 74 173 74q44 0 76.5 -20t49 -54.5t24 -72.5t7.5 -82q0 -65 -16 -122t-47.5 -102.5t-85 -72t-122.5 -26.5t-143 38l-20 -31h-23zM327 491q-41 0 -91 -24.5t-84 -60.5l-46 -332q49 -31 112 -31q56 0 98.5 23t66.5 63t35.5 86.5 t11.5 99.5q0 85 -26.5 130.5t-76.5 45.5z"/>
<glyph unicode="c" horiz-adv-x="506" glyph-name="c" d="M245 -7q-93 0 -146 59t-53 166q0 45 8 88.5t28 87.5t50 77t79.5 53.5t111.5 20.5q70 0 143 -32l-17 -53q-62 32 -132 32q-59 0 -102 -26.5t-65 -69.5t-32 -87t-10 -90q0 -80 36 -127t110 -47q37 0 84.5 11.5t80.5 28.5l7 -53q-76 -39 -181 -39z"/>
<glyph unicode="d" horiz-adv-x="562" glyph-name="d" d="M203 -7q-44 0 -76.5 20t-49 54.5t-24 72.5t-7.5 82q0 65 16 122t47.5 102.5t85 72t122.5 26.5q63 0 123 -28l35 253h60l-107 -770h-39l-6 68l-5 1q-87 -76 -175 -76zM211 47q41 0 91 24.5t84 60.5l46 332q-49 31 -112 31q-56 0 -98.5 -23t-66.5 -63t-35.5 -86.5 t-11.5 -99.5q0 -85 26.5 -130.5t76.5 -45.5z"/>
<glyph unicode="e" horiz-adv-x="536" glyph-name="e" d="M421 86l7 -53q-27 -16 -74.5 -28t-93.5 -12q-100 0 -157 56t-57 167q0 138 70 233.5t202 95.5q168 0 168 -166q0 -40 -10 -92h-361q-6 -33 -6 -70q0 -172 156 -172q77 0 156 41zM126 336h298q4 30 4 40q0 118 -115 118q-65 0 -115 -40t-72 -118z"/>
<glyph unicode="f" horiz-adv-x="365" glyph-name="f" d="M143 489h-86l7 49h86l8 54q14 104 57 141t123 37q55 0 95 -20l-18 -49q-39 18 -85 18q-48 0 -76.5 -27t-37.5 -103l-6 -51h147l-13 -49h-141l-101 -719h-59z"/>
<glyph unicode="g" horiz-adv-x="562" glyph-name="g" d="M205 -230q-34 0 -85.5 9t-88.5 24l8 52q82 -33 165 -33q66 0 106.5 32t53.5 116l14 93l-5 2q-87 -72 -170 -72q-44 0 -76.5 20t-49 54.5t-24 72.5t-7.5 82q0 65 16 122t47.5 102.5t85 72t122.5 26.5q76 0 140 -35l21 28h25l-80 -575q-15 -106 -71.5 -149.5t-146.5 -43.5z M211 47q41 0 91 24.5t84 60.5l46 332q-49 31 -112 31q-56 0 -98.5 -23t-66.5 -63t-35.5 -86.5t-11.5 -99.5q0 -85 26.5 -130.5t76.5 -45.5z"/>
<glyph unicode="h" horiz-adv-x="556" glyph-name="h" d="M35 0l107 770h60l-23 -179l-21 -122l4 -1q51 45 91 61t89 16q70 0 105.5 -41.5t35.5 -113.5q0 -24 -3 -46l-47 -344h-60l48 341q3 26 3 46q0 105 -97 105q-48 0 -94.5 -23t-80.5 -62l-57 -407h-60z"/>
<glyph unicode="i" horiz-adv-x="223" glyph-name="i" d="M35 0l74 538h59l-74 -538h-59zM113 707q0 22 15 36t36 14q18 0 30 -11t12 -29q0 -23 -14 -38t-37 -15q-19 0 -30.5 12.5t-11.5 30.5z"/>
<glyph unicode="j" horiz-adv-x="242" glyph-name="j" d="M59 490l7 48h124l-90 -642q-6 -42 -19.5 -69t-34 -38.5t-37.5 -15t-40 -3.5q-27 0 -49 8l2 51q22 -8 52 -8q58 0 68 75l82 594h-65zM119 707q0 22 15 36t36 14q18 0 30 -11t12 -29q0 -23 -14 -38t-37 -15q-19 0 -30.5 12.5t-11.5 30.5z"/>
<glyph unicode="k" horiz-adv-x="538" glyph-name="k" d="M35 0l107 770h60l-60 -432h86q88 79 197 200h73q-97 -113 -217 -223q98 -224 114 -249q11 -17 20 -22.5t29 -5.5q9 0 14 1l-5 -38q-17 -8 -45 -8q-46 0 -76 59q-3 6 -21.5 50t-42.5 100.5t-36 84.5h-97l-40 -287h-60z"/>
<glyph unicode="l" horiz-adv-x="228" glyph-name="l" d="M35 0l107 770h59l-107 -770h-59z"/>
<glyph unicode="m" horiz-adv-x="881" glyph-name="m" d="M35 0l75 538h42l3 -69l5 -1q52 46 91 61.5t88 15.5q92 0 129 -81h5q102 81 189 81q75 0 110.5 -42.5t35.5 -111.5q0 -32 -3 -50l-48 -341h-60l46 341q3 26 3 46q0 105 -94 105q-93 0 -172 -81q0 -44 -3 -68l-47 -343h-60l47 341q3 26 3 46q0 105 -97 105q-96 0 -172 -86 l-56 -406h-60z"/>
<glyph unicode="n" horiz-adv-x="557" glyph-name="n" d="M35 0l75 538h42l3 -69l5 -1q88 77 179 77q73 0 109 -42.5t36 -113.5q0 -21 -3 -45l-48 -344h-60l47 339q3 24 3 43q0 110 -98 110t-174 -86l-56 -406h-60z"/>
<glyph unicode="o" horiz-adv-x="558" glyph-name="o" d="M246 44q52 0 89.5 21.5t58.5 60.5t30.5 86t9.5 105q0 84 -34 130.5t-101 46.5q-99 0 -145 -75t-46 -199q0 -85 35.5 -130.5t102.5 -45.5zM241 -7q-92 0 -143.5 56.5t-51.5 166.5q0 329 261 329q93 0 141 -62.5t48 -162.5q0 -69 -13 -126t-42 -103t-79.5 -72t-120.5 -26z "/>
<glyph unicode="p" horiz-adv-x="556" glyph-name="p" d="M219 -7q-62 0 -122 28l-35 -251h-60l107 768h41l4 -69l5 -1q81 77 174 77q44 0 76.5 -20t49 -54.5t24 -72.5t7.5 -82q0 -65 -16 -122t-47.5 -102.5t-85 -72t-122.5 -26.5zM325 491q-41 0 -91 -24.5t-84 -60.5l-46 -332q49 -31 112 -31q56 0 98.5 23t66.5 63t35.5 86.5 t11.5 99.5q0 85 -26.5 130.5t-76.5 45.5z"/>
<glyph unicode="q" horiz-adv-x="563" glyph-name="q" d="M335 -230l27 183l19 112l-5 2q-87 -74 -173 -74q-44 0 -76.5 20t-49 54.5t-24 72.5t-7.5 82q0 65 16 122t47.5 102.5t85 72t122.5 26.5q74 0 144 -36l17 29h25l-107 -768h-61zM211 47q41 0 91 24.5t84 60.5l46 332q-49 31 -112 31q-56 0 -98.5 -23t-66.5 -63t-35.5 -86.5 t-11.5 -99.5q0 -85 26.5 -130.5t76.5 -45.5z"/>
<glyph unicode="r" horiz-adv-x="366" glyph-name="r" d="M356 513l-17 -41q-21 12 -49 12q-51 0 -139 -78l-56 -406h-60l75 538h42l3 -69h6q85 76 146 76q32 0 49 -32z"/>
<glyph unicode="s" horiz-adv-x="440" glyph-name="s" d="M371 150q0 -85 -52.5 -121t-150.5 -36q-86 0 -154 39l11 50q29 -16 71.5 -28t76.5 -12q139 0 139 107q0 20 -7 35.5t-24 28t-27.5 18.5t-37 17.5t-32.5 14.5q-31 14 -47.5 23.5t-37 26t-29.5 37.5t-9 49q0 75 50.5 110.5t136.5 35.5q82 0 134 -30l-18 -51q-52 31 -130 31 q-48 0 -81 -22.5t-33 -70.5q0 -13 4.5 -24t9.5 -18t19 -16t20.5 -12t26.5 -12.5t27 -12.5q31 -15 43 -21t36.5 -21.5t35 -29.5t20 -36t9.5 -49z"/>
<glyph unicode="t" horiz-adv-x="407" glyph-name="t" d="M352 489h-155l-50 -357q-2 -16 -2 -28q0 -31 12.5 -45.5t46.5 -14.5q42 0 106 29l7 -52q-59 -28 -120 -28q-111 0 -111 105q0 18 3 37l49 354h-85l7 49h86l30 120h45l-17 -120h162z"/>
<glyph unicode="u" horiz-adv-x="559" glyph-name="u" d="M504 538l-74 -538h-40l-6 67l-5 2q-49 -45 -89.5 -60.5t-90.5 -15.5q-73 0 -109.5 47t-36.5 123q0 21 3 45l45 330h60l-46 -333q-2 -13 -2 -39q0 -56 25 -87.5t74 -31.5q47 0 94.5 24.5t81.5 60.5l56 406h60z"/>
<glyph unicode="v" horiz-adv-x="512" glyph-name="v" d="M226 0h-29q-101 376 -132 538h62q16 -102 93 -434h4q63 118 210 434h63q-200 -414 -271 -538z"/>
<glyph unicode="w" horiz-adv-x="776" glyph-name="w" d="M500 0h-29q-64 322 -72 369h-5q-54 -109 -196 -369h-29q-20 87 -57 278t-47 260h58q30 -209 74 -438h4q4 8 75.5 145.5t102.5 206.5q-6 28 -13.5 37t-23.5 10l5 39q11 1 28 1q28 0 39 -13.5t19 -56.5q52 -278 65 -362h4q133 274 199 431h60q-49 -112 -136.5 -289.5 t-124.5 -248.5z"/>
<glyph unicode="x" horiz-adv-x="567" glyph-name="x" d="M517 538q-115 -149 -210 -254q51 -103 109 -203q12 -22 24.5 -32t36.5 -11l-5 -38q-16 -4 -34 -4q-28 0 -43 14t-39 57q-15 27 -91 172h-4q-49 -56 -191 -239h-70q159 202 234 288q-43 89 -87 169q-23 42 -55 42l5 38q21 2 26 2q29 0 42.5 -11.5t38.5 -56.5 q17 -31 40.5 -79.5t30.5 -61.5h4q71 80 168 208h70z"/>
<glyph unicode="y" horiz-adv-x="549" glyph-name="y" d="M138 -230h-65q72 121 132 230h-11q-80 382 -99 461q-3 13 -5.5 19.5t-11 12.5t-23.5 6l5 39q2 0 13 0.5t18 0.5q32 0 45.5 -15t21.5 -54q13 -62 37.5 -195.5t38.5 -201.5h4q112 219 227 465h69q-34 -75 -175 -347.5t-221 -420.5z"/>
<glyph unicode="z" horiz-adv-x="522" glyph-name="z" d="M414 52l-7 -52h-397l3 23q296 375 367 460v4h-290l7 51h373l7 -20q-87 -105 -222 -276.5t-147 -185.5l1 -4h305z"/>
<glyph unicode="{" horiz-adv-x="452" glyph-name="braceleft" d="M298 -99h-47q-72 0 -104 20t-32 74q0 16 3 37l21 152q3 22 3 40q0 38 -19.5 56.5t-69.5 27.5l7 54q63 11 88 36.5t34 87.5l21 151q11 77 48.5 104t120.5 27h47l-7 -55h-43q-51 0 -74 -14.5t-31 -66.5l-21 -152q-8 -60 -36.5 -93.5t-88.5 -50.5l-1 -2q47 -14 67.5 -39 t20.5 -67q0 -17 -3 -38l-21 -153q-2 -20 -2 -26q0 -35 19 -45t64 -10h43z"/>
<glyph unicode="|" horiz-adv-x="340" glyph-name="bar" d="M198 -150h-56v1050h56v-1050z"/>
<glyph unicode="}" horiz-adv-x="452" glyph-name="braceright" d="M26 -99l7 55h43q51 0 74 14.5t31 66.5l21 153q8 61 36.5 94t88.5 50l1 5q-47 14 -67.5 38.5t-20.5 66.5q0 16 3 36l21 152q2 20 2 26q0 35 -19 45t-64 10h-43l7 55h47q72 0 104 -20t32 -74q0 -16 -3 -37l-21 -151q-3 -22 -3 -40q0 -38 19.5 -56.5t69.5 -27.5l-7 -54 q-63 -11 -88 -36.5t-34 -87.5l-21 -152q-11 -77 -48.5 -104t-120.5 -27h-47z"/>
<glyph unicode="~" glyph-name="asciitilde" d="M555 390q0 -57 -31.5 -85.5t-79.5 -28.5q-44 0 -124 32t-113 32q-65 0 -66 -64h-46q0 57 31.5 85.5t79.5 28.5q44 0 124 -32t113 -32q65 0 66 64h46z"/>
<glyph unicode=" " horiz-adv-x="260" glyph-name="uni00A0"/>
<glyph unicode="¡" horiz-adv-x="308" glyph-name="exclamdown" d="M37 -196l97 574h42l-58 -567zM133 521q0 20 14.5 33.5t34.5 13.5q18 0 29.5 -10t11.5 -27q0 -22 -13 -36t-36 -14q-19 0 -30 11.5t-11 28.5z"/>
<glyph unicode="¢" glyph-name="cent" d="M220 -67l37 134q-65 20 -103.5 77.5t-38.5 149.5q0 52 11 105t34.5 104.5t57.5 92t84.5 65t110.5 24.5h8l36 129l53 -5l-34 -131q60 -11 102 -32l-18 -56q-27 15 -72 27t-82 12q-76 0 -130 -52.5t-76.5 -124t-22.5 -150.5q0 -92 45 -140t121 -48q77 0 162 36l-1 -51 q-86 -42 -178 -42h-18l-34 -129z"/>
<glyph unicode="£" glyph-name="sterling" d="M147 380l7 49h80q2 39 7 71q16 110 80.5 168.5t165.5 58.5q64 0 102 -20l-18 -45q-45 15 -95 15q-76 0 -120.5 -46t-56.5 -128q-5 -34 -7 -74h213l-7 -49h-207v-87h195l-7 -49h-190l-4 -36q-5 -43 -25 -88t-52 -67h309l-7 -53h-431l4 31q124 27 143 160q4 33 5 53h-103 l7 49h98v87h-86z"/>
<glyph unicode="¤" glyph-name="currency" d="M291 115q-88 0 -141 45l-93 -80l-33 35l95 82q-28 44 -28 109q0 118 72 196l-73 83l43 35l71 -82q66 47 153 47q88 0 140 -46l94 81l33 -35l-96 -83q29 -47 29 -110q0 -117 -72 -195l73 -82l-43 -35l-71 81q-67 -46 -153 -46zM298 165q86 0 143 62.5t57 157.5 q0 68 -38 109.5t-110 41.5q-88 0 -144.5 -63.5t-56.5 -158.5q0 -67 39 -108t110 -41z"/>
<glyph unicode="¥" glyph-name="yen" d="M244 0l21 150h-172l6 49h172l12 87h-171l7 49h152q-8 19 -135 297q-23 50 -49 50l6 42q10 3 22 3q25 0 43 -15.5t38 -57.5q8 -16 127 -300h4q162 236 245 366h70q-109 -163 -271 -385h159l-7 -49h-178l-12 -87h177l-6 -49h-177l-21 -150h-62z"/>
<glyph unicode="¦" horiz-adv-x="340" glyph-name="brokenbar" d="M198 520h-56v380h56v-380zM198 -150h-56v380h56v-380z"/>
<glyph unicode="§" horiz-adv-x="538" glyph-name="section" d="M153 -157q-33 0 -78 9.5t-68 20.5l19 50q67 -30 135 -30q56 0 95 29t39 83q0 34 -25.5 62.5t-62 49.5t-73.5 43t-62.5 55.5t-25.5 74.5q0 144 188 171q-77 56 -77 124q0 78 59.5 125t142.5 47q33 0 78 -9.5t68 -20.5l-19 -50q-67 30 -135 30q-53 0 -93.5 -28.5 t-40.5 -83.5q0 -34 25.5 -62.5t62 -49.5t73.5 -43t62.5 -55.5t25.5 -74.5q0 -79 -52.5 -120t-136.5 -52q78 -56 78 -123q0 -77 -58 -124.5t-144 -47.5zM405 300q0 19 -8 36t-25.5 32.5t-32 26t-40.5 26.5q-192 -5 -192 -121q0 -37 27 -63.5t79 -57.5q33 1 62.5 6.5 t60.5 17.5t50 37t19 60z"/>
<glyph unicode="¨" horiz-adv-x="400" glyph-name="dieresis" d="M106 685q0 18 13.5 30t31.5 12q16 0 26.5 -9.5t10.5 -24.5q0 -19 -12.5 -32t-32.5 -13q-17 0 -27 10.5t-10 26.5zM304 685q0 18 13.5 30t31.5 12q16 0 26.5 -9.5t10.5 -24.5q0 -19 -12.5 -32t-32.5 -13q-17 0 -27 10.5t-10 26.5z"/>
<glyph unicode="©" horiz-adv-x="884" glyph-name="copyright" d="M464 158q-99 0 -162 57.5t-63 158.5q0 105 63.5 165t160.5 60q80 0 128 -33l-7 -47q-53 34 -121 34q-79 0 -125.5 -47t-46.5 -132q0 -84 47.5 -127t126.5 -43q83 0 127 28l5 -43q-43 -31 -133 -31zM442 -7q-158 0 -270 112t-112 271q0 158 112 269.5t270 111.5 t270 -111.5t112 -269.5q0 -160 -112 -271.5t-270 -111.5zM444 36q140 0 236.5 99t96.5 239q0 141 -96.5 239.5t-236.5 98.5q-139 0 -237.5 -99t-98.5 -239q0 -141 98.5 -239.5t237.5 -98.5z"/>
<glyph unicode="ª" horiz-adv-x="362" glyph-name="ordfeminine" d="M345 415l-1 -28q-15 -11 -41 -11q-38 0 -38 43l-3 1q-16 -14 -26 -21.5t-29.5 -15t-41.5 -7.5q-51 0 -75.5 36.5t-24.5 98.5q0 85 41.5 137.5t127.5 52.5q42 0 79 -25l18 21h16l-38 -257q0 -2 -0.5 -5.5t-0.5 -5.5q0 -15 15 -15zM168 416q47 0 99 48l25 181 q-24 18 -61 18q-63 0 -91.5 -41.5t-28.5 -108.5q0 -97 57 -97z"/>
<glyph unicode="«" horiz-adv-x="598" glyph-name="guillemotleft" d="M55 254l5 36l260 195l-9 -62l-202 -151l160 -151l-9 -62zM266 254l5 36l260 195l-9 -62l-202 -151l160 -151l-9 -62z"/>
<glyph unicode="¬" glyph-name="logicalnot" d="M570 430v-240h-48v192h-442v48h490z"/>
<glyph unicode="­" horiz-adv-x="380" glyph-name="uni00AD" d="M13 236l7 49l322 20l-7 -49z"/>
<glyph unicode="®" horiz-adv-x="552" glyph-name="registered" d="M306 372q-87 0 -144 55t-57 136q0 84 56.5 139t144.5 55q87 0 144 -55t57 -139q0 -81 -57.5 -136t-143.5 -55zM309 405q72 0 118 44.5t46 117.5q0 71 -46.5 114t-120.5 43q-73 0 -119 -43t-46 -114q0 -73 46.5 -117.5t121.5 -44.5zM392 483q-9 -3 -24 -3q-21 0 -63 74 h-30v-72h-30v180h57q67 0 67 -52q0 -34 -35 -50q17 -28 38 -52q7 -9 20 -10v-15zM275 637v-57h19q45 0 45 29q0 28 -41 28h-23z"/>
<glyph unicode="¯" horiz-adv-x="400" glyph-name="macron" d="M401 720l-8 -56h-300l8 56h300z"/>
<glyph unicode="°" horiz-adv-x="422" glyph-name="degree" d="M223 453q-55 0 -86 32t-31 82q0 64 45 112t113 48q56 0 87 -32.5t31 -81.5q0 -65 -46 -112.5t-113 -47.5zM230 492q46 0 76.5 34t30.5 83q0 37 -21.5 58t-59.5 21q-47 0 -76.5 -34.5t-29.5 -82.5q0 -36 21.5 -57.5t58.5 -21.5z"/>
<glyph unicode="±" glyph-name="plusminus" d="M351 198h-52v194h-199v48h199v195h52v-195h199v-48h-199v-194zM550 68h-450v48h450v-48z"/>
<glyph unicode="²" horiz-adv-x="360" glyph-name="twosuperior" d="M61 383l4 26q7 5 34.5 24t45 32t44 36t43 42t28.5 43.5t12 46.5q0 55 -56 55q-58 0 -104 -35l-6 39q15 12 47.5 23.5t62.5 11.5q44 0 74.5 -20t30.5 -68q0 -22 -5.5 -42.5t-21 -42t-24.5 -33.5t-36 -35.5t-34 -29t-39 -30.5l-1 -3h144l-6 -40h-237z"/>
<glyph unicode="³" horiz-adv-x="360" glyph-name="threesuperior" d="M172 376q-64 0 -108 37l13 38q45 -36 98 -36q34 0 60 17t26 50q0 38 -27.5 51t-74.5 15l3 26q108 26 108 72q0 43 -48 43q-24 0 -54.5 -10t-49.5 -24l-6 37q50 35 114 35q96 0 96 -75q0 -53 -75 -83l-1 -3q31 -8 49 -29t18 -50q0 -52 -41.5 -81.5t-99.5 -29.5z"/>
<glyph unicode="´" horiz-adv-x="400" glyph-name="acute" d="M175 615l-28 15l145 195l60 -33z"/>
<glyph unicode="µ" horiz-adv-x="595" glyph-name="mu" d="M522 74l20 -21q-38 -60 -87 -60q-62 0 -62 70l-5 2q-94 -72 -173 -72t-120 54q-7 -59 -7 -142q0 -59 6 -107l-58 -17q-5 48 -5 92q0 111 32 334l46 331h60l-47 -337q-2 -12 -2 -34q0 -56 28 -88.5t79 -32.5q87 0 172 83l57 409h60l-62 -442q-1 -6 -1 -17q0 -33 24 -33 q18 0 45 28z"/>
<glyph unicode="¶" horiz-adv-x="703" glyph-name="paragraph" d="M409 -150l119 845h-85l-119 -845h-63l61 436q-128 0 -188 53.5t-60 136.5q0 128 94.5 201t226.5 73h303l-8 -57h-95l-119 -843h-67zM330 341l50 354q-100 -1 -172 -56.5t-72 -155.5q0 -64 48 -103t146 -39z"/>
<glyph unicode="·" horiz-adv-x="230" glyph-name="periodcentered" d="M64 321q0 21 15 35t36 14q18 0 30 -10.5t12 -28.5q0 -22 -14 -37t-37 -15q-19 0 -30.5 12t-11.5 30z"/>
<glyph unicode="¸" horiz-adv-x="400" glyph-name="cedilla" d="M166 0h52l-83 -65q93 0 93 -66q0 -50 -35 -74.5t-86 -24.5q-52 0 -85 23l15 33q30 -20 71 -20q31 0 50 13.5t19 37.5q0 41 -64 41h-43l-5 20z"/>
<glyph unicode="¹" horiz-adv-x="360" glyph-name="onesuperior" d="M81 383l5 36h86l37 257l-87 -5l5 28q65 8 120 24h16l-43 -305h79l-5 -35h-213z"/>
<glyph unicode="º" horiz-adv-x="362" glyph-name="ordmasculine" d="M193 413q55 0 81 42t26 109q0 43 -19.5 71.5t-56.5 28.5q-58 0 -84.5 -41.5t-26.5 -111.5q0 -45 21 -71.5t59 -26.5zM187 376q-57 0 -89.5 36t-32.5 100q0 82 38 135.5t127 53.5q57 0 87.5 -38t30.5 -95q0 -85 -38 -138.5t-123 -53.5z"/>
<glyph unicode="»" horiz-adv-x="598" glyph-name="guillemotright" d="M513 254l-259 -195l9 62l202 151l-160 151l9 62l204 -195zM302 254l-259 -195l9 62l202 151l-160 151l9 62l204 -195z"/>
<glyph unicode="¼" horiz-adv-x="800" glyph-name="onequarter" d="M81 383l5 36h86l37 257l-87 -5l5 28q65 8 120 24h16l-43 -305h79l-5 -35h-213zM181 -7l-38 24l541 710l36 -23zM674 342l29 -4l-30 -215h46l-10 -36h-41l-13 -87h-45l13 87h-179l4 30q193 193 226 225zM647 266l-140 -140v-3h121l22 141z"/>
<glyph unicode="½" horiz-adv-x="800" glyph-name="onehalf" d="M81 383l5 36h86l37 257l-87 -5l5 28q65 8 120 24h16l-43 -305h79l-5 -35h-213zM151 -7l-38 24l541 710l36 -23zM447 0l4 26q7 5 34.5 24t45 32t44 36t43 42t28.5 43.5t12 46.5q0 55 -56 55q-58 0 -104 -35l-6 39q15 12 47.5 23.5t62.5 11.5q44 0 74.5 -20t30.5 -68 q0 -22 -5.5 -42.5t-21 -42t-24.5 -33.5t-36 -35.5t-34 -29t-39 -30.5l-1 -3h144l-6 -40h-237z"/>
<glyph unicode="¾" horiz-adv-x="800" glyph-name="threequarters" d="M175 -7l-38 24l541 710l36 -23zM674 342l29 -4l-30 -215h46l-10 -36h-41l-13 -87h-45l13 87h-179l4 30q193 193 226 225zM647 266l-140 -140v-3h121l22 141zM172 376q-64 0 -108 37l13 38q45 -36 98 -36q34 0 60 17t26 50q0 38 -27.5 51t-74.5 15l3 26q108 26 108 72 q0 43 -48 43q-24 0 -54.5 -10t-49.5 -24l-6 37q50 35 114 35q96 0 96 -75q0 -53 -75 -83l-1 -3q31 -8 49 -29t18 -50q0 -52 -41.5 -81.5t-99.5 -29.5z"/>
<glyph unicode="¿" horiz-adv-x="436" glyph-name="questiondown" d="M240 378h50q13 -32 13 -64q0 -46 -25 -85.5t-60.5 -69.5t-71.5 -59.5t-61 -68t-25 -81.5q0 -47 31 -72t83 -25q71 0 124 35l15 -47q-68 -37 -144 -37q-81 0 -123.5 40.5t-42.5 102.5q0 52 25.5 95.5t61.5 74.5t72.5 60.5t62 65.5t25.5 77q0 33 -10 58zM233 521 q0 20 14.5 33.5t34.5 13.5q18 0 29.5 -10t11.5 -27q0 -22 -13 -36t-36 -14q-19 0 -30 11.5t-11 28.5z"/>
<glyph unicode="À" horiz-adv-x="697" glyph-name="Agrave" d="M607 0h-67q-32 130 -61 252h-296q-95 -188 -125 -252h-68q63 125 203.5 394t190.5 356h38q22 -89 101 -409.5t84 -340.5zM390 646h-5q-60 -119 -174 -339h257q-7 31 -78 339zM474 825l-210 77l48 60l185 -109z"/>
<glyph unicode="Á" horiz-adv-x="697" glyph-name="Aacute" d="M607 0h-67q-32 130 -61 252h-296q-95 -188 -125 -252h-68q63 125 203.5 394t190.5 356h38q22 -89 101 -409.5t84 -340.5zM390 646h-5q-60 -119 -174 -339h257q-7 31 -78 339zM352 825l-15 28l217 109l30 -60z"/>
<glyph unicode="Â" horiz-adv-x="697" glyph-name="Acircumflex" d="M607 0h-67q-32 130 -61 252h-296q-95 -188 -125 -252h-68q63 125 203.5 394t190.5 356h38q22 -89 101 -409.5t84 -340.5zM390 646h-5q-60 -119 -174 -339h257q-7 31 -78 339zM405 955h44l131 -105l-20 -25l-141 72l-163 -72l-12 25z"/>
<glyph unicode="Ã" horiz-adv-x="697" glyph-name="Atilde" d="M607 0h-67q-32 130 -61 252h-296q-95 -188 -125 -252h-68q63 125 203.5 394t190.5 356h38q22 -89 101 -409.5t84 -340.5zM390 646h-5q-60 -119 -174 -339h257q-7 31 -78 339zM585 941q-8 -47 -31.5 -75t-61.5 -28q-24 0 -82 18.5t-75 18.5q-36 0 -47 -48h-35 q7 47 30.5 75t61.5 28q23 0 81 -18.5t76 -18.5q37 0 48 48h35z"/>
<glyph unicode="Ä" horiz-adv-x="697" glyph-name="Adieresis" d="M607 0h-67q-32 130 -61 252h-296q-95 -188 -125 -252h-68q63 125 203.5 394t190.5 356h38q22 -89 101 -409.5t84 -340.5zM390 646h-5q-60 -119 -174 -339h257q-7 31 -78 339zM277 875q0 18 13.5 30t31.5 12q16 0 26.5 -9.5t10.5 -24.5q0 -19 -12.5 -32t-32.5 -13 q-17 0 -27 10.5t-10 26.5zM475 875q0 18 13.5 30t31.5 12q16 0 26.5 -9.5t10.5 -24.5q0 -19 -12.5 -32t-32.5 -13q-17 0 -27 10.5t-10 26.5z"/>
<glyph unicode="Å" horiz-adv-x="697" glyph-name="Aring" d="M607 0h-67q-32 130 -61 252h-296q-95 -188 -125 -252h-68q63 125 203.5 394t190.5 356h38q22 -89 101 -409.5t84 -340.5zM390 646h-5q-60 -119 -174 -339h257q-7 31 -78 339zM404 782q-40 0 -66.5 25.5t-26.5 64.5q0 46 37 84.5t88 38.5q42 0 68 -25.5t26 -64.5 q0 -49 -38 -86t-88 -37zM410 817q31 0 55.5 24t24.5 61q0 28 -17 44t-44 16q-33 0 -55 -26.5t-22 -60.5q0 -27 16 -42.5t42 -15.5z"/>
<glyph unicode="Æ" horiz-adv-x="945" glyph-name="AE" d="M470 0l28 202h-301q-87 -111 -153 -202h-74q113 150 294 374t310 376h358l-8 -55h-294l-40 -288h228l-16 -56h-220l-42 -296h302l-7 -55h-365zM559 639l-5 2q-135 -157 -314 -384h266z"/>
<glyph unicode="Ç" horiz-adv-x="687" glyph-name="Ccedilla" d="M588 40q-84 -44 -203 -47l-74 -58q93 0 93 -66q0 -50 -35 -74.5t-86 -24.5q-52 0 -85 23l15 33q30 -20 71 -20q31 0 50 13.5t19 37.5q0 41 -64 41h-43l-5 20l94 76q-123 10 -203.5 89t-80.5 219q0 204 113.5 329.5t307.5 125.5q52 0 110 -16t89 -40l-19 -58 q-37 25 -88.5 41.5t-98.5 16.5q-161 0 -253.5 -108t-92.5 -289q0 -125 73.5 -189t188.5 -64q104 0 207 49v-60z"/>
<glyph unicode="È" horiz-adv-x="510" glyph-name="Egrave" d="M35 0l105 750h357l-8 -55h-294l-40 -288h228l-16 -56h-220l-42 -296h302l-7 -55h-365zM421 825l-210 77l48 60l185 -109z"/>
<glyph unicode="É" horiz-adv-x="510" glyph-name="Eacute" d="M35 0l105 750h357l-8 -55h-294l-40 -288h228l-16 -56h-220l-42 -296h302l-7 -55h-365zM219 825l-15 28l217 109l30 -60z"/>
<glyph unicode="Ê" horiz-adv-x="510" glyph-name="Ecircumflex" d="M35 0l105 750h357l-8 -55h-294l-40 -288h228l-16 -56h-220l-42 -296h302l-7 -55h-365zM324 955h44l131 -105l-20 -25l-141 72l-163 -72l-12 25z"/>
<glyph unicode="Ë" horiz-adv-x="510" glyph-name="Edieresis" d="M35 0l105 750h357l-8 -55h-294l-40 -288h228l-16 -56h-220l-42 -296h302l-7 -55h-365zM193 875q0 18 13.5 30t31.5 12q16 0 26.5 -9.5t10.5 -24.5q0 -19 -12.5 -32t-32.5 -13q-17 0 -27 10.5t-10 26.5zM391 875q0 18 13.5 30t31.5 12q16 0 26.5 -9.5t10.5 -24.5 q0 -19 -12.5 -32t-32.5 -13q-17 0 -27 10.5t-10 26.5z"/>
<glyph unicode="Ì" horiz-adv-x="232" glyph-name="Igrave" d="M35 0l105 750h62l-105 -750h-62zM251 825l-210 77l48 60l185 -109z"/>
<glyph unicode="Í" horiz-adv-x="232" glyph-name="Iacute" d="M35 0l105 750h62l-105 -750h-62zM111 825l-15 28l217 109l30 -60z"/>
<glyph unicode="Î" horiz-adv-x="232" glyph-name="Icircumflex" d="M35 0l105 750h62l-105 -750h-62zM178 955h44l131 -105l-20 -25l-141 72l-163 -72l-12 25z"/>
<glyph unicode="Ï" horiz-adv-x="232" glyph-name="Idieresis" d="M35 0l105 750h62l-105 -750h-62zM48 875q0 18 13.5 30t31.5 12q16 0 26.5 -9.5t10.5 -24.5q0 -19 -12.5 -32t-32.5 -13q-17 0 -27 10.5t-10 26.5zM246 875q0 18 13.5 30t31.5 12q16 0 26.5 -9.5t10.5 -24.5q0 -19 -12.5 -32t-32.5 -13q-17 0 -27 10.5t-10 26.5z"/>
<glyph unicode="Ð" horiz-adv-x="776" glyph-name="Eth" d="M22 370l7 54h101l46 326h214q174 0 254 -77.5t80 -214.5q0 -199 -110 -328.5t-311 -129.5h-232l52 370h-101zM231 695l-38 -271h164l-7 -54h-165l-44 -315h152q165 0 263.5 109.5t98.5 281.5q0 120 -67.5 184.5t-203.5 64.5h-153z"/>
<glyph unicode="Ñ" horiz-adv-x="769" glyph-name="Ntilde" d="M634 1l-32 -8q-49 90 -190 310.5t-222 337.5h-5l-89 -641h-61l105 750h49q76 -105 204 -300t195 -312h4l85 612h62zM629 941q-8 -47 -31.5 -75t-61.5 -28q-24 0 -81.5 18.5t-75.5 18.5q-36 0 -47 -48h-35q7 47 30.5 75t61.5 28q23 0 81 -18.5t76 -18.5q37 0 48 48h35z "/>
<glyph unicode="Ò" horiz-adv-x="797" glyph-name="Ograve" d="M350 -7q-145 0 -217.5 86t-72.5 222q0 90 26 171t74 145t125 102t172 38q145 0 217.5 -86.5t72.5 -219.5q0 -119 -44 -221.5t-136.5 -169.5t-216.5 -67zM355 50q79 0 142 33.5t102 90t59.5 128t20.5 151.5q0 115 -59.5 181t-173.5 66q-101 0 -175 -59t-108.5 -147 t-34.5 -190q0 -117 57.5 -185.5t169.5 -68.5zM567 825l-210 77l48 60l185 -109z"/>
<glyph unicode="Ó" horiz-adv-x="797" glyph-name="Oacute" d="M350 -7q-145 0 -217.5 86t-72.5 222q0 90 26 171t74 145t125 102t172 38q145 0 217.5 -86.5t72.5 -219.5q0 -119 -44 -221.5t-136.5 -169.5t-216.5 -67zM355 50q79 0 142 33.5t102 90t59.5 128t20.5 151.5q0 115 -59.5 181t-173.5 66q-101 0 -175 -59t-108.5 -147 t-34.5 -190q0 -117 57.5 -185.5t169.5 -68.5zM365 825l-15 28l217 109l30 -60z"/>
<glyph unicode="Ô" horiz-adv-x="797" glyph-name="Ocircumflex" d="M350 -7q-145 0 -217.5 86t-72.5 222q0 90 26 171t74 145t125 102t172 38q145 0 217.5 -86.5t72.5 -219.5q0 -119 -44 -221.5t-136.5 -169.5t-216.5 -67zM355 50q79 0 142 33.5t102 90t59.5 128t20.5 151.5q0 115 -59.5 181t-173.5 66q-101 0 -175 -59t-108.5 -147 t-34.5 -190q0 -117 57.5 -185.5t169.5 -68.5zM463 955h44l131 -105l-20 -25l-141 72l-163 -72l-12 25z"/>
<glyph unicode="Õ" horiz-adv-x="797" glyph-name="Otilde" d="M350 -7q-145 0 -217.5 86t-72.5 222q0 90 26 171t74 145t125 102t172 38q145 0 217.5 -86.5t72.5 -219.5q0 -119 -44 -221.5t-136.5 -169.5t-216.5 -67zM355 50q79 0 142 33.5t102 90t59.5 128t20.5 151.5q0 115 -59.5 181t-173.5 66q-101 0 -175 -59t-108.5 -147 t-34.5 -190q0 -117 57.5 -185.5t169.5 -68.5zM641 941q-8 -47 -31.5 -75t-61.5 -28q-24 0 -82 18.5t-75 18.5q-36 0 -47 -48h-35q7 47 30.5 75t61.5 28q23 0 81 -18.5t76 -18.5q37 0 48 48h35z"/>
<glyph unicode="Ö" horiz-adv-x="797" glyph-name="Odieresis" d="M350 -7q-145 0 -217.5 86t-72.5 222q0 90 26 171t74 145t125 102t172 38q145 0 217.5 -86.5t72.5 -219.5q0 -119 -44 -221.5t-136.5 -169.5t-216.5 -67zM355 50q79 0 142 33.5t102 90t59.5 128t20.5 151.5q0 115 -59.5 181t-173.5 66q-101 0 -175 -59t-108.5 -147 t-34.5 -190q0 -117 57.5 -185.5t169.5 -68.5zM332 875q0 18 13.5 30t31.5 12q16 0 26.5 -9.5t10.5 -24.5q0 -19 -12.5 -32t-32.5 -13q-17 0 -27 10.5t-10 26.5zM530 875q0 18 13.5 30t31.5 12q16 0 26.5 -9.5t10.5 -24.5q0 -19 -12.5 -32t-32.5 -13q-17 0 -27 10.5t-10 26.5 z"/>
<glyph unicode="×" glyph-name="multiply" d="M504 116l-179 178l-179 -178l-33 34l179 177l-179 177l33 34l179 -178l179 178l33 -34l-179 -177l179 -177z"/>
<glyph unicode="Ø" horiz-adv-x="797" glyph-name="Oslash" d="M730 757l-62 -80q79 -82 79 -226q0 -119 -44 -221.5t-136.5 -169.5t-216.5 -67q-106 0 -176 48l-37 -48h-61l62 80q-78 81 -78 228q0 91 26 172.5t75 145t125.5 101t170.5 37.5q103 0 175 -49l38 49h60zM355 50q79 0 142 33.5t102 90t59.5 128t20.5 151.5q0 108 -52 172 l-413 -533q54 -42 141 -42zM128 304q0 -112 51 -178l414 532q-55 42 -147 42q-101 0 -175 -59t-108.5 -147t-34.5 -190z"/>
<glyph unicode="Ù" horiz-adv-x="736" glyph-name="Ugrave" d="M316 -7q-105 0 -178 66t-73 185q0 28 4 53l64 453h63l-64 -455q-3 -24 -3 -45q0 -97 55.5 -148t137.5 -51q60 0 112 23t94 80t54 141l64 455h63l-64 -457q-22 -153 -115 -226.5t-214 -73.5zM512 825l-210 77l48 60l185 -109z"/>
<glyph unicode="Ú" horiz-adv-x="736" glyph-name="Uacute" d="M316 -7q-105 0 -178 66t-73 185q0 28 4 53l64 453h63l-64 -455q-3 -24 -3 -45q0 -97 55.5 -148t137.5 -51q60 0 112 23t94 80t54 141l64 455h63l-64 -457q-22 -153 -115 -226.5t-214 -73.5zM350 825l-15 28l217 109l30 -60z"/>
<glyph unicode="Û" horiz-adv-x="736" glyph-name="Ucircumflex" d="M316 -7q-105 0 -178 66t-73 185q0 28 4 53l64 453h63l-64 -455q-3 -24 -3 -45q0 -97 55.5 -148t137.5 -51q60 0 112 23t94 80t54 141l64 455h63l-64 -457q-22 -153 -115 -226.5t-214 -73.5zM428 955h44l131 -105l-20 -25l-141 72l-163 -72l-12 25z"/>
<glyph unicode="Ü" horiz-adv-x="736" glyph-name="Udieresis" d="M316 -7q-105 0 -178 66t-73 185q0 28 4 53l64 453h63l-64 -455q-3 -24 -3 -45q0 -97 55.5 -148t137.5 -51q60 0 112 23t94 80t54 141l64 455h63l-64 -457q-22 -153 -115 -226.5t-214 -73.5zM299 875q0 18 13.5 30t31.5 12q16 0 26.5 -9.5t10.5 -24.5q0 -19 -12.5 -32 t-32.5 -13q-17 0 -27 10.5t-10 26.5zM497 875q0 18 13.5 30t31.5 12q16 0 26.5 -9.5t10.5 -24.5q0 -19 -12.5 -32t-32.5 -13q-17 0 -27 10.5t-10 26.5z"/>
<glyph unicode="Ý" horiz-adv-x="602" glyph-name="Yacute" d="M219 0l50 356q-44 102 -135 299q-13 28 -24.5 39t-34.5 11l5 42q11 3 22 3q33 0 51 -15t37 -58l114 -267h4q85 108 239 340h71q-124 -183 -290 -398l-49 -352h-60zM296 825l-15 28l217 109l30 -60z"/>
<glyph unicode="Þ" horiz-adv-x="547" glyph-name="Thorn" d="M192 159q-39 0 -72 3l-22 -162h-63l105 750h63l-22 -153h118q99 0 152 -44.5t53 -126.5q0 -132 -85.5 -199.5t-226.5 -67.5zM174 542l-46 -324q27 -3 68 -3q111 0 177.5 50t66.5 156q0 59 -41 90t-115 31h-110z"/>
<glyph unicode="ß" horiz-adv-x="618" glyph-name="germandbls" d="M345 -7q-83 0 -135 37l16 48q57 -34 134 -34q53 0 92 26t39 83q0 32 -22 54t-54 35.5t-64 28.5t-54 41.5t-22 65.5t22 68t53.5 47l63 36t53.5 46t22 66q0 77 -107 77q-50 0 -84.5 -17t-51.5 -48.5t-23.5 -54.5t-11.5 -57l-108 -771h-60l100 719h-85l7 49h85l1 10 q11 107 65 164.5t171 57.5q88 0 125.5 -38t37.5 -92q0 -46 -22 -80t-54 -53.5t-64 -37t-54 -39.5t-22 -51q0 -23 22.5 -40.5t55 -31.5t64.5 -30.5t54.5 -47.5t22.5 -74q0 -80 -60.5 -121t-147.5 -41z"/>
<glyph unicode="à" horiz-adv-x="583" glyph-name="agrave" d="M443 -7q-34 0 -47 18t-13 56l-5 2q-87 -76 -175 -76q-44 0 -76.5 20t-49 54.5t-24 72.5t-7.5 82q0 65 16 122t47.5 102.5t85 72t122.5 26.5q76 0 143 -37l18 30h25l-63 -452q-1 -7 -1 -19q0 -24 24 -24l39 2l-5 -35q-25 -17 -54 -17zM211 47q41 0 91 24.5t84 60.5l46 332 q-49 31 -112 31q-56 0 -98.5 -23t-66.5 -63t-35.5 -86.5t-11.5 -99.5q0 -85 26.5 -130.5t76.5 -45.5zM375 615l-130 176l69 33l92 -193z"/>
<glyph unicode="á" horiz-adv-x="583" glyph-name="aacute" d="M443 -7q-34 0 -47 18t-13 56l-5 2q-87 -76 -175 -76q-44 0 -76.5 20t-49 54.5t-24 72.5t-7.5 82q0 65 16 122t47.5 102.5t85 72t122.5 26.5q76 0 143 -37l18 30h25l-63 -452q-1 -7 -1 -19q0 -24 24 -24l39 2l-5 -35q-25 -17 -54 -17zM211 47q41 0 91 24.5t84 60.5l46 332 q-49 31 -112 31q-56 0 -98.5 -23t-66.5 -63t-35.5 -86.5t-11.5 -99.5q0 -85 26.5 -130.5t76.5 -45.5zM301 615l-28 15l145 195l60 -33z"/>
<glyph unicode="â" horiz-adv-x="583" glyph-name="acircumflex" d="M443 -7q-34 0 -47 18t-13 56l-5 2q-87 -76 -175 -76q-44 0 -76.5 20t-49 54.5t-24 72.5t-7.5 82q0 65 16 122t47.5 102.5t85 72t122.5 26.5q76 0 143 -37l18 30h25l-63 -452q-1 -7 -1 -19q0 -24 24 -24l39 2l-5 -35q-25 -17 -54 -17zM211 47q41 0 91 24.5t84 60.5l46 332 q-49 31 -112 31q-56 0 -98.5 -23t-66.5 -63t-35.5 -86.5t-11.5 -99.5q0 -85 26.5 -130.5t76.5 -45.5zM383 812l98 -181l-27 -16l-104 135l-142 -135l-23 16l150 181h48z"/>
<glyph unicode="ã" horiz-adv-x="583" glyph-name="atilde" d="M443 -7q-34 0 -47 18t-13 56l-5 2q-87 -76 -175 -76q-44 0 -76.5 20t-49 54.5t-24 72.5t-7.5 82q0 65 16 122t47.5 102.5t85 72t122.5 26.5q76 0 143 -37l18 30h25l-63 -452q-1 -7 -1 -19q0 -24 24 -24l39 2l-5 -35q-25 -17 -54 -17zM211 47q41 0 91 24.5t84 60.5l46 332 q-49 31 -112 31q-56 0 -98.5 -23t-66.5 -63t-35.5 -86.5t-11.5 -99.5q0 -85 26.5 -130.5t76.5 -45.5zM510 748q-8 -47 -31.5 -75t-61.5 -28q-23 0 -81 18.5t-76 18.5q-36 0 -47 -48h-35q7 47 30.5 75t61.5 28q24 0 81.5 -18.5t75.5 -18.5q37 0 48 48h35z"/>
<glyph unicode="ä" horiz-adv-x="583" glyph-name="adieresis" d="M443 -7q-34 0 -47 18t-13 56l-5 2q-87 -76 -175 -76q-44 0 -76.5 20t-49 54.5t-24 72.5t-7.5 82q0 65 16 122t47.5 102.5t85 72t122.5 26.5q76 0 143 -37l18 30h25l-63 -452q-1 -7 -1 -19q0 -24 24 -24l39 2l-5 -35q-25 -17 -54 -17zM211 47q41 0 91 24.5t84 60.5l46 332 q-49 31 -112 31q-56 0 -98.5 -23t-66.5 -63t-35.5 -86.5t-11.5 -99.5q0 -85 26.5 -130.5t76.5 -45.5zM200 685q0 18 13.5 30t31.5 12q16 0 26.5 -9.5t10.5 -24.5q0 -19 -12.5 -32t-32.5 -13q-17 0 -27 10.5t-10 26.5zM398 685q0 18 13.5 30t31.5 12q16 0 26.5 -9.5 t10.5 -24.5q0 -19 -12.5 -32t-32.5 -13q-17 0 -27 10.5t-10 26.5z"/>
<glyph unicode="å" horiz-adv-x="583" glyph-name="aring" d="M443 -7q-34 0 -47 18t-13 56l-5 2q-87 -76 -175 -76q-44 0 -76.5 20t-49 54.5t-24 72.5t-7.5 82q0 65 16 122t47.5 102.5t85 72t122.5 26.5q76 0 143 -37l18 30h25l-63 -452q-1 -7 -1 -19q0 -24 24 -24l39 2l-5 -35q-25 -17 -54 -17zM211 47q41 0 91 24.5t84 60.5l46 332 q-49 31 -112 31q-56 0 -98.5 -23t-66.5 -63t-35.5 -86.5t-11.5 -99.5q0 -85 26.5 -130.5t76.5 -45.5zM327 615q-40 0 -66.5 25.5t-26.5 64.5q0 46 37 84.5t88 38.5q42 0 68 -25.5t26 -64.5q0 -49 -38 -86t-88 -37zM333 650q31 0 55.5 24t24.5 61q0 28 -17 44t-44 16 q-33 0 -55 -26.5t-22 -60.5q0 -27 16 -42.5t42 -15.5z"/>
<glyph unicode="æ" horiz-adv-x="856" glyph-name="ae" d="M741 86l7 -53q-27 -16 -74.5 -28t-93.5 -12q-141 0 -187 108q-119 -108 -229 -108q-63 0 -101 35.5t-38 94.5q0 62 39.5 101.5t105.5 55.5q31 7 105 24t105 25q9 51 9 74q0 45 -23 67.5t-80 22.5q-82 0 -169 -48l-16 48q87 52 189 52q128 0 153 -90q70 90 195 90 q168 0 168 -166q0 -40 -10 -92h-361q-6 -33 -6 -70q0 -172 156 -172q77 0 156 41zM173 46q42 0 97 26.5t86 68.5l17 135q-72 -13 -196 -46q-90 -24 -90 -104q0 -39 23.5 -59.5t62.5 -20.5zM446 336h298q4 30 4 40q0 118 -115 118q-65 0 -115 -40t-72 -118z"/>
<glyph unicode="ç" horiz-adv-x="506" glyph-name="ccedilla" d="M426 32q-62 -32 -152 -38l-75 -59q93 0 93 -66q0 -50 -35 -74.5t-86 -24.5q-52 0 -85 23l15 33q30 -20 71 -20q31 0 50 13.5t19 37.5q0 41 -64 41h-43l-5 20l93 76q-83 7 -129.5 65.5t-46.5 158.5q0 45 8 88.5t28 87.5t50 77t79.5 53.5t111.5 20.5q70 0 143 -32l-17 -53 q-62 32 -132 32q-59 0 -102 -26.5t-65 -69.5t-32 -87t-10 -90q0 -80 36 -127t110 -47q37 0 84.5 11.5t80.5 28.5z"/>
<glyph unicode="è" horiz-adv-x="536" glyph-name="egrave" d="M421 86l7 -53q-27 -16 -74.5 -28t-93.5 -12q-100 0 -157 56t-57 167q0 138 70 233.5t202 95.5q168 0 168 -166q0 -40 -10 -92h-361q-6 -33 -6 -70q0 -172 156 -172q77 0 156 41zM126 336h298q4 30 4 40q0 118 -115 118q-65 0 -115 -40t-72 -118zM351 615l-130 176l69 33 l92 -193z"/>
<glyph unicode="é" horiz-adv-x="536" glyph-name="eacute" d="M421 86l7 -53q-27 -16 -74.5 -28t-93.5 -12q-100 0 -157 56t-57 167q0 138 70 233.5t202 95.5q168 0 168 -166q0 -40 -10 -92h-361q-6 -33 -6 -70q0 -172 156 -172q77 0 156 41zM126 336h298q4 30 4 40q0 118 -115 118q-65 0 -115 -40t-72 -118zM277 615l-28 15l145 195 l60 -33z"/>
<glyph unicode="ê" horiz-adv-x="536" glyph-name="ecircumflex" d="M421 86l7 -53q-27 -16 -74.5 -28t-93.5 -12q-100 0 -157 56t-57 167q0 138 70 233.5t202 95.5q168 0 168 -166q0 -40 -10 -92h-361q-6 -33 -6 -70q0 -172 156 -172q77 0 156 41zM126 336h298q4 30 4 40q0 118 -115 118q-65 0 -115 -40t-72 -118zM380 812l98 -181l-27 -16 l-104 135l-142 -135l-23 16l150 181h48z"/>
<glyph unicode="ë" horiz-adv-x="536" glyph-name="edieresis" d="M421 86l7 -53q-27 -16 -74.5 -28t-93.5 -12q-100 0 -157 56t-57 167q0 138 70 233.5t202 95.5q168 0 168 -166q0 -40 -10 -92h-361q-6 -33 -6 -70q0 -172 156 -172q77 0 156 41zM126 336h298q4 30 4 40q0 118 -115 118q-65 0 -115 -40t-72 -118zM198 685q0 18 13.5 30 t31.5 12q16 0 26.5 -9.5t10.5 -24.5q0 -19 -12.5 -32t-32.5 -13q-17 0 -27 10.5t-10 26.5zM396 685q0 18 13.5 30t31.5 12q16 0 26.5 -9.5t10.5 -24.5q0 -19 -12.5 -32t-32.5 -13q-17 0 -27 10.5t-10 26.5z"/>
<glyph unicode="ì" horiz-adv-x="223" glyph-name="igrave" d="M35 0l74 538h59l-74 -538h-59zM160 615l-130 176l69 33l92 -193z"/>
<glyph unicode="í" horiz-adv-x="223" glyph-name="iacute" d="M35 0l74 538h59l-74 -538h-59zM139 615l-28 15l145 195l60 -33z"/>
<glyph unicode="î" horiz-adv-x="223" glyph-name="icircumflex" d="M35 0l74 538h59l-74 -538h-59zM201 812l98 -181l-27 -16l-104 135l-142 -135l-23 16l150 181h48z"/>
<glyph unicode="ï" horiz-adv-x="223" glyph-name="idieresis" d="M35 0l74 538h59l-74 -538h-59zM20 685q0 18 13.5 30t31.5 12q16 0 26.5 -9.5t10.5 -24.5q0 -19 -12.5 -32t-32.5 -13q-17 0 -27 10.5t-10 26.5zM218 685q0 18 13.5 30t31.5 12q16 0 26.5 -9.5t10.5 -24.5q0 -19 -12.5 -32t-32.5 -13q-17 0 -27 10.5t-10 26.5z"/>
<glyph unicode="ð" horiz-adv-x="561" glyph-name="eth" d="M230 555l7 50l92 38q-54 53 -133 80l22 47q103 -28 170 -103l128 53l-7 -50l-93 -38q79 -114 79 -276q0 -65 -15 -126t-45 -116t-83.5 -88t-122.5 -33q-77 0 -130.5 50t-53.5 144q0 121 72.5 199t194.5 78q64 0 113 -25l5 3q-17 96 -71 166zM237 45q54 0 95 30.5t62.5 80 t32 101.5t10.5 104v14q-56 35 -127 35q-94 0 -149 -61.5t-55 -160.5q0 -68 34.5 -105.5t96.5 -37.5z"/>
<glyph unicode="ñ" horiz-adv-x="557" glyph-name="ntilde" d="M35 0l75 538h42l3 -69l5 -1q88 77 179 77q73 0 109 -42.5t36 -113.5q0 -21 -3 -45l-48 -344h-60l47 339q3 24 3 43q0 110 -98 110t-174 -86l-56 -406h-60zM492 748q-8 -47 -31.5 -75t-61.5 -28q-23 0 -81 18.5t-76 18.5q-36 0 -47 -48h-35q7 47 30.5 75t61.5 28 q24 0 82 -18.5t75 -18.5q37 0 48 48h35z"/>
<glyph unicode="ò" horiz-adv-x="558" glyph-name="ograve" d="M246 44q52 0 89.5 21.5t58.5 60.5t30.5 86t9.5 105q0 84 -34 130.5t-101 46.5q-99 0 -145 -75t-46 -199q0 -85 35.5 -130.5t102.5 -45.5zM241 -7q-92 0 -143.5 56.5t-51.5 166.5q0 329 261 329q93 0 141 -62.5t48 -162.5q0 -69 -13 -126t-42 -103t-79.5 -72t-120.5 -26z M349 615l-130 176l69 33l92 -193z"/>
<glyph unicode="ó" horiz-adv-x="558" glyph-name="oacute" d="M246 44q52 0 89.5 21.5t58.5 60.5t30.5 86t9.5 105q0 84 -34 130.5t-101 46.5q-99 0 -145 -75t-46 -199q0 -85 35.5 -130.5t102.5 -45.5zM241 -7q-92 0 -143.5 56.5t-51.5 166.5q0 329 261 329q93 0 141 -62.5t48 -162.5q0 -69 -13 -126t-42 -103t-79.5 -72t-120.5 -26z M265 615l-28 15l145 195l60 -33z"/>
<glyph unicode="ô" horiz-adv-x="558" glyph-name="ocircumflex" d="M246 44q52 0 89.5 21.5t58.5 60.5t30.5 86t9.5 105q0 84 -34 130.5t-101 46.5q-99 0 -145 -75t-46 -199q0 -85 35.5 -130.5t102.5 -45.5zM241 -7q-92 0 -143.5 56.5t-51.5 166.5q0 329 261 329q93 0 141 -62.5t48 -162.5q0 -69 -13 -126t-42 -103t-79.5 -72t-120.5 -26z M361 812l98 -181l-27 -16l-104 135l-142 -135l-23 16l150 181h48z"/>
<glyph unicode="õ" horiz-adv-x="558" glyph-name="otilde" d="M246 44q52 0 89.5 21.5t58.5 60.5t30.5 86t9.5 105q0 84 -34 130.5t-101 46.5q-99 0 -145 -75t-46 -199q0 -85 35.5 -130.5t102.5 -45.5zM241 -7q-92 0 -143.5 56.5t-51.5 166.5q0 329 261 329q93 0 141 -62.5t48 -162.5q0 -69 -13 -126t-42 -103t-79.5 -72t-120.5 -26z M483 748q-8 -47 -31.5 -75t-61.5 -28q-24 0 -82 18.5t-75 18.5q-36 0 -47 -48h-35q7 47 30.5 75t61.5 28q23 0 81 -18.5t76 -18.5q37 0 48 48h35z"/>
<glyph unicode="ö" horiz-adv-x="558" glyph-name="odieresis" d="M246 44q52 0 89.5 21.5t58.5 60.5t30.5 86t9.5 105q0 84 -34 130.5t-101 46.5q-99 0 -145 -75t-46 -199q0 -85 35.5 -130.5t102.5 -45.5zM241 -7q-92 0 -143.5 56.5t-51.5 166.5q0 329 261 329q93 0 141 -62.5t48 -162.5q0 -69 -13 -126t-42 -103t-79.5 -72t-120.5 -26z M178 685q0 18 13.5 30t31.5 12q16 0 26.5 -9.5t10.5 -24.5q0 -19 -12.5 -32t-32.5 -13q-17 0 -27 10.5t-10 26.5zM376 685q0 18 13.5 30t31.5 12q16 0 26.5 -9.5t10.5 -24.5q0 -19 -12.5 -32t-32.5 -13q-17 0 -27 10.5t-10 26.5z"/>
<glyph unicode="÷" glyph-name="divide" d="M570 302h-490v48h490v-48zM325 125q-17 0 -29.5 12t-12.5 29q0 18 12.5 30t29.5 12t29.5 -12t12.5 -30q0 -17 -12.5 -29t-29.5 -12zM325 443q-17 0 -29.5 12t-12.5 29q0 18 12.5 30t29.5 12t29.5 -12t12.5 -30q0 -17 -12.5 -29t-29.5 -12z"/>
<glyph unicode="ø" horiz-adv-x="558" glyph-name="oslash" d="M75 -22h-56l66 86q-39 58 -39 152q0 329 261 329q73 0 118 -39l42 54h56l-68 -88q41 -57 41 -152q0 -69 -13 -126t-42 -103t-79.5 -72t-120.5 -26q-76 0 -125 38zM246 44q52 0 89.5 21.5t58.5 60.5t30.5 86t9.5 105q0 62 -19 103l-262 -342q36 -34 93 -34zM108 220 q0 -62 18 -102l263 341q-35 35 -90 35q-99 0 -145 -75t-46 -199z"/>
<glyph unicode="ù" horiz-adv-x="559" glyph-name="ugrave" d="M504 538l-74 -538h-40l-6 67l-5 2q-49 -45 -89.5 -60.5t-90.5 -15.5q-73 0 -109.5 47t-36.5 123q0 21 3 45l45 330h60l-46 -333q-2 -13 -2 -39q0 -56 25 -87.5t74 -31.5q47 0 94.5 24.5t81.5 60.5l56 406h60zM335 615l-130 176l69 33l92 -193z"/>
<glyph unicode="ú" horiz-adv-x="559" glyph-name="uacute" d="M504 538l-74 -538h-40l-6 67l-5 2q-49 -45 -89.5 -60.5t-90.5 -15.5q-73 0 -109.5 47t-36.5 123q0 21 3 45l45 330h60l-46 -333q-2 -13 -2 -39q0 -56 25 -87.5t74 -31.5q47 0 94.5 24.5t81.5 60.5l56 406h60zM287 615l-28 15l145 195l60 -33z"/>
<glyph unicode="û" horiz-adv-x="559" glyph-name="ucircumflex" d="M504 538l-74 -538h-40l-6 67l-5 2q-49 -45 -89.5 -60.5t-90.5 -15.5q-73 0 -109.5 47t-36.5 123q0 21 3 45l45 330h60l-46 -333q-2 -13 -2 -39q0 -56 25 -87.5t74 -31.5q47 0 94.5 24.5t81.5 60.5l56 406h60zM365 812l98 -181l-27 -16l-104 135l-142 -135l-23 16l150 181 h48z"/>
<glyph unicode="ü" horiz-adv-x="559" glyph-name="udieresis" d="M504 538l-74 -538h-40l-6 67l-5 2q-49 -45 -89.5 -60.5t-90.5 -15.5q-73 0 -109.5 47t-36.5 123q0 21 3 45l45 330h60l-46 -333q-2 -13 -2 -39q0 -56 25 -87.5t74 -31.5q47 0 94.5 24.5t81.5 60.5l56 406h60zM184 685q0 18 13.5 30t31.5 12q16 0 26.5 -9.5t10.5 -24.5 q0 -19 -12.5 -32t-32.5 -13q-17 0 -27 10.5t-10 26.5zM382 685q0 18 13.5 30t31.5 12q16 0 26.5 -9.5t10.5 -24.5q0 -19 -12.5 -32t-32.5 -13q-17 0 -27 10.5t-10 26.5z"/>
<glyph unicode="ý" horiz-adv-x="549" glyph-name="yacute" d="M138 -230h-65q72 121 132 230h-11q-80 382 -99 461q-3 13 -5.5 19.5t-11 12.5t-23.5 6l5 39q2 0 13 0.5t18 0.5q32 0 45.5 -15t21.5 -54q13 -62 37.5 -195.5t38.5 -201.5h4q112 219 227 465h69q-34 -75 -175 -347.5t-221 -420.5zM298 615l-28 15l145 195l60 -33z"/>
<glyph unicode="þ" horiz-adv-x="558" glyph-name="thorn" d="M330 545q84 0 123 -61.5t39 -159.5q0 -155 -69.5 -243t-207.5 -88q-71 0 -118 27l-35 -250h-60l140 1000h58l-29 -218l-15 -83l4 -1q86 77 170 77zM220 42q104 0 157 78t53 204q0 74 -26 121t-84 47q-40 0 -85.5 -22.5t-84.5 -62.5l-46 -333q46 -32 116 -32z"/>
</font>
</defs>
</svg>
