<?xml version="1.0" encoding="UTF-8" standalone="no"?>
<!DOCTYPE svg  PUBLIC '-//W3C//DTD SVG 1.1//EN'  'http://www.w3.org/Graphics/SVG/1.1/DTD/svg11.dtd'>
<svg xmlns="http://www.w3.org/2000/svg" version="1.1">
<defs>
<font id="SoberanaSans-Ultra" horiz-adv-x="750">
<font-face underline-thickness="50" unicode-range="U+0020-00FE" descent="-230" units-per-em="1000" bbox="-111 -239 1210 1109" panose-1="2 0 0 0 0 0 0 0 0 0" ascent="770" x-height="546" underline-position="-150" font-family="Soberana Sans Ultra" font-weight="900" cap-height="750"/>
<missing-glyph/>
<glyph unicode=" " horiz-adv-x="260" glyph-name="space"/>
<glyph d="M338 267h-228l-35 473l291 24zM226 -14q-67 0 -107.5 30.5t-40.5 93.5q0 59 41 91t107 32q64 0 103 -32t39 -91q0 -60 -39 -92t-103 -32z" unicode="!" horiz-adv-x="443" glyph-name="exclam"/>
<glyph d="M217 485h-137l-30 260l204 19zM472 485h-137l-30 260l204 19z" unicode='&quot;' horiz-adv-x="559" glyph-name="quotedbl"/>
<glyph d="M408 659h161l-16 -125h79v-160h-99l-10 -79h89v-159h-109l-15 -126h-162l16 126h-86l-16 -126h-161l15 126h-77v159h97l10 79h-87v160h107l16 125h162l-16 -125h86zM286 374l-10 -79h86l10 79h-86z" unicode="#" horiz-adv-x="650" glyph-name="numbersign"/>
<glyph d="M210 -134l17 133q-99 18 -166 55l38 207q55 -30 130.5 -50t132.5 -20q62 0 62 24q0 10 -24.5 18t-73.5 19.5t-79 21.5q-177 60 -177 217q0 100 66 161.5t180 76.5l19 134l201 -18l-17 -124q81 -15 135 -38l-69 -199q-93 40 -178 40q-58 0 -58 -21q0 -12 24.5 -22 t81.5 -27t101 -36q62 -26 96.5 -68t34.5 -113q0 -118 -70.5 -177t-186.5 -71l-16 -139z" unicode="$" glyph-name="dollar"/>
<glyph d="M216 493q33 0 33 63q0 66 -33 66q-34 0 -34 -65q0 -64 34 -64zM217 381q-192 0 -192 178q0 86 48.5 130.5t143.5 44.5q189 0 189 -178q0 -175 -189 -175zM844 98q34 0 34 65q0 64 -34 64q-33 0 -33 -63q0 -66 33 -66zM843 -14q-189 0 -189 178q0 175 189 175 q192 0 192 -178q0 -86 -48.5 -130.5t-143.5 -44.5zM421 -14l-179 110l394 638l182 -107z" unicode="%" horiz-adv-x="1075" glyph-name="percent"/>
<glyph d="M799 0q-35 -14 -91 -14q-106 0 -199 68q-100 -68 -242 -68q-114 0 -185.5 52t-71.5 158q0 114 126 217q-31 65 -31 132q0 109 71 164t174 55q59 0 120.5 -18.5t103.5 -48.5l-67 -167q-61 41 -120 41q-23 0 -35.5 -10.5t-12.5 -28.5q0 -70 150 -190q18 32 38 78h228 q-41 -102 -98 -194q55 -34 112 -34h30v-192zM290 166q23 0 49 10q-54 46 -78 69q-13 -20 -13 -38q0 -17 11.5 -29t30.5 -12z" unicode="&amp;" horiz-adv-x="799" glyph-name="ampersand"/>
<glyph d="M217 485h-137l-30 260l204 19z" unicode="&apos;" horiz-adv-x="304" glyph-name="quotesingle"/>
<glyph d="M395 -104q-175 25 -267.5 147t-92.5 290t92.5 290t267.5 147v-197q-105 -78 -105 -240t105 -240v-197z" unicode="(" horiz-adv-x="440" glyph-name="parenleft"/>
<glyph d="M150 333q0 162 -105 240v197q175 -25 267.5 -147t92.5 -290t-92.5 -290t-267.5 -147v197q105 78 105 240z" unicode=")" horiz-adv-x="440" glyph-name="parenright"/>
<glyph d="M312 365h-155l46 150l-117 -107l-61 125l154 32l-154 32l59 125l119 -108l-46 150h155l-46 -150l117 107l61 -125l-154 -32l154 -32l-59 -125l-119 108z" unicode="*" horiz-adv-x="469" glyph-name="asterisk"/>
<glyph d="M410 10h-170v188h-190v171h190v188h170v-188h190v-171h-190v-188z" unicode="+" horiz-adv-x="650" glyph-name="plus"/>
<glyph d="M211 -131l-185 30q40 76 40 154q0 59 -25 115l230 29q23 -61 23 -113q0 -94 -83 -215z" unicode="," horiz-adv-x="336" glyph-name="comma"/>
<glyph d="M20 207v159l420 25v-159z" unicode="-" horiz-adv-x="460" glyph-name="hyphen"/>
<glyph d="M35 107q0 56 36 90t96 34t97 -34t37 -90q0 -55 -37 -88t-97 -33t-96 33t-36 88z" unicode="." horiz-adv-x="336" glyph-name="period"/>
<glyph d="M600 705l-381 -755l-204 108l374 742z" unicode="/" horiz-adv-x="615" glyph-name="slash"/>
<glyph d="M376 182q30 0 43.5 45.5t13.5 144.5q0 91 -13.5 125.5t-43.5 34.5q-59 0 -59 -169q0 -181 59 -181zM375 -14q-156 0 -239 89.5t-83 293.5q0 365 323 365q160 0 240.5 -90.5t80.5 -266.5q0 -210 -82 -300.5t-240 -90.5z" unicode="0" glyph-name="zero"/>
<glyph d="M73 0v203h186v280l-186 -7v174q168 15 355 70h104v-517h185v-203h-644z" unicode="1" glyph-name="one"/>
<glyph d="M80 0l-27 163q323 183 323 294q0 56 -63 56q-40 0 -90 -17.5t-85 -38.5l-83 195q135 82 314 82q58 0 108.5 -11t96 -36.5t72 -74t26.5 -115.5q0 -86 -45 -149t-127 -127l2 -7h194v-214h-616z" unicode="2" glyph-name="two"/>
<glyph d="M697 219q0 -78 -50.5 -132t-125.5 -77.5t-167 -23.5q-179 0 -300 78l64 194q40 -27 97.5 -47t103.5 -20q93 0 93 46q0 50 -173 50v123q42 9 69.5 17.5t52 24.5t24.5 35q0 33 -65 33q-46 0 -94.5 -15.5t-82.5 -40.5l-71 177q56 41 137 67t173 26q138 0 216 -49t78 -136 q0 -50 -34 -89.5t-85 -60.5v-8q140 -47 140 -172z" unicode="3" glyph-name="three"/>
<glyph d="M429 734l215 -14v-411h53l-14 -195h-39v-114h-245v114h-346v148q86 111 219.5 276.5t156.5 195.5zM395 413l-83 -103l3 -5h87v106z" unicode="4" glyph-name="four"/>
<glyph d="M360 -14q-174 0 -307 77l64 199q41 -25 112 -46t123 -21q69 0 69 39q0 15 -10 26.5t-31.5 19.5t-42.5 13.5t-57 9.5t-60 6t-66 5t-62 5q30 166 54 401h526v-202h-277q-4 -40 -6 -52q166 -23 237 -76.5t71 -173.5q0 -75 -48 -128.5t-122.5 -77.5t-166.5 -24z" unicode="5" glyph-name="five"/>
<glyph d="M637 543q-113 -26 -186.5 -54.5t-112.5 -74.5l5 -3q59 34 130 34q95 0 159.5 -51.5t64.5 -159.5q0 -118 -88 -183t-232 -65q-48 0 -92 8.5t-87 30.5t-74.5 55.5t-51 89t-19.5 125.5q0 79 30.5 146.5t82 116.5t121 86t144 58.5t155.5 31.5zM383 293q-41 0 -76 -32 q4 -47 19.5 -72.5t51.5 -25.5q65 0 65 66q0 30 -16.5 47t-43.5 17z" unicode="6" glyph-name="six"/>
<glyph d="M419 0h-335q107 187 287 516h-313v204h603l40 -92q-47 -113 -282 -628z" unicode="7" glyph-name="seven"/>
<glyph d="M374 -14q-62 0 -116.5 11t-102 34.5t-75.5 66.5t-28 101q0 118 123 183q-102 60 -102 152q0 200 302 200q301 0 301 -200q0 -96 -108 -151q30 -16 48 -28.5t39.5 -34.5t31.5 -52.5t10 -70.5q0 -59 -30.5 -102.5t-81 -66t-103 -32.5t-108.5 -10zM375 469q57 22 57 56 q0 39 -57 39q-58 0 -58 -41q0 -16 17.5 -32t40.5 -22zM373 164q65 0 65 44q0 23 -16.5 35t-53.5 24q-19 -8 -27.5 -12.5t-19 -18t-10.5 -32.5q0 -22 20 -31t42 -9z" unicode="8" glyph-name="eight"/>
<glyph d="M112 178q2 1 31 8.5t50.5 13.5t57 18.5t62.5 25t54.5 30t43.5 36.5l-5 4q-57 -34 -130 -34q-45 0 -83 10.5t-70.5 34t-50.5 66t-18 100.5q0 118 86.5 180.5t231.5 62.5q63 0 115.5 -13t102 -44t78 -92.5t28.5 -148.5q0 -79 -30.5 -147.5t-82 -118t-121 -88t-144 -62 t-155.5 -34.5zM366 432q47 0 77 33q-8 95 -72 95q-34 0 -49.5 -19.5t-15.5 -47.5q0 -29 16 -45t44 -16z" unicode="9" glyph-name="nine"/>
<glyph d="M35 107q0 56 36 90t96 34t97 -34t37 -90q0 -55 -37 -88t-97 -33t-96 33t-36 88zM35 436q0 56 36 90t96 34t97 -34t37 -90q0 -55 -37 -88t-97 -33t-96 33t-36 88z" unicode=":" horiz-adv-x="336" glyph-name="colon"/>
<glyph d="M167 315q-60 0 -96 33t-36 88q0 56 36 90t96 34q61 0 97.5 -34t36.5 -90q0 -55 -36.5 -88t-97.5 -33zM211 -131l-185 30q40 76 40 154q0 59 -25 115l230 29q23 -61 23 -113q0 -94 -83 -215z" unicode=";" horiz-adv-x="336" glyph-name="semicolon"/>
<glyph d="M70 226v119l510 240v-190l-236 -110l236 -108v-191z" unicode="&lt;" horiz-adv-x="650" glyph-name="less"/>
<glyph d="M600 338h-550v171h550v-171zM600 58h-550v171h550v-171z" unicode="=" horiz-adv-x="650" glyph-name="equal"/>
<glyph d="M580 345v-119l-510 -240v191l236 108l-236 110v190z" unicode="&gt;" horiz-adv-x="650" glyph-name="greater"/>
<glyph d="M396 265h-251q-21 40 -21 85q0 34 21.5 63t48 45.5t48 34.5t21.5 32q0 25 -41 25q-28 0 -66.5 -12.5t-64.5 -27.5l-66 187q45 28 116.5 47.5t141.5 19.5q125 0 194.5 -48t69.5 -149q0 -41 -25.5 -81.5t-55.5 -67t-55.5 -54t-25.5 -44.5q0 -31 11 -55zM270 -14 q-67 0 -107.5 30.5t-40.5 93.5q0 59 41 91t107 32q64 0 103 -32t39 -91q0 -60 -39 -92t-103 -32z" unicode="?" horiz-adv-x="582" glyph-name="question"/>
<glyph d="M389 -127q-90 0 -161.5 32t-114.5 86t-65.5 119.5t-22.5 137.5q0 182 110 299t298 118q62 0 119.5 -17.5t106.5 -52t78.5 -95t29.5 -139.5q0 -71 -27.5 -134.5t-83.5 -105.5t-128 -42q-78 0 -99 65l-7 1q-62 -60 -126 -60q-58 0 -89.5 43t-31.5 114q0 45 12 86t37 76.5 t70 57t103 21.5q72 0 134 -43l41 34h50q-36 -273 -36 -282q0 -17 17 -17q12 0 28 10.5t33 31.5t28.5 59t11.5 86q0 125 -79 189t-195 64q-160 -1 -255 -102t-95 -263q0 -141 84 -232t223 -91q68 0 142 28.5t118 69.5l30 -46q-127 -106 -288 -106zM375 210q21 0 44 29l14 106 q-12 7 -29 7q-28 0 -43.5 -27.5t-15.5 -63.5q0 -51 30 -51z" unicode="@" horiz-adv-x="792" glyph-name="at"/>
<glyph d="M603 0q-9 27 -47 139h-222l-45 -139h-284q122 314 307 750h267q38 -85 148 -347t163 -403h-287zM449 444h-7q-16 -40 -44 -119h94q-33 94 -43 119z" unicode="A" horiz-adv-x="895" glyph-name="A"/>
<glyph d="M50 0v750h382q45 0 79 -3t75.5 -14.5t68.5 -31t45.5 -56t18.5 -86.5q0 -61 -30.5 -101.5t-83.5 -57.5v-9q65 -21 105 -61.5t40 -118.5q0 -98 -71.5 -154.5t-229.5 -56.5h-399zM327 166h49q46 0 68 19.5t22 51.5q0 29 -21 45.5t-58 16.5h-60v-133zM327 449h33 q38 0 57.5 20.5t19.5 54.5q0 32 -15.5 46.5t-49.5 14.5h-45v-136z" unicode="B" horiz-adv-x="765" glyph-name="B"/>
<glyph d="M440 -14q-83 0 -155.5 21t-133 64t-96 119t-35.5 176q0 85 21.5 153t58.5 113.5t90 75.5t113.5 43t130.5 13q156 0 250 -51l-47 -199q-77 34 -156 34q-167 0 -167 -175q0 -83 48.5 -126t128.5 -43q91 0 168 34l31 -201q-116 -51 -250 -51z" unicode="C" horiz-adv-x="710" glyph-name="C"/>
<glyph d="M50 0v750h368q185 0 285 -94t100 -284q0 -195 -104.5 -283.5t-281.5 -88.5h-367zM328 547v-345h48q130 0 130 176q0 53 -10.5 88.5t-30.5 52t-40.5 22.5t-49.5 6h-47z" unicode="D" horiz-adv-x="828" glyph-name="D"/>
<glyph d="M50 0v750h523v-202h-244v-82h178l-23 -174h-155v-89h246v-203h-525z" unicode="E" horiz-adv-x="600" glyph-name="E"/>
<glyph d="M50 0v750h549v-202h-270v-102h220l-24 -175h-196v-271h-279z" unicode="F" horiz-adv-x="614" glyph-name="F"/>
<glyph d="M755 439v-388q-133 -65 -323 -65q-84 0 -155.5 22t-129 66t-90 119t-32.5 173q0 90 24 160t64 114.5t97.5 72.5t119.5 39.5t135 11.5q158 0 272 -51l-47 -200q-85 35 -191 35q-181 0 -181 -177q0 -82 41 -124.5t115 -42.5q21 0 31 5v70h-37v160h287z" unicode="G" horiz-adv-x="795" glyph-name="G"/>
<glyph d="M50 0v750h278v-269h210v269h278v-750h-278v278h-210v-278h-278z" unicode="H" horiz-adv-x="866" glyph-name="H"/>
<glyph d="M50 0v750h278v-750h-278z" unicode="I" horiz-adv-x="378" glyph-name="I"/>
<glyph d="M74 546v204h345v-532q0 -125 -61.5 -178.5t-175.5 -53.5q-66 0 -151 16l-16 203q19 -6 53 -6q39 0 53 18.5t14 58.5v270h-61z" unicode="J" horiz-adv-x="464" glyph-name="J"/>
<glyph d="M806 185v-185q-65 -14 -128 -14q-67 0 -111 20.5t-84 76.5q-49 68 -121 195h-34v-278h-278v750h278v-269h31q38 52 149 269h300q-36 -83 -206 -354q22 -46 58.5 -101.5t65.5 -85.5q23 -23 80 -24z" unicode="K" horiz-adv-x="818" glyph-name="K"/>
<glyph d="M50 0v750h279v-547h276v-203h-555z" unicode="L" horiz-adv-x="620" glyph-name="L"/>
<glyph d="M998 750l30 -750h-264l-11 331h-7q-116 -220 -153 -277q-52 -11 -121 -14q-109 213 -157 298l-9 -1l-11 -337h-255l31 750h281q116 -219 177 -346h9q43 78 85.5 164.5t63.5 133.5l21 48h290z" unicode="M" horiz-adv-x="1068" glyph-name="M"/>
<glyph d="M830 0l-181 -14q-61 73 -118.5 139t-88 99.5t-69 76t-46.5 51.5l-8 -1v-351h-269v750h238q135 -135 263 -290l8 2v288h271v-750z" unicode="N" horiz-adv-x="880" glyph-name="N"/>
<glyph d="M432 -14q-189 0 -298 95.5t-109 291.5q0 391 406 391q200 0 303.5 -96t103.5 -288q0 -203 -108.5 -298.5t-297.5 -95.5zM431 182q62 0 90.5 46.5t28.5 145.5q0 110 -29 153.5t-89 43.5q-63 0 -91 -45t-28 -154q0 -99 28.5 -144.5t89.5 -45.5z" unicode="O" horiz-adv-x="863" glyph-name="O"/>
<glyph d="M397 195q-46 0 -68 1v-196h-279v750h385q155 0 230 -67t75 -191q0 -137 -92 -217t-251 -80zM329 548v-143q26 -2 42 -2q90 0 90 79q0 38 -22.5 52t-67.5 14h-42z" unicode="P" horiz-adv-x="760" glyph-name="P"/>
<glyph d="M737 -211q-100 0 -224.5 64t-221.5 148q-126 31 -196 123.5t-70 248.5q0 391 406 391q200 0 303.5 -96t103.5 -288q0 -263 -189 -352q80 -56 158 -56q22 0 44 2v-168q-47 -17 -114 -17zM431 182q62 0 90.5 46.5t28.5 145.5q0 110 -29 153.5t-89 43.5q-63 0 -91 -45 t-28 -154q0 -99 28.5 -144.5t89.5 -45.5z" unicode="Q" horiz-adv-x="864" glyph-name="Q"/>
<glyph d="M765 186v-186q-58 -14 -127 -14q-53 0 -87.5 10t-65.5 44q-52 58 -131 192h-26v-232h-278v750h344q155 0 235.5 -60.5t80.5 -179.5q0 -75 -27 -122.5t-80 -83.5q38 -53 75 -92q26 -26 71 -26h16zM328 548v-121h27q77 0 77 64q0 33 -19.5 45t-57.5 12h-27z" unicode="R" horiz-adv-x="770" glyph-name="R"/>
<glyph d="M325 -14q-180 0 -305 68l38 207q132 -69 252 -69q73 0 73 24q0 15 -20.5 25.5t-71.5 27t-83 30.5q-87 37 -133 85t-46 138q0 122 84.5 182t236.5 60q58 0 134 -14t129 -36l-43 -199q-39 15 -97 26.5t-104 11.5q-61 0 -61 -24q0 -13 31 -25t88.5 -31.5t97.5 -40.5 q60 -32 90.5 -74.5t30.5 -116.5q0 -70 -26 -121t-72 -79.5t-101.5 -41.5t-121.5 -13z" unicode="S" horiz-adv-x="676" glyph-name="S"/>
<glyph d="M231 0v548h-216v202h711v-202h-216v-548h-279z" unicode="T" horiz-adv-x="741" glyph-name="T"/>
<glyph d="M418 -14q-192 0 -285 81t-93 278v405h279v-416q0 -77 24 -107t77 -30q50 0 75.5 28t25.5 109v416h279v-423q0 -181 -95 -261t-287 -80z" unicode="U" horiz-adv-x="840" glyph-name="U"/>
<glyph d="M582 0h-300q-38 80 -135.5 334.5t-146.5 415.5h291q63 -233 138 -458h6q77 208 138 458h291q-45 -155 -144 -412t-138 -338z" unicode="V" horiz-adv-x="864" glyph-name="V"/>
<glyph d="M701 0l-78 221h-5q-22 -51 -57.5 -127.5t-42.5 -93.5h-289q-31 79 -110 338t-114 412h291q40 -209 105 -442h6q42 82 102 208q-14 27 -25.5 35.5t-31.5 8.5v190q49 8 105 8q64 0 108 -20.5t63 -81.5l103 -338h6q51 205 85 432h288q-40 -172 -112.5 -428.5t-98.5 -321.5 h-298z" unicode="W" horiz-adv-x="1220" glyph-name="W"/>
<glyph d="M0 0q99 160 232 370q-96 134 -98 137q-31 41 -80 41v202q43 6 128 6q60 0 95 -18t74 -75q24 -36 75 -117h6q12 19 26.5 45t25 47t28 56.5t27.5 55.5h304q-132 -228 -220 -364q80 -123 113 -161q35 -40 100 -40v-186q-11 -4 -61 -8.5t-71 -4.5q-67 0 -106.5 17t-79.5 78 l-81 124h-8q-18 -31 -60 -107.5t-54 -97.5h-315z" unicode="X" horiz-adv-x="848" glyph-name="X"/>
<glyph d="M247 0v289q-121 171 -154 211q-36 42 -78 42v208q44 5 111 5q60 0 103 -21t78 -76l74 -116h6q16 24 32 55t40 82.5t34 70.5h304q-117 -212 -272 -455v-295h-278z" unicode="Y" horiz-adv-x="797" glyph-name="Y"/>
<glyph d="M740 203v-203h-720v113q48 75 313 426l-2 8h-284v203h650l36 -109q-25 -34 -96.5 -128.5t-127.5 -171.5t-92 -130l3 -8h320z" unicode="Z" horiz-adv-x="760" glyph-name="Z"/>
<glyph d="M450 570h-113v-474h113v-194h-365v862h365v-194z" unicode="[" horiz-adv-x="505" glyph-name="bracketleft"/>
<glyph d="M396 -50l-381 755l211 95l374 -742z" unicode="\" horiz-adv-x="615" glyph-name="backslash"/>
<glyph d="M168 570h-113v194h365v-862h-365v194h113v474z" unicode="]" horiz-adv-x="505" glyph-name="bracketright"/>
<glyph d="M260 750h130l233 -514h-193l-105 235l-105 -235h-193z" unicode="^" horiz-adv-x="650" glyph-name="asciicircum"/>
<glyph d="M-10 -230v159h670v-159h-670z" unicode="_" horiz-adv-x="650" glyph-name="underscore"/>
<glyph d="M465 673l-101 -50l-230 240l173 103z" unicode="`" horiz-adv-x="600" glyph-name="grave"/>
<glyph d="M700 170l12 -150q-118 -34 -199 -34q-57 0 -86 17.5t-40 59.5l-7 2q-85 -79 -184 -79q-66 0 -121 46t-55 116q0 54 31 83t96 46q41 11 131 29t99 20v8q0 23 -14 35.5t-50 12.5q-98 0 -218 -46l-47 151q66 35 150.5 54t143.5 19q29 0 52 -1t56 -6.5t58 -14t52.5 -26 t45 -41t29 -60t11.5 -81.5v-137q0 -14 5.5 -19.5t19.5 -5.5zM294 182q0 -13 12 -26.5t31 -13.5q23 0 40 24v62q-50 -14 -61 -18q-22 -7 -22 -28z" unicode="a" horiz-adv-x="717" glyph-name="a"/>
<glyph d="M45 0v770h266v-192l-5 -87l6 -2q64 71 154 71q105 0 171.5 -76t66.5 -199q0 -299 -305 -299q-146 0 -244 55l-38 -41h-72zM369 377q-37 0 -58 -41v-152q23 -16 51 -16q69 0 69 104q0 105 -62 105z" unicode="b" horiz-adv-x="724" glyph-name="b"/>
<glyph d="M324 -14q-142 0 -220.5 72t-78.5 208q0 49 7 89.5t27 79.5t52.5 65.5t86 43t124.5 16.5q56 0 116.5 -11.5t98.5 -29.5l-35 -188q-66 30 -127 30q-38 0 -57.5 -19.5t-19.5 -65.5q0 -40 17.5 -63.5t71.5 -23.5q61 0 127 25l34 -187q-32 -18 -94 -29.5t-130 -11.5z" unicode="c" horiz-adv-x="558" glyph-name="c"/>
<glyph d="M253 -14q-104 0 -168.5 76.5t-64.5 197.5q0 81 24 141t65.5 93.5t90.5 49.5t105 16q58 0 107 -22v232h266v-770h-231l-26 62l-7 1q-32 -40 -68.5 -58.5t-92.5 -18.5zM354 167q17 0 33 11t25 30v152q-22 17 -49 17q-70 0 -70 -108q0 -46 16 -74t45 -28z" unicode="d" horiz-adv-x="723" glyph-name="d"/>
<glyph d="M604 205l25 -171q-127 -48 -276 -48q-47 0 -90 7t-87.5 26.5t-77 50t-53 80.5t-20.5 115q0 295 323 295q60 0 109 -12.5t92.5 -40.5t68 -81t24.5 -127q0 -30 -2 -52h-342v-9q0 -67 100 -67q92 0 206 34zM302 343h100q0 63 -47 63t-53 -63z" unicode="e" horiz-adv-x="662" glyph-name="e"/>
<glyph d="M5 374v172h86v13q0 124 66.5 174.5t193.5 50.5q99 0 180 -24l-36 -169q-40 11 -73 11q-65 0 -65 -40v-16h128l-19 -172h-109v-374h-266v374h-86z" unicode="f" horiz-adv-x="501" glyph-name="f"/>
<glyph d="M36 371q0 95 83 142t220 47q168 0 237 -71l8 1q1 19 2.5 28.5t8 21t20 16t36.5 4.5q52 0 94 -15l-12 -115q-38 5 -57 5q-18 0 -29 -3.5t-15 -11t-5 -12.5t-2 -15q2 -14 2 -28q0 -87 -68.5 -127t-204.5 -40q-20 0 -49 3q-42 -19 -42 -46q0 -31 52 -31h161q244 0 244 -158 q0 -196 -409 -196q-306 0 -306 133q0 27 9 48t28 35.5t31.5 21.5t35.5 17v8q-75 18 -75 72q0 70 132 113l-1 8q-60 16 -94.5 54t-34.5 91zM402 -23h-84q-15 -2 -28.5 -11.5t-13.5 -23.5q0 -37 82 -37q87 0 87 42q0 30 -43 30zM300 374q0 -24 10 -43t32 -19q21 0 33.5 16.5 t12.5 46.5q0 61 -43 61q-21 0 -33 -17t-12 -45z" unicode="g" horiz-adv-x="745" glyph-name="g"/>
<glyph d="M45 0v770h266v-197l-4 -101l8 -1q74 89 172 89q104 0 151.5 -59t47.5 -184v-317h-269v287q0 41 -9.5 55.5t-35.5 14.5q-40 0 -61 -46v-311h-266z" unicode="h" horiz-adv-x="721" glyph-name="h"/>
<glyph d="M33 0v546h269v-546h-269zM29 761q0 57 37.5 92.5t100.5 35.5t101.5 -35.5t38.5 -92.5q0 -58 -38.5 -92.5t-101.5 -34.5t-100.5 34.5t-37.5 92.5z" unicode="i" horiz-adv-x="336" glyph-name="i"/>
<glyph d="M31 361v185h335v-580q0 -102 -64 -149t-201 -47q-46 0 -87 11l-14 195q17 -5 45 -5q30 0 42 15t12 52v323h-68zM93 761q0 57 37.5 92.5t100.5 35.5t101.5 -35.5t38.5 -92.5q0 -58 -38.5 -92.5t-101.5 -34.5t-100.5 34.5t-37.5 92.5z" unicode="j" horiz-adv-x="416" glyph-name="j"/>
<glyph d="M45 0v770h266v-378h15q12 14 25.5 36.5t35.5 63.5t29 54h271q-11 -25 -35.5 -65t-61.5 -96.5t-45 -69.5l77 -94q26 -33 55 -33q28 0 37 1v-184q-56 -19 -108 -19q-57 0 -100.5 21t-90.5 77q-32 38 -87 110h-17v-194h-266z" unicode="k" horiz-adv-x="729" glyph-name="k"/>
<glyph d="M45 0v770h266v-770h-266z" unicode="l" horiz-adv-x="356" glyph-name="l"/>
<glyph d="M45 0v546h240l19 -74l9 -1q74 89 183 89q123 0 166 -92l9 -2q73 94 191 94q90 0 140 -53t50 -162v-345h-269v294q0 63 -43 63q-44 0 -58 -48v-309h-267v294q0 63 -42 63q-45 0 -59 -48v-309h-269z" unicode="m" horiz-adv-x="1087" glyph-name="m"/>
<glyph d="M45 0v546h240l19 -74l9 -1q74 89 188 89q188 0 188 -215v-345h-269v299q0 58 -41 58q-48 0 -65 -48v-309h-269z" unicode="n" horiz-adv-x="724" glyph-name="n"/>
<glyph d="M358 168q58 0 58 102q0 107 -58 107q-28 0 -43 -23.5t-15 -82.5q0 -103 58 -103zM359 -14q-334 0 -334 288q0 140 85 213t248 73q331 0 331 -290q0 -284 -330 -284z" unicode="o" horiz-adv-x="714" glyph-name="o"/>
<glyph d="M464 560q104 0 168.5 -77t64.5 -198q0 -154 -79.5 -226.5t-205.5 -72.5q-60 0 -107 21v-237h-260v776h225l26 -63l7 -1q32 40 69 59t92 19zM363 378q-17 0 -33 -11t-25 -30v-152q22 -17 49 -17q70 0 70 108q0 46 -16 74t-45 28z" unicode="p" horiz-adv-x="717" glyph-name="p"/>
<glyph d="M682 -230h-269v197l4 87l-6 2q-63 -70 -154 -70q-105 0 -171 75.5t-66 193.5q0 150 75.5 227.5t238.5 77.5q131 0 225 -49l50 35h73v-776zM354 168q39 0 59 41v152q-23 16 -49 16q-71 0 -71 -103q0 -106 61 -106z" unicode="q" horiz-adv-x="727" glyph-name="q"/>
<glyph d="M314 0h-269v546h226l25 -111l9 -1q108 126 185 126q21 0 45 -9.5t34 -26.5l-63 -229q-21 12 -48 12q-50 0 -144 -100v-207z" unicode="r" horiz-adv-x="569" glyph-name="r"/>
<glyph d="M564 177q0 -67 -46.5 -111.5t-112 -62t-145.5 -17.5q-63 0 -134.5 13.5t-105.5 33.5l28 164q124 -42 226 -42q43 0 43 13q0 11 -30 16.5t-72.5 13t-84.5 22.5t-72 53.5t-30 97.5q0 189 298 189q133 0 218 -34l-34 -161q-82 29 -176 29q-44 0 -44 -11q0 -9 20.5 -14.5 t50.5 -9t66 -15t66 -28.5t50.5 -53t20.5 -86z" unicode="s" horiz-adv-x="584" glyph-name="s"/>
<glyph d="M0 374v172h90l50 160h210v-160h165l-13 -172h-150v-109q0 -21 2.5 -33.5t13 -23t30.5 -10.5q49 0 102 23l35 -196q-136 -39 -242 -39q-107 0 -157.5 55t-50.5 180v153h-85z" unicode="t" horiz-adv-x="545" glyph-name="t"/>
<glyph d="M679 546v-546h-228l-26 63l-8 1q-35 -36 -86 -57t-104 -21q-82 0 -137 51t-55 153v356h269v-314q0 -63 43 -63q41 0 63 38v339h269z" unicode="u" horiz-adv-x="724" glyph-name="u"/>
<glyph d="M488 0h-253q-143 300 -235 546h273l85 -247h9q20 55 83 247h273q-40 -109 -99 -245.5t-98 -218.5z" unicode="v" horiz-adv-x="723" glyph-name="v"/>
<glyph d="M803 0h-242q-41 102 -69 169h-6q-50 -97 -85 -169h-216q-108 310 -185 546h263q44 -158 82 -275h9q24 38 52 86q-13 34 -39 35v154q58 7 98 7q62 0 93.5 -17t44.5 -62l60 -195h8q43 138 65 267h235q-59 -226 -168 -546z" unicode="w" horiz-adv-x="971" glyph-name="w"/>
<glyph d="M723 546q-77 -147 -144 -256q32 -57 48 -73q28 -30 79 -33v-184q-54 -7 -108 -7q-59 0 -94 15.5t-68 56.5q-27 34 -66 91h-7q-35 -63 -79 -156h-279q88 147 162 262q-13 18 -56 76q-25 33 -71 35v173q52 6 101 6q69 0 107 -14.5t67 -57.5q28 -41 53 -82h7q26 49 71 148 h277z" unicode="x" horiz-adv-x="738" glyph-name="x"/>
<glyph d="M436 -230h-299q46 85 111 230h-64q-30 96 -124 337q-8 21 -19.5 28t-30.5 8v173q46 7 96 7q79 0 120 -19.5t65 -87.5l71 -195h7q60 168 96 295h281q-131 -379 -310 -776z" unicode="y" horiz-adv-x="746" glyph-name="y"/>
<glyph d="M601 176v-176h-581v104q126 161 216 262l-2 8h-202v172h539l25 -106q-137 -150 -224 -258l3 -6h226z" unicode="z" horiz-adv-x="621" glyph-name="z"/>
<glyph d="M110 71v125q0 35 -19 49t-66 18v139q47 4 66 18t19 49v126q0 169 175 169h190v-194h-36q-43 0 -60 -11t-17 -48v-57q0 -43 -25.5 -75.5t-62.5 -43.5v-5q37 -11 62.5 -43.5t25.5 -75.5v-55q0 -37 17 -48.5t60 -11.5h36v-194h-190q-175 0 -175 169z" unicode="{" horiz-adv-x="530" glyph-name="braceleft"/>
<glyph d="M340 -150h-233v1050h233v-1050z" unicode="|" horiz-adv-x="447" glyph-name="bar"/>
<glyph d="M420 196v-125q0 -169 -175 -169h-190v194h36q43 0 60 11.5t17 48.5v55q0 43 25.5 75.5t62.5 43.5v5q-37 11 -62.5 43.5t-25.5 75.5v57q0 37 -17 48t-60 11h-36v194h190q175 0 175 -169v-126q0 -35 19 -49t66 -18v-139q-47 -4 -66 -18t-19 -49z" unicode="}" horiz-adv-x="530" glyph-name="braceright"/>
<glyph d="M587 385q-1 -105 -40.5 -148.5t-91.5 -43.5q-40 0 -116 12t-94 12q-13 0 -20.5 -7t-8.5 -28h-153q0 58 13.5 99t36 59.5t43.5 26t46 7.5q29 0 104.5 -12t102.5 -12q25 0 25 35h153z" unicode="~" horiz-adv-x="650" glyph-name="asciitilde"/>
<glyph unicode=" " horiz-adv-x="260" glyph-name="uni00A0"/>
<glyph d="M77 -218l28 497h228l35 -473zM75 436q0 60 39 92t103 32q67 0 107.5 -30.5t40.5 -93.5q0 -59 -41 -91t-107 -32q-64 0 -103 32t-39 91z" unicode="¡" horiz-adv-x="443" glyph-name="exclamdown"/>
<glyph d="M249 -74l15 137q-202 61 -202 300q0 290 278 330l17 135l206 -13l-15 -126q65 -12 133 -46l-48 -198q-76 39 -156 39q-55 0 -80 -32t-25 -81q0 -61 26 -87t80 -26q84 0 165 33l45 -197q-80 -41 -218 -50l-13 -130z" unicode="¢" glyph-name="cent"/>
<glyph d="M610 333v-123h-184q-9 -25 -28 -44h291v-166h-628v125q93 25 103 85h-103v123h95l-4 31h-91v124h82q4 69 31 118.5t71.5 76.5t95 39t110.5 12q111 0 215 -33l-40 -186q-67 24 -128 24q-35 0 -53 -12t-24 -39h189v-124h-184l4 -31h180z" unicode="£" glyph-name="sterling"/>
<glyph d="M375 101q-74 0 -128 27l-64 -62l-122 113l75 75q-15 42 -15 93q0 49 17 97l-77 75l120 115l67 -64q56 29 127 29q72 0 128 -28l64 63l122 -113l-76 -75q16 -45 16 -93q0 -51 -18 -97l78 -75l-120 -115l-67 64q-53 -29 -127 -29zM379 257q40 0 63.5 26.5t23.5 71.5 q0 43 -27 65.5t-68 22.5q-40 0 -63.5 -26.5t-23.5 -71.5q0 -43 27 -65.5t68 -22.5z" unicode="¤" glyph-name="currency"/>
<glyph d="M235 0v83h-137v122h137v32h-137v123h111l-69 113q-24 39 -64 39v208q46 7 75 7q26 0 42 -2t38 -11t41 -30t37 -55l51 -100h7q42 86 88 191h249q-103 -204 -192 -360h114v-123h-127v-32h127v-122h-127v-83h-264z" unicode="¥" glyph-name="yen"/>
<glyph d="M340 503h-233v397h233v-397zM340 -150h-233v400h233v-400z" unicode="¦" horiz-adv-x="447" glyph-name="brokenbar"/>
<glyph d="M331 -164q-154 0 -306 62l38 190q57 -25 134.5 -41.5t127.5 -16.5q43 0 43 20q0 13 -36 26t-87 28.5t-102 37t-87 60.5t-36 89q0 114 120 159q-58 46 -58 113q0 88 83.5 144.5t217.5 56.5q154 0 306 -62l-38 -190q-57 25 -134.5 41.5t-127.5 16.5q-43 0 -43 -20 q0 -13 36 -26t87 -28.5t102 -37t87 -60.5t36 -89q0 -113 -121 -160q59 -46 59 -112q0 -88 -83.5 -144.5t-217.5 -56.5zM422 294q0 32 -71 61q-59 -10 -59 -49q0 -32 70 -61q60 10 60 49z" unicode="§" horiz-adv-x="719" glyph-name="section"/>
<glyph d="M134 649q-56 0 -89.5 32t-33.5 85t33.5 85.5t89.5 32.5t89.5 -32.5t33.5 -85.5t-33.5 -85t-89.5 -32zM466 649q-56 0 -89.5 32t-33.5 85t33.5 85.5t89.5 32.5t89.5 -32.5t33.5 -85.5t-33.5 -85t-89.5 -32z" unicode="¨" horiz-adv-x="600" glyph-name="dieresis"/>
<glyph d="M415 -14q-165 0 -277.5 107.5t-112.5 283.5q0 174 112.5 280.5t277.5 106.5t277.5 -107.5t112.5 -283.5q0 -174 -112.5 -280.5t-277.5 -106.5zM415 37q143 0 238.5 92t95.5 247t-95.5 247t-238.5 92t-238.5 -92.5t-95.5 -246.5t95.5 -246.5t238.5 -92.5zM436 156 q-102 0 -173.5 55.5t-71.5 167.5q0 116 68 173t174 57q77 0 144 -32l-18 -123q-46 22 -96 22q-47 0 -69 -27t-22 -69q0 -89 95 -89q50 0 101 19l11 -125q-71 -29 -143 -29z" unicode="©" horiz-adv-x="830" glyph-name="copyright"/>
<glyph d="M439 490l8 -93q-59 -21 -123 -21q-37 0 -54 9.5t-24 34.5l-4 1q-49 -45 -114 -45q-41 0 -74.5 26.5t-33.5 69.5q0 34 19 52t59 28q19 5 46 10.5t56.5 11.5t39.5 8v5q0 30 -39 30q-61 0 -135 -28l-29 93q43 22 94.5 33t86.5 11q27 0 46.5 -1.5t48.5 -9.5t47.5 -22 t32 -41.5t13.5 -66.5v-81q0 -15 15 -15q8 0 18 1zM189 493q0 -7 7.5 -15.5t18.5 -8.5q15 0 25 15v38l-38 -11q-13 -5 -13 -18z" unicode="ª" horiz-adv-x="467" glyph-name="ordfeminine"/>
<glyph d="M35 252v86l307 264v-220l-103 -88l103 -88v-220zM365 252v86l307 264v-220l-103 -88l103 -88v-220z" unicode="«" horiz-adv-x="752" glyph-name="guillemotleft"/>
<glyph d="M428 150v188h-378v171h550v-359h-172z" unicode="¬" horiz-adv-x="650" glyph-name="logicalnot"/>
<glyph d="M20 207v159l420 25v-159z" unicode="­" horiz-adv-x="460" glyph-name="uni00AD"/>
<glyph d="M253 351q-92 0 -152.5 61t-60.5 148q0 89 60 146.5t153 57.5q92 0 152.5 -58t60.5 -146q0 -87 -61 -148t-152 -61zM255 398q71 0 116 46t45 118q0 70 -45 111t-117 41q-73 0 -117.5 -41t-44.5 -111q0 -72 45.5 -118t117.5 -46zM348 475q-14 -4 -34 -4q-23 0 -35.5 12 t-33.5 49h-9v-57h-67v191h86q37 0 60.5 -15.5t23.5 -47.5q0 -36 -30 -55l15 -20q8 -10 24 -10v-43zM236 612v-34h14q24 0 24 18q0 16 -22 16h-16z" unicode="®" horiz-adv-x="506" glyph-name="registered"/>
<glyph d="M503 822v-158h-406v158h406z" unicode="¯" horiz-adv-x="600" glyph-name="macron"/>
<glyph d="M356 582q0 -71 -45 -113.5t-114 -42.5q-63 0 -108 44t-45 108q0 65 45.5 110.5t110.5 45.5q67 0 111.5 -42t44.5 -110zM263 580q0 32 -17.5 50t-45.5 18q-29 0 -45.5 -20t-16.5 -50t17.5 -47.5t44.5 -17.5q28 0 45.5 19.5t17.5 47.5z" unicode="°" horiz-adv-x="400" glyph-name="degree"/>
<glyph d="M410 233h-170v142h-190v171h190v174h170v-174h190v-171h-190v-142zM600 0h-550v171h550v-171z" unicode="±" horiz-adv-x="650" glyph-name="plusminus"/>
<glyph d="M36 382l-16 83q176 77 176 128q0 22 -31 22q-23 0 -58 -9.5t-54 -19.5l-33 101q78 39 180 39q45 0 81 -8.5t64 -35t28 -69.5q0 -40 -22.5 -67t-63.5 -53l1 -3h98v-108h-350z" unicode="²" horiz-adv-x="420" glyph-name="twosuperior"/>
<glyph d="M193 376q-100 0 -171 38l38 97q56 -32 112 -32q48 0 48 18q0 21 -93 21v58q78 15 78 34q0 12 -33 12q-54 0 -97 -25l-42 85q77 44 178 44q79 0 124 -23.5t45 -64.5q0 -27 -17.5 -46t-48.5 -26v-4q36 -8 56 -25t20 -51q0 -54 -57.5 -82t-139.5 -28z" unicode="³" horiz-adv-x="420" glyph-name="threesuperior"/>
<glyph d="M235 623l-101 50l158 293l173 -103z" unicode="´" horiz-adv-x="600" glyph-name="acute"/>
<glyph d="M753 197l40 -125q-103 -86 -214 -86q-46 0 -85 20.5t-53 55.5l-9 2q-12 -31 -42 -54.5t-68 -23.5q-14 0 -26 4q6 -92 28 -176l-242 -44q-37 150 -37 437v339h269v-326q0 -26 12 -38.5t31 -12.5t37.5 11t25.5 28v338h269v-321q0 -27 4.5 -36t17.5 -9q15 0 42 17z" unicode="µ" horiz-adv-x="793" glyph-name="mu"/>
<glyph d="M698 -150v696h-66v-696h-273v346q-156 0 -247.5 68.5t-91.5 208.5q0 277 338 277h708v-204h-95v-696h-273zM359 400v146q-43 -1 -61 -18.5t-18 -51.5q0 -75 79 -76z" unicode="¶" horiz-adv-x="1091" glyph-name="paragraph"/>
<glyph d="M35 332q0 56 36 90t96 34t97 -34t37 -90q0 -55 -37 -88t-97 -33t-96 33t-36 88z" unicode="·" horiz-adv-x="336" glyph-name="periodcentered"/>
<glyph d="M273 0h152l-60 -48q77 -19 77 -86q0 -53 -44 -79t-109 -26q-75 0 -131 29l22 63q43 -19 79 -19q32 0 32 21t-60 21h-30l-19 41z" unicode="¸" horiz-adv-x="600" glyph-name="cedilla"/>
<glyph d="M39 382v103h94v116l-94 -4v88q65 5 195 38h62v-238h94v-103h-351z" unicode="¹" horiz-adv-x="420" glyph-name="onesuperior"/>
<glyph d="M211 488q33 0 33 61q0 67 -33 67q-34 0 -34 -66q0 -62 34 -62zM212 376q-192 0 -192 176q0 174 192 174q189 0 189 -177q0 -173 -189 -173z" unicode="º" horiz-adv-x="421" glyph-name="ordmasculine"/>
<glyph d="M717 252l-307 -266v220l103 88l-103 88v220l307 -264v-86zM387 252l-307 -266v220l103 88l-103 88v220l307 -264v-86z" unicode="»" horiz-adv-x="752" glyph-name="guillemotright"/>
<glyph d="M39 382v103h94v116l-94 -4v88q65 5 195 38h62v-238h94v-103h-351zM493 -14l-179 110l394 638l182 -107zM924 344l130 -7v-192h27l-8 -96h-19v-49h-146v49h-191v74q44 47 116.5 124t90.5 97zM907 183l-36 -35l2 -3h38v37z" unicode="¼" horiz-adv-x="1112" glyph-name="onequarter"/>
<glyph d="M39 382v103h94v116l-94 -4v88q65 5 195 38h62v-238h94v-103h-351zM446 -14l-179 110l394 638l182 -107zM733 0l-16 83q176 77 176 128q0 22 -31 22q-23 0 -58 -9.5t-54 -19.5l-33 101q78 39 180 39q45 0 81 -8.5t64 -35t28 -69.5q0 -40 -22.5 -67t-63.5 -53l1 -3h98v-108 h-350z" unicode="½" horiz-adv-x="1117" glyph-name="onehalf"/>
<glyph d="M193 376q-100 0 -171 38l38 97q56 -32 112 -32q48 0 48 18q0 21 -93 21v58q78 15 78 34q0 12 -33 12q-54 0 -97 -25l-42 85q77 44 178 44q79 0 124 -23.5t45 -64.5q0 -27 -17.5 -46t-48.5 -26v-4q36 -8 56 -25t20 -51q0 -54 -57.5 -82t-139.5 -28zM475 -14l-179 110 l394 638l182 -107zM926 344l130 -7v-192h27l-8 -96h-19v-49h-146v49h-191v74q44 47 116.5 124t90.5 97zM909 183l-36 -35l2 -3h38v37z" unicode="¾" horiz-adv-x="1114" glyph-name="threequarters"/>
<glyph d="M427 305q21 -40 21 -85q0 -34 -21.5 -63t-48 -45.5t-48 -34.5t-21.5 -32q0 -25 41 -25q28 0 66.5 12.5t64.5 27.5l66 -187q-45 -28 -116.5 -47.5t-141.5 -19.5q-125 0 -194.5 48t-69.5 149q0 41 25.5 81.5t55.5 67t55.5 54t25.5 44.5q0 31 -11 55h251zM160 460 q0 60 39 92t103 32q67 0 107.5 -30.5t40.5 -93.5q0 -59 -41 -91t-107 -32q-64 0 -103 32t-39 91z" unicode="¿" horiz-adv-x="572" glyph-name="questiondown"/>
<glyph d="M603 0q-9 27 -47 139h-222l-45 -139h-284q122 314 307 750h267q38 -85 148 -347t163 -403h-287zM449 444h-7q-16 -40 -44 -119h94q-33 94 -43 119zM578 825l-324 102l99 176l288 -184z" unicode="À" horiz-adv-x="895" glyph-name="Agrave"/>
<glyph d="M603 0q-9 27 -47 139h-222l-45 -139h-284q122 314 307 750h267q38 -85 148 -347t163 -403h-287zM449 444h-7q-16 -40 -44 -119h94q-33 94 -43 119zM317 825l-63 94l288 184l99 -176z" unicode="Á" horiz-adv-x="895" glyph-name="Aacute"/>
<glyph d="M603 0q-9 27 -47 139h-222l-45 -139h-284q122 314 307 750h267q38 -85 148 -347t163 -403h-287zM449 444h-7q-16 -40 -44 -119h94q-33 94 -43 119zM337 1087h221l189 -159l-75 -103l-224 102l-226 -102l-75 103z" unicode="Â" horiz-adv-x="895" glyph-name="Acircumflex"/>
<glyph d="M603 0q-9 27 -47 139h-222l-45 -139h-284q122 314 307 750h267q38 -85 148 -347t163 -403h-287zM449 444h-7q-16 -40 -44 -119h94q-33 94 -43 119zM689 1018q-1 -105 -40.5 -148.5t-91.5 -43.5q-40 0 -95.5 12t-73.5 12q-13 0 -20.5 -7t-8.5 -28h-153q0 58 13.5 99 t36 59.5t43.5 26t46 7.5q29 0 84 -12t82 -12q25 0 25 35h153z" unicode="Ã" horiz-adv-x="895" glyph-name="Atilde"/>
<glyph d="M603 0q-9 27 -47 139h-222l-45 -139h-284q122 314 307 750h267q38 -85 148 -347t163 -403h-287zM449 444h-7q-16 -40 -44 -119h94q-33 94 -43 119zM281 804q-56 0 -89.5 32t-33.5 85t33.5 85.5t89.5 32.5t89.5 -32.5t33.5 -85.5t-33.5 -85t-89.5 -32zM613 804 q-56 0 -89.5 32t-33.5 85t33.5 85.5t89.5 32.5t89.5 -32.5t33.5 -85.5t-33.5 -85t-89.5 -32z" unicode="Ä" horiz-adv-x="895" glyph-name="Adieresis"/>
<glyph d="M603 0q-9 27 -47 139h-222l-45 -139h-284q122 314 307 750h267q38 -85 148 -347t163 -403h-287zM449 444h-7q-16 -40 -44 -119h94q-33 94 -43 119zM275 945q0 72 47.5 118t121.5 46t122 -46t48 -118t-48 -118t-122 -46t-121.5 46t-47.5 118zM372 945q0 -31 20.5 -51.5 t51.5 -20.5t51.5 20.5t20.5 51.5t-20.5 51.5t-51.5 20.5t-51.5 -20.5t-20.5 -51.5z" unicode="Å" horiz-adv-x="895" glyph-name="Aring"/>
<glyph d="M552 0v89h-199l-60 -89h-313q444 609 562 750h533v-202h-244v-82h178l-23 -174h-155v-89h246v-203h-525zM548 381l-71 -106h75v104z" unicode="Æ" horiz-adv-x="1102" glyph-name="AE"/>
<glyph d="M690 37q-95 -42 -211 -50l-44 -35q77 -19 77 -86q0 -53 -44 -79t-109 -26q-75 0 -131 29l22 63q43 -19 79 -19q32 0 32 21t-60 21h-30l-19 41l85 78q-140 24 -228.5 115.5t-88.5 255.5q0 85 21.5 153t58.5 113.5t90 75.5t113.5 43t130.5 13q156 0 250 -51l-47 -199 q-77 34 -156 34q-167 0 -167 -175q0 -83 48.5 -126t128.5 -43q91 0 168 34z" unicode="Ç" horiz-adv-x="710" glyph-name="Ccedilla"/>
<glyph d="M50 0v750h523v-202h-244v-82h178l-23 -174h-155v-89h246v-203h-525zM430 825l-324 102l99 176l288 -184z" unicode="È" horiz-adv-x="600" glyph-name="Egrave"/>
<glyph d="M50 0v750h523v-202h-244v-82h178l-23 -174h-155v-89h246v-203h-525zM169 825l-63 94l288 184l99 -176z" unicode="É" horiz-adv-x="600" glyph-name="Eacute"/>
<glyph d="M50 0v750h523v-202h-244v-82h178l-23 -174h-155v-89h246v-203h-525zM190 1087h221l189 -159l-75 -103l-224 102l-226 -102l-75 103z" unicode="Ê" horiz-adv-x="600" glyph-name="Ecircumflex"/>
<glyph d="M50 0v750h523v-202h-244v-82h178l-23 -174h-155v-89h246v-203h-525zM134 804q-56 0 -89.5 32t-33.5 85t33.5 85.5t89.5 32.5t89.5 -32.5t33.5 -85.5t-33.5 -85t-89.5 -32zM466 804q-56 0 -89.5 32t-33.5 85t33.5 85.5t89.5 32.5t89.5 -32.5t33.5 -85.5t-33.5 -85 t-89.5 -32z" unicode="Ë" horiz-adv-x="600" glyph-name="Edieresis"/>
<glyph d="M50 0v750h278v-750h-278zM320 825l-324 102l99 176l288 -184z" unicode="Ì" horiz-adv-x="378" glyph-name="Igrave"/>
<glyph d="M50 0v750h278v-750h-278zM59 825l-63 94l288 184l99 -176z" unicode="Í" horiz-adv-x="378" glyph-name="Iacute"/>
<glyph d="M50 0v750h278v-750h-278zM79 1087h221l189 -159l-75 -103l-224 102l-226 -102l-75 103z" unicode="Î" horiz-adv-x="378" glyph-name="Icircumflex"/>
<glyph d="M50 0v750h278v-750h-278zM23 804q-56 0 -89.5 32t-33.5 85t33.5 85.5t89.5 32.5t89.5 -32.5t33.5 -85.5t-33.5 -85t-89.5 -32zM355 804q-56 0 -89.5 32t-33.5 85t33.5 85.5t89.5 32.5t89.5 -32.5t33.5 -85.5t-33.5 -85t-89.5 -32z" unicode="Ï" horiz-adv-x="378" glyph-name="Idieresis"/>
<glyph d="M0 280v181h59v289h368q185 0 285 -94t100 -284q0 -195 -104.5 -283.5t-281.5 -88.5h-367v280h-59zM337 547v-86h81v-181h-81v-78h48q130 0 130 176q0 53 -10.5 88.5t-30.5 52t-40.5 22.5t-49.5 6h-47z" unicode="Ð" horiz-adv-x="837" glyph-name="Eth"/>
<glyph d="M830 0l-181 -14q-61 73 -118.5 139t-88 99.5t-69 76t-46.5 51.5l-8 -1v-351h-269v750h238q135 -135 263 -290l8 2v288h271v-750zM681 1018q-1 -105 -40.5 -148.5t-91.5 -43.5q-40 0 -95.5 12t-73.5 12q-13 0 -20.5 -7t-8.5 -28h-153q0 58 13.5 99t36 59.5t43.5 26t46 7.5 q29 0 84 -12t82 -12q25 0 25 35h153z" unicode="Ñ" horiz-adv-x="880" glyph-name="Ntilde"/>
<glyph d="M432 -14q-189 0 -298 95.5t-109 291.5q0 391 406 391q200 0 303.5 -96t103.5 -288q0 -203 -108.5 -298.5t-297.5 -95.5zM431 182q62 0 90.5 46.5t28.5 145.5q0 110 -29 153.5t-89 43.5q-63 0 -91 -45t-28 -154q0 -99 28.5 -144.5t89.5 -45.5zM562 825l-324 102l99 176 l288 -184z" unicode="Ò" horiz-adv-x="863" glyph-name="Ograve"/>
<glyph d="M432 -14q-189 0 -298 95.5t-109 291.5q0 391 406 391q200 0 303.5 -96t103.5 -288q0 -203 -108.5 -298.5t-297.5 -95.5zM431 182q62 0 90.5 46.5t28.5 145.5q0 110 -29 153.5t-89 43.5q-63 0 -91 -45t-28 -154q0 -99 28.5 -144.5t89.5 -45.5zM301 825l-63 94l288 184 l99 -176z" unicode="Ó" horiz-adv-x="863" glyph-name="Oacute"/>
<glyph d="M432 -14q-189 0 -298 95.5t-109 291.5q0 391 406 391q200 0 303.5 -96t103.5 -288q0 -203 -108.5 -298.5t-297.5 -95.5zM431 182q62 0 90.5 46.5t28.5 145.5q0 110 -29 153.5t-89 43.5q-63 0 -91 -45t-28 -154q0 -99 28.5 -144.5t89.5 -45.5zM321 1087h221l189 -159 l-75 -103l-224 102l-226 -102l-75 103z" unicode="Ô" horiz-adv-x="863" glyph-name="Ocircumflex"/>
<glyph d="M432 -14q-189 0 -298 95.5t-109 291.5q0 391 406 391q200 0 303.5 -96t103.5 -288q0 -203 -108.5 -298.5t-297.5 -95.5zM431 182q62 0 90.5 46.5t28.5 145.5q0 110 -29 153.5t-89 43.5q-63 0 -91 -45t-28 -154q0 -99 28.5 -144.5t89.5 -45.5zM673 1018 q-1 -105 -40.5 -148.5t-91.5 -43.5q-40 0 -95.5 12t-73.5 12q-13 0 -20.5 -7t-8.5 -28h-153q0 58 13.5 99t36 59.5t43.5 26t46 7.5q29 0 84 -12t82 -12q25 0 25 35h153z" unicode="Õ" horiz-adv-x="863" glyph-name="Otilde"/>
<glyph d="M432 -14q-189 0 -298 95.5t-109 291.5q0 391 406 391q200 0 303.5 -96t103.5 -288q0 -203 -108.5 -298.5t-297.5 -95.5zM431 182q62 0 90.5 46.5t28.5 145.5q0 110 -29 153.5t-89 43.5q-63 0 -91 -45t-28 -154q0 -99 28.5 -144.5t89.5 -45.5zM265 804q-56 0 -89.5 32 t-33.5 85t33.5 85.5t89.5 32.5t89.5 -32.5t33.5 -85.5t-33.5 -85t-89.5 -32zM597 804q-56 0 -89.5 32t-33.5 85t33.5 85.5t89.5 32.5t89.5 -32.5t33.5 -85.5t-33.5 -85t-89.5 -32z" unicode="Ö" horiz-adv-x="863" glyph-name="Odieresis"/>
<glyph d="M71 150l133 134l-132 133l120 120l133 -133l133 133l120 -120l-133 -133l134 -134l-121 -120l-133 133l-134 -133z" unicode="×" horiz-adv-x="650" glyph-name="multiply"/>
<glyph d="M432 -14q-118 0 -205 37l-37 -51h-76l58 80q-147 97 -147 321q0 391 406 391q131 0 223 -42l49 68h76l-72 -100q131 -94 131 -310q0 -203 -108.5 -298.5t-297.5 -95.5zM313 372q0 -65 12 -107l193 268q-27 38 -86 38q-63 0 -91 -45t-28 -154zM431 182q62 0 90.5 46.5 t28.5 145.5q0 54 -7 89l-184 -257q27 -24 72 -24z" unicode="Ø" horiz-adv-x="863" glyph-name="Oslash"/>
<glyph d="M418 -14q-192 0 -285 81t-93 278v405h279v-416q0 -77 24 -107t77 -30q50 0 75.5 28t25.5 109v416h279v-423q0 -181 -95 -261t-287 -80zM550 825l-324 102l99 176l288 -184z" unicode="Ù" horiz-adv-x="840" glyph-name="Ugrave"/>
<glyph d="M418 -14q-192 0 -285 81t-93 278v405h279v-416q0 -77 24 -107t77 -30q50 0 75.5 28t25.5 109v416h279v-423q0 -181 -95 -261t-287 -80zM289 825l-63 94l288 184l99 -176z" unicode="Ú" horiz-adv-x="840" glyph-name="Uacute"/>
<glyph d="M418 -14q-192 0 -285 81t-93 278v405h279v-416q0 -77 24 -107t77 -30q50 0 75.5 28t25.5 109v416h279v-423q0 -181 -95 -261t-287 -80zM310 1087h221l189 -159l-75 -103l-224 102l-226 -102l-75 103z" unicode="Û" horiz-adv-x="840" glyph-name="Ucircumflex"/>
<glyph d="M418 -14q-192 0 -285 81t-93 278v405h279v-416q0 -77 24 -107t77 -30q50 0 75.5 28t25.5 109v416h279v-423q0 -181 -95 -261t-287 -80zM254 804q-56 0 -89.5 32t-33.5 85t33.5 85.5t89.5 32.5t89.5 -32.5t33.5 -85.5t-33.5 -85t-89.5 -32zM586 804q-56 0 -89.5 32 t-33.5 85t33.5 85.5t89.5 32.5t89.5 -32.5t33.5 -85.5t-33.5 -85t-89.5 -32z" unicode="Ü" horiz-adv-x="840" glyph-name="Udieresis"/>
<glyph d="M247 0v289q-121 171 -154 211q-36 42 -78 42v208q44 5 111 5q60 0 103 -21t78 -76l74 -116h6q16 24 32 55t40 82.5t34 70.5h304q-117 -212 -272 -455v-295h-278zM282 825l-63 94l288 184l99 -176z" unicode="Ý" horiz-adv-x="797" glyph-name="Yacute"/>
<glyph d="M397 97q-46 0 -68 1v-98h-279v750h279v-98h106q155 0 230 -67t75 -191q0 -137 -92 -217t-251 -80zM329 450v-143q26 -2 42 -2q90 0 90 79q0 38 -22.5 52t-67.5 14h-42z" unicode="Þ" horiz-adv-x="755" glyph-name="Thorn"/>
<glyph d="M592 -13q-125 0 -212 46l29 163q82 -42 160 -42q43 0 43 16q0 9 -23 18t-56 20.5t-65.5 29t-55.5 50t-23 76.5q0 41 16.5 73.5t36 48.5t36 36.5t16.5 39.5q0 17 -16 26.5t-40 9.5q-46 0 -63.5 -25.5t-17.5 -75.5v-497h-266v374h-86v172h86v7q0 64 29 110.5t79.5 72 t108.5 37t126 11.5q43 0 83.5 -3t93 -14t90.5 -29.5t64.5 -53.5t26.5 -82q0 -33 -13.5 -60.5t-33 -44.5t-39.5 -31.5t-33.5 -28t-13.5 -27.5q0 -20 31.5 -40t68.5 -38t68.5 -60.5t31.5 -102.5q0 -92 -77.5 -137t-189.5 -45z" unicode="ß" horiz-adv-x="874" glyph-name="germandbls"/>
<glyph d="M700 170l12 -150q-118 -34 -199 -34q-57 0 -86 17.5t-40 59.5l-7 2q-85 -79 -184 -79q-66 0 -121 46t-55 116q0 54 31 83t96 46q41 11 131 29t99 20v8q0 23 -14 35.5t-50 12.5q-98 0 -218 -46l-47 151q66 35 150.5 54t143.5 19q29 0 52 -1t56 -6.5t58 -14t52.5 -26 t45 -41t29 -60t11.5 -81.5v-137q0 -14 5.5 -19.5t19.5 -5.5zM294 182q0 -13 12 -26.5t31 -13.5q23 0 40 24v62q-50 -14 -61 -18q-22 -7 -22 -28zM489 673l-101 -50l-230 240l173 103z" unicode="à" horiz-adv-x="717" glyph-name="agrave"/>
<glyph d="M700 170l12 -150q-118 -34 -199 -34q-57 0 -86 17.5t-40 59.5l-7 2q-85 -79 -184 -79q-66 0 -121 46t-55 116q0 54 31 83t96 46q41 11 131 29t99 20v8q0 23 -14 35.5t-50 12.5q-98 0 -218 -46l-47 151q66 35 150.5 54t143.5 19q29 0 52 -1t56 -6.5t58 -14t52.5 -26 t45 -41t29 -60t11.5 -81.5v-137q0 -14 5.5 -19.5t19.5 -5.5zM294 182q0 -13 12 -26.5t31 -13.5q23 0 40 24v62q-50 -14 -61 -18q-22 -7 -22 -28zM319 623l-101 50l158 293l173 -103z" unicode="á" horiz-adv-x="717" glyph-name="aacute"/>
<glyph d="M700 170l12 -150q-118 -34 -199 -34q-57 0 -86 17.5t-40 59.5l-7 2q-85 -79 -184 -79q-66 0 -121 46t-55 116q0 54 31 83t96 46q41 11 131 29t99 20v8q0 23 -14 35.5t-50 12.5q-98 0 -218 -46l-47 151q66 35 150.5 54t143.5 19q29 0 52 -1t56 -6.5t58 -14t52.5 -26 t45 -41t29 -60t11.5 -81.5v-137q0 -14 5.5 -19.5t19.5 -5.5zM294 182q0 -13 12 -26.5t31 -13.5q23 0 40 24v62q-50 -14 -61 -18q-22 -7 -22 -28zM463 945l150 -249l-135 -73l-126 162l-125 -162l-134 73l149 249h221z" unicode="â" horiz-adv-x="717" glyph-name="acircumflex"/>
<glyph d="M700 170l12 -150q-118 -34 -199 -34q-57 0 -86 17.5t-40 59.5l-7 2q-85 -79 -184 -79q-66 0 -121 46t-55 116q0 54 31 83t96 46q41 11 131 29t99 20v8q0 23 -14 35.5t-50 12.5q-98 0 -218 -46l-47 151q66 35 150.5 54t143.5 19q29 0 52 -1t56 -6.5t58 -14t52.5 -26 t45 -41t29 -60t11.5 -81.5v-137q0 -14 5.5 -19.5t19.5 -5.5zM294 182q0 -13 12 -26.5t31 -13.5q23 0 40 24v62q-50 -14 -61 -18q-22 -7 -22 -28zM595 852q-1 -105 -40.5 -148.5t-91.5 -43.5q-40 0 -95.5 12t-73.5 12q-13 0 -20.5 -7t-8.5 -28h-153q0 58 13.5 99t36 59.5 t43.5 26t46 7.5q29 0 84.5 -12t81.5 -12q25 0 25 35h153z" unicode="ã" horiz-adv-x="717" glyph-name="atilde"/>
<glyph d="M700 170l12 -150q-118 -34 -199 -34q-57 0 -86 17.5t-40 59.5l-7 2q-85 -79 -184 -79q-66 0 -121 46t-55 116q0 54 31 83t96 46q41 11 131 29t99 20v8q0 23 -14 35.5t-50 12.5q-98 0 -218 -46l-47 151q66 35 150.5 54t143.5 19q29 0 52 -1t56 -6.5t58 -14t52.5 -26 t45 -41t29 -60t11.5 -81.5v-137q0 -14 5.5 -19.5t19.5 -5.5zM294 182q0 -13 12 -26.5t31 -13.5q23 0 40 24v62q-50 -14 -61 -18q-22 -7 -22 -28zM187 649q-56 0 -89.5 32t-33.5 85t33.5 85.5t89.5 32.5t89.5 -32.5t33.5 -85.5t-33.5 -85t-89.5 -32zM519 649q-56 0 -89.5 32 t-33.5 85t33.5 85.5t89.5 32.5t89.5 -32.5t33.5 -85.5t-33.5 -85t-89.5 -32z" unicode="ä" horiz-adv-x="717" glyph-name="adieresis"/>
<glyph d="M700 170l12 -150q-118 -34 -199 -34q-57 0 -86 17.5t-40 59.5l-7 2q-85 -79 -184 -79q-66 0 -121 46t-55 116q0 54 31 83t96 46q41 11 131 29t99 20v8q0 23 -14 35.5t-50 12.5q-98 0 -218 -46l-47 151q66 35 150.5 54t143.5 19q29 0 52 -1t56 -6.5t58 -14t52.5 -26 t45 -41t29 -60t11.5 -81.5v-137q0 -14 5.5 -19.5t19.5 -5.5zM294 182q0 -13 12 -26.5t31 -13.5q23 0 40 24v62q-50 -14 -61 -18q-22 -7 -22 -28zM184 802q0 72 47.5 118t121.5 46t122 -46t48 -118t-48 -118t-122 -46t-121.5 46t-47.5 118zM281 802q0 -31 20.5 -51.5 t51.5 -20.5t51.5 20.5t20.5 51.5t-20.5 51.5t-51.5 20.5t-51.5 -20.5t-20.5 -51.5z" unicode="å" horiz-adv-x="717" glyph-name="aring"/>
<glyph d="M943 205l25 -168q-124 -51 -252 -51q-158 0 -246 80q-43 -38 -107.5 -59t-130.5 -21q-91 0 -151.5 41t-60.5 121q0 54 31 83t96 46q41 11 131 29t99 20v8q0 23 -14 35.5t-50 12.5q-98 0 -218 -46l-47 151q149 73 294 73q115 0 174 -37q74 37 171 37q60 0 109 -12.5 t92.5 -40.5t68 -81t24.5 -127q0 -41 -2 -52h-342v-9q0 -67 100 -67q92 0 206 34zM294 182q0 -13 12 -26.5t31 -13.5q23 0 40 24v62q-50 -14 -61 -18q-22 -7 -22 -28zM641 343h100q0 63 -47 63t-53 -63z" unicode="æ" horiz-adv-x="1001" glyph-name="ae"/>
<glyph d="M548 27q-50 -27 -152 -37l-47 -38q77 -19 77 -86q0 -53 -44 -79t-109 -26q-75 0 -131 29l22 63q43 -19 79 -19q32 0 32 21t-60 21h-30l-19 41l82 75q-107 17 -165 87t-58 187q0 49 7 89.5t27 79.5t52.5 65.5t86 43t124.5 16.5q56 0 116.5 -11.5t98.5 -29.5l-35 -188 q-66 30 -127 30q-38 0 -57.5 -19.5t-19.5 -65.5q0 -40 17.5 -63.5t71.5 -23.5q61 0 127 25z" unicode="ç" horiz-adv-x="558" glyph-name="ccedilla"/>
<glyph d="M604 205l25 -171q-127 -48 -276 -48q-47 0 -90 7t-87.5 26.5t-77 50t-53 80.5t-20.5 115q0 295 323 295q60 0 109 -12.5t92.5 -40.5t68 -81t24.5 -127q0 -30 -2 -52h-342v-9q0 -67 100 -67q92 0 206 34zM302 343h100q0 63 -47 63t-53 -63zM473 673l-101 -50l-230 240 l173 103z" unicode="è" horiz-adv-x="662" glyph-name="egrave"/>
<glyph d="M604 205l25 -171q-127 -48 -276 -48q-47 0 -90 7t-87.5 26.5t-77 50t-53 80.5t-20.5 115q0 295 323 295q60 0 109 -12.5t92.5 -40.5t68 -81t24.5 -127q0 -30 -2 -52h-342v-9q0 -67 100 -67q92 0 206 34zM302 343h100q0 63 -47 63t-53 -63zM299 623l-101 50l158 293 l173 -103z" unicode="é" horiz-adv-x="662" glyph-name="eacute"/>
<glyph d="M604 205l25 -171q-127 -48 -276 -48q-47 0 -90 7t-87.5 26.5t-77 50t-53 80.5t-20.5 115q0 295 323 295q60 0 109 -12.5t92.5 -40.5t68 -81t24.5 -127q0 -30 -2 -52h-342v-9q0 -67 100 -67q92 0 206 34zM302 343h100q0 63 -47 63t-53 -63zM463 945l150 -249l-135 -73 l-126 162l-125 -162l-134 73l149 249h221z" unicode="ê" horiz-adv-x="662" glyph-name="ecircumflex"/>
<glyph d="M604 205l25 -171q-127 -48 -276 -48q-47 0 -90 7t-87.5 26.5t-77 50t-53 80.5t-20.5 115q0 295 323 295q60 0 109 -12.5t92.5 -40.5t68 -81t24.5 -127q0 -30 -2 -52h-342v-9q0 -67 100 -67q92 0 206 34zM302 343h100q0 63 -47 63t-53 -63zM187 649q-56 0 -89.5 32 t-33.5 85t33.5 85.5t89.5 32.5t89.5 -32.5t33.5 -85.5t-33.5 -85t-89.5 -32zM519 649q-56 0 -89.5 32t-33.5 85t33.5 85.5t89.5 32.5t89.5 -32.5t33.5 -85.5t-33.5 -85t-89.5 -32z" unicode="ë" horiz-adv-x="662" glyph-name="edieresis"/>
<glyph d="M45 0v546h269v-546h-269zM311 673l-101 -50l-230 240l173 103z" unicode="ì" horiz-adv-x="359" glyph-name="igrave"/>
<glyph d="M45 0v546h269v-546h-269zM175 623l-101 50l158 293l173 -103z" unicode="í" horiz-adv-x="359" glyph-name="iacute"/>
<glyph d="M45 0v546h269v-546h-269zM290 945l150 -249l-135 -73l-126 162l-125 -162l-134 73l149 249h221z" unicode="î" horiz-adv-x="359" glyph-name="icircumflex"/>
<glyph d="M45 0v546h269v-546h-269zM14 649q-56 0 -89.5 32t-33.5 85t33.5 85.5t89.5 32.5t89.5 -32.5t33.5 -85.5t-33.5 -85t-89.5 -32zM346 649q-56 0 -89.5 32t-33.5 85t33.5 85.5t89.5 32.5t89.5 -32.5t33.5 -85.5t-33.5 -85t-89.5 -32z" unicode="ï" horiz-adv-x="359" glyph-name="idieresis"/>
<glyph d="M154 443v119l36 13q-16 7 -84 30l71 179q158 -36 269 -118l151 54v-126l-56 -19q92 -117 92 -276q0 -153 -88.5 -233t-248.5 -80q-69 0 -129.5 22.5t-103.5 76.5t-43 130q0 124 74 176.5t208 52.5q19 0 46 -5l6 4q-14 34 -34 56zM384 274v18q-30 4 -48 4q-73 0 -73 -71 q0 -28 14.5 -45.5t42.5 -17.5q64 0 64 112z" unicode="ð" horiz-adv-x="663" glyph-name="eth"/>
<glyph d="M45 0v546h240l19 -74l9 -1q74 89 188 89q188 0 188 -215v-345h-269v299q0 58 -41 58q-48 0 -65 -48v-309h-269zM603 852q-1 -105 -40.5 -148.5t-91.5 -43.5q-40 0 -95.5 12t-73.5 12q-13 0 -20.5 -7t-8.5 -28h-153q0 58 13.5 99t36 59.5t43.5 26t46 7.5q29 0 84 -12 t82 -12q25 0 25 35h153z" unicode="ñ" horiz-adv-x="724" glyph-name="ntilde"/>
<glyph d="M358 168q58 0 58 102q0 107 -58 107q-28 0 -43 -23.5t-15 -82.5q0 -103 58 -103zM359 -14q-334 0 -334 288q0 140 85 213t248 73q331 0 331 -290q0 -284 -330 -284zM496 673l-101 -50l-230 240l173 103z" unicode="ò" horiz-adv-x="714" glyph-name="ograve"/>
<glyph d="M358 168q58 0 58 102q0 107 -58 107q-28 0 -43 -23.5t-15 -82.5q0 -103 58 -103zM359 -14q-334 0 -334 288q0 140 85 213t248 73q331 0 331 -290q0 -284 -330 -284zM322 623l-101 50l158 293l173 -103z" unicode="ó" horiz-adv-x="714" glyph-name="oacute"/>
<glyph d="M358 168q58 0 58 102q0 107 -58 107q-28 0 -43 -23.5t-15 -82.5q0 -103 58 -103zM359 -14q-334 0 -334 288q0 140 85 213t248 73q331 0 331 -290q0 -284 -330 -284zM467 945l150 -249l-135 -73l-126 162l-125 -162l-134 73l149 249h221z" unicode="ô" horiz-adv-x="714" glyph-name="ocircumflex"/>
<glyph d="M358 168q58 0 58 102q0 107 -58 107q-28 0 -43 -23.5t-15 -82.5q0 -103 58 -103zM359 -14q-334 0 -334 288q0 140 85 213t248 73q331 0 331 -290q0 -284 -330 -284zM598 852q-1 -105 -40.5 -148.5t-91.5 -43.5q-40 0 -95.5 12t-73.5 12q-13 0 -20.5 -7t-8.5 -28h-153 q0 58 13.5 99t36 59.5t43.5 26t46 7.5q29 0 84.5 -12t81.5 -12q25 0 25 35h153z" unicode="õ" horiz-adv-x="714" glyph-name="otilde"/>
<glyph d="M358 168q58 0 58 102q0 107 -58 107q-28 0 -43 -23.5t-15 -82.5q0 -103 58 -103zM359 -14q-334 0 -334 288q0 140 85 213t248 73q331 0 331 -290q0 -284 -330 -284zM191 649q-56 0 -89.5 32t-33.5 85t33.5 85.5t89.5 32.5t89.5 -32.5t33.5 -85.5t-33.5 -85t-89.5 -32z M523 649q-56 0 -89.5 32t-33.5 85t33.5 85.5t89.5 32.5t89.5 -32.5t33.5 -85.5t-33.5 -85t-89.5 -32z" unicode="ö" horiz-adv-x="714" glyph-name="odieresis"/>
<glyph d="M600 198h-550v171h550v-171zM230 73q0 40 25.5 64t69.5 24q45 0 70 -24t25 -64q0 -42 -25 -64.5t-70 -22.5q-44 0 -69.5 22.5t-25.5 64.5zM230 494q0 42 25 64.5t70 22.5q44 0 69.5 -22.5t25.5 -64.5q0 -40 -25.5 -64t-69.5 -24q-45 0 -70 24t-25 64z" unicode="÷" horiz-adv-x="650" glyph-name="divide"/>
<glyph d="M359 -14q-81 0 -146 18l-23 -32h-76l40 56q-129 68 -129 246q0 140 85 213t248 73q93 0 162 -24l20 28h76l-40 -55q113 -71 113 -239q0 -284 -330 -284zM302 234l92 128q-14 15 -36 15q-28 0 -43 -23.5t-15 -82.5q0 -15 2 -37zM358 168q58 0 58 102v16l-81 -113 q12 -5 23 -5z" unicode="ø" horiz-adv-x="714" glyph-name="oslash"/>
<glyph d="M679 546v-546h-228l-26 63l-8 1q-35 -36 -86 -57t-104 -21q-82 0 -137 51t-55 153v356h269v-314q0 -63 43 -63q41 0 63 38v339h269zM491 673l-101 -50l-230 240l173 103z" unicode="ù" horiz-adv-x="724" glyph-name="ugrave"/>
<glyph d="M679 546v-546h-228l-26 63l-8 1q-35 -36 -86 -57t-104 -21q-82 0 -137 51t-55 153v356h269v-314q0 -63 43 -63q41 0 63 38v339h269zM327 623l-101 50l158 293l173 -103z" unicode="ú" horiz-adv-x="724" glyph-name="uacute"/>
<glyph d="M679 546v-546h-228l-26 63l-8 1q-35 -36 -86 -57t-104 -21q-82 0 -137 51t-55 153v356h269v-314q0 -63 43 -63q41 0 63 38v339h269zM472 945l150 -249l-135 -73l-126 162l-125 -162l-134 73l149 249h221z" unicode="û" horiz-adv-x="724" glyph-name="ucircumflex"/>
<glyph d="M679 546v-546h-228l-26 63l-8 1q-35 -36 -86 -57t-104 -21q-82 0 -137 51t-55 153v356h269v-314q0 -63 43 -63q41 0 63 38v339h269zM196 649q-56 0 -89.5 32t-33.5 85t33.5 85.5t89.5 32.5t89.5 -32.5t33.5 -85.5t-33.5 -85t-89.5 -32zM528 649q-56 0 -89.5 32t-33.5 85 t33.5 85.5t89.5 32.5t89.5 -32.5t33.5 -85.5t-33.5 -85t-89.5 -32z" unicode="ü" horiz-adv-x="724" glyph-name="udieresis"/>
<glyph d="M436 -230h-299q46 85 111 230h-64q-30 96 -124 337q-8 21 -19.5 28t-30.5 8v173q46 7 96 7q79 0 120 -19.5t65 -87.5l71 -195h7q60 168 96 295h281q-131 -379 -310 -776zM316 623l-101 50l158 293l173 -103z" unicode="ý" horiz-adv-x="746" glyph-name="yacute"/>
<glyph d="M474 560q104 0 168 -77t64 -198q0 -154 -79.5 -226.5t-205.5 -72.5q-68 0 -115 20v-236h-261v1000h266v-176l-1 -112l9 -3q28 40 64 60.5t91 20.5zM372 378q-17 0 -33 -11t-25 -30v-152q22 -17 49 -17q70 0 70 108q0 46 -16 74t-45 28z" unicode="þ" horiz-adv-x="726" glyph-name="thorn"/>
</font>
</defs>
</svg>
