<?xml version="1.0" encoding="UTF-8" standalone="no"?>
<!DOCTYPE svg  PUBLIC '-//W3C//DTD SVG 1.1//EN'  'http://www.w3.org/Graphics/SVG/1.1/DTD/svg11.dtd'>
<svg version="1.1" xmlns="http://www.w3.org/2000/svg">
<defs>
<font id="SoberanaSans-Blacktalic" horiz-adv-x="650">
<font-face font-family="Soberana Sans" font-weight="800" font-style="italic" x-height="543" cap-height="750" panose-1="2 0 0 0 0 0 0 0 0 0" ascent="770" underline-position="-150" descent="-230" units-per-em="1000" unicode-range="U+0020-00FE" underline-thickness="50" bbox="-84 -238 1177 1063" slope="-8"/>
<missing-glyph/>
<glyph unicode=" " glyph-name="space" horiz-adv-x="260"/>
<glyph unicode="!" d="M256 233h-154l43 511l208 17zM146 -11q-42 0 -67.5 21.5t-25.5 59.5q0 48 29.5 75t81.5 27q43 0 69.5 -22.5t26.5 -62.5q0 -45 -31 -71.5t-83 -26.5z" glyph-name="exclam" horiz-adv-x="389"/>
<glyph unicode='&quot;' d="M202 506h-97l7 241l157 14zM419 506h-97l7 241l157 14z" glyph-name="quotedbl" horiz-adv-x="469"/>
<glyph unicode="#" glyph-name="numbersign" d="M458 650h116l-41 -156l106 1l-17 -115h-119l-27 -99h112l-15 -113h-127l-41 -158h-117l42 158h-106l-42 -158h-116l42 158h-104l15 113h119l26 99h-111l17 115l124 -1l42 156h116l-42 -156h106zM280 381l-26 -100h106l26 100h-106z"/>
<glyph unicode="$" glyph-name="dollar" d="M386 860l141 -13l-35 -126q75 -15 124 -38l-69 -141q-82 41 -167 41q-38 0 -70.5 -15t-32.5 -50q0 -24 26.5 -41.5t87 -42.5t94.5 -44q95 -53 95 -147q0 -117 -80 -180.5t-205 -71.5l-35 -135l-142 11l36 132q-85 14 -149 53l49 148q45 -29 107.5 -47t114.5 -18 q116 0 116 74q0 18 -19.5 34.5t-43 26.5t-64.5 26.5t-64 27.5q-55 27 -88 64.5t-33 97.5q0 109 77 171t192 72z"/>
<glyph unicode="%" d="M232 463q39 0 58.5 37t19.5 84q0 64 -52 64q-40 0 -59.5 -37t-19.5 -84q0 -64 53 -64zM726 72q40 0 59 36.5t19 84.5q0 64 -52 64q-40 0 -59 -37t-19 -85q0 -63 52 -63zM294 -11l-113 75l507 667l114 -73zM220 379q-73 0 -114.5 35t-41.5 105q0 94 54.5 153t151.5 59 q155 0 155 -139q0 -96 -54 -154.5t-151 -58.5zM714 -11q-75 0 -115 35t-40 104q0 95 53.5 154t150.5 59q75 0 116 -35.5t41 -104.5q0 -95 -54.5 -153.5t-151.5 -58.5z" glyph-name="percent" horiz-adv-x="992"/>
<glyph unicode="&amp;" d="M719 0q-29 -11 -71 -11q-76 0 -144 50q-28 20 -41 31q-112 -81 -247 -81q-101 0 -159.5 45t-58.5 126q0 77 45 137.5t124 115.5q-23 57 -23 111q0 105 71 171t183 66q119 0 193 -62l-66 -120q-55 44 -122 44q-40 0 -66 -22t-26 -65q0 -51 47 -119.5t121 -138.5 q34 46 91 142h164q-64 -116 -153 -228q14 -11 42 -29q47 -31 90 -31h24zM247 119q58 0 115 38q-76 70 -128 139q-64 -55 -64 -110q0 -29 20 -48t57 -19z" glyph-name="ampersand" horiz-adv-x="783"/>
<glyph unicode="&apos;" d="M202 506h-97l7 241l157 14z" glyph-name="quotesingle" horiz-adv-x="252"/>
<glyph unicode="(" d="M310 -103q-131 31 -200.5 128t-69.5 232q0 189 106 327.5t287 186.5l-20 -143q-192 -118 -192 -363q0 -148 110 -226z" glyph-name="parenleft" horiz-adv-x="434"/>
<glyph unicode=")" d="M-6 -103l20 142q193 120 193 364q0 151 -110 225l20 143q131 -31 200.5 -127.5t69.5 -232.5q0 -189 -106 -329t-287 -185z" glyph-name="parenright" horiz-adv-x="434"/>
<glyph unicode="*" d="M287 378h-113l52 147l-130 -98l-35 94l151 43l-138 43l59 93l104 -98l-11 147h113l-52 -147l130 98l34 -94l-150 -43l138 -43l-59 -93l-104 98z" glyph-name="asterisk" horiz-adv-x="455"/>
<glyph unicode="+" glyph-name="plus" d="M383 33h-122v207h-202v121h202v207h122v-207h202v-121h-202v-207z"/>
<glyph unicode="," d="M92 -126l-122 23q70 82 70 159q0 40 -25 78l165 25q23 -36 23 -79q0 -93 -111 -206z" glyph-name="comma" horiz-adv-x="294"/>
<glyph unicode="-" d="M5 219l16 115l382 23l-16 -115z" glyph-name="hyphen" horiz-adv-x="428"/>
<glyph unicode="." d="M8 74q0 45 30 71.5t80 26.5q40 0 64.5 -21.5t24.5 -59.5q0 -48 -28.5 -75t-79.5 -27q-41 0 -66 22.5t-25 62.5z" glyph-name="period" horiz-adv-x="294"/>
<glyph unicode="/" d="M609 721l-496 -767l-130 74l495 768z" glyph-name="slash" horiz-adv-x="591"/>
<glyph unicode="0" glyph-name="zero" d="M293 129q49 0 85 58t50.5 130t14.5 141q0 130 -85 130q-39 0 -69.5 -33.5t-47 -85t-25 -104t-8.5 -100.5q0 -136 85 -136zM273 -11q-120 0 -185 67t-65 207q0 66 11.5 130t39 126t67 108.5t101 75t136.5 28.5q124 0 187 -69.5t63 -199.5q0 -204 -97 -338.5t-258 -134.5z "/>
<glyph unicode="1" glyph-name="one" d="M558 0h-533l20 144h175l57 403l-177 -9l17 121q140 13 304 61h69l-81 -576h169z"/>
<glyph unicode="2" glyph-name="two" d="M10 0l15 112q65 46 100.5 72.5t86 66t77.5 67t55 61t39.5 64.5t11.5 61q0 72 -82 72q-43 0 -94 -17t-89 -43l-38 138q122 77 277 77q103 0 169 -44.5t66 -138.5q0 -58 -21.5 -113.5t-63.5 -106t-81 -88.5t-95 -83v-7h232l-21 -150h-544z"/>
<glyph unicode="3" glyph-name="three" d="M256 -11q-77 0 -143.5 20.5t-109.5 52.5l66 140q35 -28 85.5 -47.5t97.5 -19.5q60 0 96.5 25t36.5 73q0 42 -48.5 63t-130.5 21l13 92q36 8 59.5 15t55.5 21t48.5 34t16.5 46q0 57 -75 57q-46 0 -99.5 -19.5t-88.5 -45.5l-33 129q118 85 278 85q107 0 166.5 -40 t59.5 -115q0 -119 -146 -177l-1 -7q54 -17 88 -57t34 -99q0 -80 -49.5 -138t-121.5 -83.5t-155 -25.5z"/>
<glyph unicode="4" glyph-name="four" d="M457 728l138 -12l-60 -430h69l-31 -139h-57l-20 -147h-172l20 147h-345l15 108q179 195 443 473zM389 481q-103 -107 -180 -192l1 -6h156l29 196z"/>
<glyph unicode="5" glyph-name="five" d="M258 -11q-155 0 -256 72l66 143q36 -29 94.5 -48t110.5 -19q51 0 83.5 26t32.5 74q0 51 -79 75.5t-229 37.5q47 143 100 370h446l-21 -143h-275q-8 -39 -29 -117q143 -19 212 -65.5t69 -143.5q0 -126 -94 -194t-231 -68z"/>
<glyph unicode="6" glyph-name="six" d="M581 595q-102 -20 -195 -69.5t-138 -121.5l8 -4q71 41 145 41q86 0 138 -44t52 -126q0 -52 -19.5 -101t-56.5 -90t-98 -66t-136 -25q-108 0 -180 63t-72 174q0 89 30.5 166t81 132t120 98t144.5 69t158 40zM329 326q-59 0 -119 -48q-1 -14 -1 -41q0 -49 22 -84.5 t65 -35.5q51 0 82.5 36t31.5 95q0 78 -81 78z"/>
<glyph unicode="7" glyph-name="seven" d="M265 0h-230q70 97 222 334t155 241h-334l21 145h534l20 -64q-11 -21 -388 -656z"/>
<glyph unicode="8" glyph-name="eight" d="M274 -11q-111 0 -182.5 45.5t-71.5 129.5q0 137 162 218q-91 58 -91 140q0 72 43.5 121t106 68.5t137.5 19.5q233 0 233 -157q0 -68 -35.5 -111.5t-104.5 -79.5q56 -33 84 -67t28 -90q0 -79 -46.5 -134.5t-114 -79t-148.5 -23.5zM290 118q48 0 79.5 24.5t31.5 72.5 q0 30 -20.5 48t-68.5 38q-32 -12 -52.5 -24t-38.5 -36.5t-18 -56.5q0 -31 25.5 -48.5t61.5 -17.5zM338 447q99 40 99 102q0 28 -20.5 42.5t-55.5 14.5q-37 0 -67 -18t-30 -58q0 -50 74 -83z"/>
<glyph unicode="9" glyph-name="nine" d="M72 125q94 30 188 82.5t139 116.5l-5 3q-69 -42 -150 -42q-86 0 -136 44t-50 126q0 126 89 201t223 75q110 0 179.5 -57t69.5 -173q0 -84 -29.5 -158.5t-79.5 -130.5t-118 -101t-143 -74.5t-158 -47.5zM318 400q69 0 122 48q2 26 2 41q0 50 -21 82.5t-67 32.5 q-51 0 -83.5 -35.5t-32.5 -92.5q0 -76 80 -76z"/>
<glyph unicode=":" d="M8 74q0 45 30 71.5t80 26.5q40 0 64.5 -21.5t24.5 -59.5q0 -48 -28.5 -75t-79.5 -27q-41 0 -66 22.5t-25 62.5zM54 395q0 45 30 72t80 27q39 0 63.5 -21.5t24.5 -59.5q0 -49 -28.5 -76t-78.5 -27q-41 0 -66 22.5t-25 62.5z" glyph-name="colon" horiz-adv-x="294"/>
<glyph unicode=";" d="M92 -126l-122 23q70 82 70 159q0 40 -25 78l165 25q23 -36 23 -79q0 -93 -111 -206zM54 395q0 45 30 72t80 27q39 0 63.5 -21.5t24.5 -59.5q0 -49 -28.5 -76t-78.5 -27q-41 0 -66 22.5t-25 62.5z" glyph-name="semicolon" horiz-adv-x="294"/>
<glyph unicode="&lt;" glyph-name="less" d="M77 257v90l486 230v-136l-299 -140l299 -138v-136z"/>
<glyph unicode="=" glyph-name="equal" d="M585 356h-526v121h526v-121zM585 124h-526v121h526v-121z"/>
<glyph unicode="&gt;" glyph-name="greater" d="M567 347v-90l-486 -230v136l299 138l-299 140v136z"/>
<glyph unicode="?" d="M133 232q-11 27 -11 65q0 39 20 72t48.5 56.5t57.5 44t49 44t20 48.5q0 51 -68 51q-28 0 -66.5 -11t-64.5 -27l-30 131q95 55 218 55q101 0 155.5 -40t54.5 -114q0 -47 -22.5 -88t-55 -70t-65 -55.5t-55 -56t-22.5 -60.5q0 -26 7 -45h-170zM188 -11q-43 0 -68 21.5 t-25 60.5q0 47 30 74t81 27q43 0 69.5 -21.5t26.5 -62.5q0 -45 -30.5 -72t-83.5 -27z" glyph-name="question" horiz-adv-x="532"/>
<glyph unicode="@" d="M398 -121q-162 0 -259 102.5t-97 260.5q0 183 108 299.5t296 117.5q49 0 95.5 -10.5t89 -34t74.5 -57.5t51 -84.5t19 -111.5q0 -112 -66 -197t-170 -85q-72 0 -87 63l-6 1q-56 -58 -121 -58q-59 0 -89 43.5t-30 111.5q0 63 21 115t70.5 88t120.5 36q62 0 116 -37l31 29 h40q-40 -276 -40 -289q0 -26 23 -26q46 0 87.5 55.5t41.5 149.5q0 122 -79 186t-195 64q-158 -1 -253 -102.5t-95 -264.5q0 -143 84 -229t219 -86q66 0 136.5 25.5t122.5 67.5l28 -41q-60 -49 -135.5 -75.5t-151.5 -26.5zM373 179q37 0 73 43l23 146q-20 14 -48 14 q-43 0 -67.5 -38.5t-24.5 -91.5q0 -73 44 -73z" glyph-name="at" horiz-adv-x="811"/>
<glyph unicode="A" d="M548 0l-40 184h-255q-63 -132 -86 -184h-198q237 453 405 750h175q128 -464 198 -750h-199zM431 524h-6q-60 -114 -106 -206h160q-11 48 -28.5 123.5t-19.5 82.5z" glyph-name="A" horiz-adv-x="816"/>
<glyph unicode="B" d="M14 0l105 750h291q51 0 90.5 -6.5t75 -22.5t54.5 -47t19 -76q0 -140 -137 -194l-2 -7q129 -36 129 -151q0 -121 -87 -183.5t-220 -62.5h-318zM222 122h83q57 0 97.5 32t40.5 91q0 82 -118 82h-74zM267 439h52q53 0 91 32.5t38 88.5q0 69 -89 69h-66z" glyph-name="B" horiz-adv-x="689"/>
<glyph unicode="C" d="M386 -11q-71 0 -132.5 18t-111 53.5t-78 96.5t-28.5 141q0 201 124 332t329 131q143 0 226 -53l-53 -142q-79 43 -165 43q-116 0 -185.5 -79t-69.5 -204q0 -91 54.5 -137t143.5 -46q98 0 186 40l2 -143q-114 -51 -242 -51z" glyph-name="C" horiz-adv-x="712"/>
<glyph unicode="D" d="M14 0l105 750h306q168 0 252.5 -75.5t84.5 -218.5q0 -204 -114 -330t-321 -126h-313zM290 606l-64 -463h93q114 0 175 85t61 210q0 168 -175 168h-90z" glyph-name="D" horiz-adv-x="796"/>
<glyph unicode="E" d="M14 0l105 750h457l-20 -143h-264l-24 -165h198l-34 -126h-181l-25 -172h269l-20 -144h-461z" glyph-name="E" horiz-adv-x="564"/>
<glyph unicode="F" d="M14 0l105 750h471l-20 -143h-278l-25 -176h225l-35 -128h-208l-42 -303h-193z" glyph-name="F" horiz-adv-x="560"/>
<glyph unicode="G" d="M384 -11q-156 0 -252 78.5t-96 229.5q0 213 128.5 338.5t346.5 125.5q149 0 245 -53l-53 -143q-85 44 -192 44q-126 0 -198 -77.5t-72 -208.5q0 -87 51 -134t139 -47q51 0 91 17l19 129h-67l16 117h241l-49 -354q-127 -62 -298 -62z" glyph-name="G" horiz-adv-x="779"/>
<glyph unicode="H" d="M14 0l105 750h192l-41 -292h305l41 292h191l-105 -750h-191l44 314h-305l-44 -314h-192z" glyph-name="H" horiz-adv-x="816"/>
<glyph unicode="I" d="M14 0l105 750h192l-105 -750h-192z" glyph-name="I" horiz-adv-x="320"/>
<glyph unicode="J" d="M149 606l21 144h271l-76 -541q-16 -113 -81.5 -167t-168.5 -54q-52 0 -119 13l8 143q24 -7 60 -7q51 0 77 27.5t34 83.5l50 358h-76z" glyph-name="J" horiz-adv-x="445"/>
<glyph unicode="K" d="M690 127l-17 -127q-52 -11 -96 -11q-50 0 -80 15t-55 55q-21 33 -63.5 117t-64.5 139h-64l-44 -315h-192l105 750h192l-41 -291h62q47 53 221 291h208q-110 -155 -272 -353q21 -55 57.5 -126t69.5 -114q21 -29 74 -30z" glyph-name="K" horiz-adv-x="748"/>
<glyph unicode="L" d="M14 0l105 750h193l-86 -606h285l-20 -144h-477z" glyph-name="L" horiz-adv-x="570"/>
<glyph unicode="M" d="M963 750l-69 -750h-183l42 452h-6q-54 -92 -137 -222.5t-112 -173.5q-55 -10 -89 -10q-9 27 -35.5 109t-52.5 157t-53 145l-7 -1l-79 -456h-178l136 750h196q70 -182 153 -444h7q60 88 139.5 222.5t124.5 221.5h203z" glyph-name="M" horiz-adv-x="998"/>
<glyph unicode="N" d="M722 0l-123 -11q-161 245 -327 477h-7l-65 -466h-186l105 750h162q54 -69 140.5 -191.5t152.5 -226.5l7 2l58 416h188z" glyph-name="N" horiz-adv-x="836"/>
<glyph unicode="O" d="M371 -11q-158 0 -244.5 80.5t-86.5 227.5q0 202 115.5 333t323.5 131q163 0 247 -80t84 -223q0 -206 -116 -337.5t-323 -131.5zM389 129q58 0 102.5 29t69 77.5t36.5 103t12 113.5q0 171 -150 171q-58 0 -102 -29.5t-68.5 -78.5t-36.5 -102.5t-12 -109.5q0 -174 149 -174 z" glyph-name="O" horiz-adv-x="843"/>
<glyph unicode="P" d="M310 242q-26 0 -70 2l-33 -244h-193l105 750h303q123 0 184.5 -50t61.5 -143q0 -147 -100.5 -231t-257.5 -84zM292 607l-31 -215q23 -3 52 -3q159 0 159 138q0 80 -114 80h-66z" glyph-name="P" horiz-adv-x="673"/>
<glyph unicode="Q" d="M638 -189q-89 0 -191.5 57t-177.5 131q-111 23 -170 99.5t-59 198.5q0 204 115.5 334t323.5 130q163 0 247 -80t84 -223q0 -162 -73.5 -281t-209.5 -164q90 -71 183 -71q16 0 46 2l-17 -118q-47 -15 -101 -15zM389 129q58 0 102.5 29t69 77.5t36.5 103t12 113.5 q0 171 -150 171q-58 0 -102 -29.5t-68.5 -78t-36.5 -102.5t-12 -110q0 -174 149 -174z" glyph-name="Q" horiz-adv-x="844"/>
<glyph unicode="R" d="M661 128l-18 -128q-44 -11 -94 -11q-42 0 -68 9t-46 36q-51 67 -119 237h-72l-38 -271h-192l105 750h276q124 0 188 -46.5t64 -137.5q0 -162 -150 -244q48 -108 87 -164q21 -30 63 -30h14zM291 607l-28 -198h48q61 0 101 29.5t40 94.5q0 74 -106 74h-55z" glyph-name="R" horiz-adv-x="719"/>
<glyph unicode="S" d="M247 -11q-153 0 -252 64l48 148q42 -28 100.5 -47t114.5 -19q45 0 84.5 18t39.5 60q0 21 -18.5 39.5t-41 29.5t-63 30t-64.5 33q-60 34 -91 70.5t-31 96.5q0 124 88 186.5t222 62.5q128 0 226 -49l-53 -140q-82 41 -181 41q-46 0 -75.5 -17t-29.5 -53q0 -25 31 -45.5 t89.5 -46.5t90.5 -48q89 -58 89 -148q0 -131 -91 -198.5t-232 -67.5z" glyph-name="S" horiz-adv-x="627"/>
<glyph unicode="T" d="M211 0l85 607h-232l20 143h657l-20 -143h-232l-85 -607h-193z" glyph-name="T" horiz-adv-x="715"/>
<glyph unicode="U" d="M349 -11q-301 0 -301 262q0 40 5 75l60 424h193l-61 -432q-4 -34 -4 -46q0 -68 35.5 -101t94.5 -33q66 0 114 43t61 137l61 432h193l-62 -437q-23 -165 -125 -244.5t-264 -79.5z" glyph-name="U" horiz-adv-x="801"/>
<glyph unicode="V" d="M433 0h-196q-28 96 -87 350.5t-83 399.5h202q47 -303 94 -532h6q127 246 247 532h201q-61 -135 -198 -401t-186 -349z" glyph-name="V" horiz-adv-x="778"/>
<glyph unicode="W" d="M648 0q-15 65 -70 335h-3q-69 -133 -184 -335h-188q-23 86 -69 344.5t-64 405.5h201q23 -217 74 -523h6q109 197 178 327q-12 40 -23 52t-35 12l18 131q42 6 80 6q51 0 81.5 -18.5t40.5 -72.5l74 -431h6q135 305 207 517h199q-58 -148 -175.5 -411.5t-159.5 -338.5h-194z " glyph-name="W" horiz-adv-x="1146"/>
<glyph unicode="X" d="M-45 0q180 233 296 378q-7 15 -43.5 86.5t-52.5 100.5q-26 46 -71 46l19 138q40 5 88 5q49 0 76.5 -17t54.5 -68q6 -11 36.5 -77t41.5 -90h5q21 26 44.5 58t67 95t66.5 95h209q-178 -241 -277 -364q80 -166 116 -220q26 -39 84 -39l-19 -128q-35 -10 -96 -10 q-48 0 -76 13t-52 57q-12 16 -102 200h-6q-91 -120 -192 -259h-217z" glyph-name="X" horiz-adv-x="771"/>
<glyph unicode="Y" d="M206 0l44 316q-89 181 -129 246q-27 45 -66 45l19 142q32 4 76 4q49 0 81 -19t56 -68q71 -154 80 -177h6q52 68 176 261h209q-111 -163 -317 -432l-44 -318h-191z" glyph-name="Y" horiz-adv-x="719"/>
<glyph unicode="Z" d="M-18 0l10 77q130 169 434 523l-1 6h-332l21 144h587l15 -74q-22 -26 -101 -119t-120 -141.5t-105 -126t-113 -139.5l1 -6h370l-20 -144h-646z" glyph-name="Z" horiz-adv-x="712"/>
<glyph unicode="[" d="M435 627h-122l-83 -587h122l-19 -138h-298l121 864h298z" glyph-name="bracketleft" horiz-adv-x="466"/>
<glyph unicode="\" d="M389 -46l-328 776l154 66l325 -768z" glyph-name="backslash" horiz-adv-x="591"/>
<glyph unicode="]" d="M24 40h122l83 587h-122l19 139h298l-121 -864h-298z" glyph-name="bracketright" horiz-adv-x="466"/>
<glyph unicode="^" glyph-name="asciicircum" d="M272 738h100l220 -482h-137l-133 292l-133 -292h-137z"/>
<glyph unicode="_" glyph-name="underscore" d="M-84 -218l16 115h657l-16 -115h-657z"/>
<glyph unicode="`" d="M360 620l-169 214l139 75l107 -253z" glyph-name="grave" horiz-adv-x="520"/>
<glyph unicode="a" d="M493 -11q-47 0 -71 19t-31 58l-5 2q-85 -79 -187 -79q-84 0 -128 63t-44 162q0 150 81 245t237 95q107 0 186 -45l43 34h57l-54 -384q-2 -14 -2 -20q0 -21 23 -21l35 2l-14 -104q-63 -27 -126 -27zM288 119q60 0 108 59l31 224q-32 22 -73 22q-37 0 -64.5 -17.5t-43 -46 t-22.5 -61t-7 -68.5q0 -112 71 -112z" glyph-name="a" horiz-adv-x="689"/>
<glyph unicode="b" d="M11 0l108 770h185l-26 -188l-18 -99l5 -1q77 71 167 71q89 0 137 -63t48 -161q0 -153 -83 -246.5t-236 -93.5q-118 0 -201 48l-34 -37h-52zM355 423q-60 0 -108 -59l-31 -224q32 -22 74 -22q72 0 104 56.5t32 135.5q0 113 -71 113z" glyph-name="b" horiz-adv-x="660"/>
<glyph unicode="c" d="M265 -11q-114 0 -176 60t-62 171q0 68 18 126.5t55 106t99 74.5t144 27q107 0 182 -37l-43 -134q-64 30 -127 30q-72 0 -105 -51.5t-33 -122.5q0 -48 24.5 -77.5t76.5 -29.5q80 0 148 30l12 -130q-86 -43 -213 -43z" glyph-name="c" horiz-adv-x="547"/>
<glyph unicode="d" d="M209 -11q-88 0 -135 63.5t-47 161.5q0 161 84 250t220 89q66 0 114 -23l34 240h184l-108 -770h-154l-13 64l-6 1q-78 -76 -173 -76zM288 119q26 0 57 16.5t51 42.5l31 224q-32 22 -73 22q-70 0 -103.5 -57t-33.5 -134q0 -54 18.5 -84t52.5 -30z" glyph-name="d" horiz-adv-x="662"/>
<glyph unicode="e" d="M515 155l11 -124q-102 -42 -229 -42q-52 0 -98 12t-85.5 38t-63 73.5t-23.5 111.5q0 152 86.5 241t241.5 89q105 0 163.5 -47t58.5 -145q0 -52 -13 -99h-346q-3 -16 -3 -38q0 -104 118 -104q79 0 182 34zM233 340h178q2 20 2 27q0 74 -68 74q-39 0 -69 -25.5t-43 -75.5z " glyph-name="e" horiz-adv-x="611"/>
<glyph unicode="f" d="M112 420h-85l17 123h86l5 29q20 117 79 161.5t167 44.5q82 0 144 -22l-42 -121q-40 14 -79 14q-35 0 -58 -16t-28 -60l-4 -30h135l-29 -123h-124l-90 -650h-184z" glyph-name="f" horiz-adv-x="447"/>
<glyph unicode="g" d="M230 -238q-45 0 -108.5 8.5t-104.5 24.5l17 137q79 -27 172 -27q68 0 111.5 25.5t54.5 99.5l6 40l-4 2q-81 -74 -177 -74q-79 0 -124.5 59t-45.5 154q0 153 80.5 248t236.5 95q110 0 187 -44l43 33h59l-74 -522q-38 -259 -329 -259zM285 120q27 0 57.5 16t53.5 42l31 224 q-31 20 -75 20q-70 0 -104 -56t-34 -133q0 -54 18.5 -83.5t52.5 -29.5z" glyph-name="g" horiz-adv-x="662"/>
<glyph unicode="h" d="M11 0l108 770h185l-26 -189l-19 -110l6 -1q86 83 187 83q81 0 118 -40.5t37 -121.5q0 -25 -5 -63l-45 -328h-186l43 309q3 21 3 37q0 65 -61 65q-63 0 -111 -62l-49 -349h-185z" glyph-name="h" horiz-adv-x="656"/>
<glyph unicode="i" d="M11 0l75 543h185l-75 -543h-185zM103 735q0 46 30.5 73.5t83.5 27.5q42 0 66 -22t24 -62q0 -51 -28 -78.5t-82 -27.5q-44 0 -69 23t-25 66z" glyph-name="i" horiz-adv-x="300"/>
<glyph unicode="j" d="M45 413l19 130h250l-84 -605q-13 -92 -69.5 -130t-159.5 -38q-43 0 -70 10l5 137q25 -7 51 -7q29 0 44.5 17t20.5 54l60 432h-67zM141 735q0 46 30.5 73.5t83.5 27.5q42 0 66 -22t24 -62q0 -51 -28 -78.5t-82 -27.5q-44 0 -69 23t-25 66z" glyph-name="j" horiz-adv-x="342"/>
<glyph unicode="k" d="M11 0l108 770h185l-56 -400h44q33 37 138 173h205q-92 -121 -196 -236q8 -18 36.5 -73.5t41.5 -74.5q21 -31 53 -31q20 0 28 1l-18 -126q-30 -14 -83 -14q-82 0 -135 82q-10 15 -43 77.5t-41 82.5h-49l-33 -231h-185z" glyph-name="k" horiz-adv-x="657"/>
<glyph unicode="l" d="M11 0l108 770h183l-108 -770h-183z" glyph-name="l" horiz-adv-x="301"/>
<glyph unicode="m" d="M11 0l76 543h160l7 -72l7 -1q86 83 189 83q112 0 143 -87l8 -1q91 88 198 88q77 0 117 -41t40 -117q0 -27 -4 -52l-48 -343h-185l43 313q2 24 2 32q0 66 -57 66q-65 0 -110 -61q-2 -30 -4 -45l-42 -305h-184l43 313q3 18 3 33q0 65 -58 65q-67 0 -110 -63l-49 -348h-185z " glyph-name="m" horiz-adv-x="1004"/>
<glyph unicode="n" d="M11 0l76 543h160l7 -72l7 -1q86 83 192 83q155 0 155 -157q0 -22 -4 -56l-47 -340h-186l44 315q2 18 2 27q0 69 -60 69q-71 0 -112 -63l-49 -348h-185z" glyph-name="n" horiz-adv-x="657"/>
<glyph unicode="o" d="M303 118q118 0 118 186q0 120 -85 120q-62 0 -90.5 -51t-28.5 -136q0 -119 86 -119zM280 -11q-120 0 -186.5 58t-66.5 171q0 72 16.5 129.5t53.5 105.5t105 74.5t163 26.5q120 0 183 -64t63 -166q0 -71 -17.5 -129t-54.5 -105.5t-103 -74t-156 -26.5z" glyph-name="o" horiz-adv-x="652"/>
<glyph unicode="p" d="M307 -11q-61 0 -112 24l-33 -243h-184l108 772h155l12 -65l6 -1q76 78 173 78q88 0 135.5 -64.5t47.5 -161.5q0 -146 -80 -242.5t-228 -96.5zM353 423q-26 0 -57 -16t-51 -42l-31 -224q34 -23 76 -23q48 0 79.5 31t43 71.5t11.5 89.5q0 54 -18.5 83.5t-52.5 29.5z" glyph-name="p" horiz-adv-x="657"/>
<glyph unicode="q" d="M334 -230l30 190l20 98l-6 2q-79 -71 -167 -71q-90 0 -137 64t-47 166q0 156 82 245t238 89q114 0 192 -43l40 33h52l-108 -773h-189zM288 119q60 0 108 59l31 224q-32 22 -73 22q-37 0 -64.5 -17.5t-43 -46t-22.5 -61t-7 -68.5q0 -112 71 -112z" glyph-name="q" horiz-adv-x="663"/>
<glyph unicode="r" d="M491 517l-48 -139q-26 12 -55 12q-24 0 -56 -17.5t-49 -32.5t-46 -41l-41 -299h-185l76 543h152l7 -94l7 -1q108 106 174 106q42 0 64 -37z" glyph-name="r" horiz-adv-x="492"/>
<glyph unicode="s" d="M473 183q0 -194 -274 -194q-56 0 -118.5 13.5t-90.5 30.5l36 118q98 -41 195 -41q83 0 83 52q0 11 -6.5 19t-20.5 13.5t-28 10t-38.5 11t-43.5 13.5q-59 20 -92.5 50.5t-33.5 87.5q0 187 265 187q54 0 107.5 -9.5t79.5 -22.5l-41 -117q-64 29 -160 29q-74 0 -74 -45 q0 -9 4.5 -15t17 -11.5t24.5 -9t37.5 -11t46.5 -14.5q125 -41 125 -145z" glyph-name="s" horiz-adv-x="526"/>
<glyph unicode="t" d="M444 420h-151l-29 -211q-2 -16 -2 -25q0 -48 45 -48q51 0 104 23l22 -130q-90 -40 -199 -40q-86 0 -123.5 42t-37.5 104q0 26 5 63l31 222h-85l17 123h88l57 144h144l-20 -144h162z" glyph-name="t" horiz-adv-x="500"/>
<glyph unicode="u" d="M625 543l-75 -543h-153l-13 65l-7 1q-50 -46 -94 -61.5t-100 -15.5q-69 0 -112.5 42.5t-43.5 123.5q0 18 4 48l47 340h185l-44 -322q-3 -13 -3 -27q0 -74 61 -74q31 0 61.5 16.5t50.5 40.5l51 366h185z" glyph-name="u" horiz-adv-x="654"/>
<glyph unicode="v" d="M353 0h-163q-1 4 -21.5 74.5l-41 141t-45.5 165t-40 162.5h186q29 -158 65 -311h7q36 70 151 311h197q-77 -151 -167.5 -317t-127.5 -226z" glyph-name="v" horiz-adv-x="639"/>
<glyph unicode="w" d="M685 0h-174q-24 94 -59 242h-5q-59 -106 -142 -242h-156q-71 316 -107 543h178q27 -182 59 -340h7q44 69 109 196q-6 22 -13.5 28.5t-21.5 7.5l15 108q27 4 70 4q50 0 73 -15t34 -62q21 -91 51 -255h6q65 138 135 328h187q-101 -247 -246 -543z" glyph-name="w" horiz-adv-x="922"/>
<glyph unicode="x" d="M650 543q-16 -21 -84.5 -112.5t-107.5 -142.5q33 -66 73 -125q23 -35 68 -37l-17 -126q-44 -6 -73 -6q-46 0 -72 15.5t-52 56.5q-17 27 -68 123h-6q-57 -76 -137 -189h-201q131 173 212 272q-34 67 -61 114q-22 37 -62 37l16 120q34 4 72 4q52 0 75.5 -13t49.5 -58 q18 -31 53 -105h6l122 172h194z" glyph-name="x" horiz-adv-x="664"/>
<glyph unicode="y" d="M283 -230h-206q80 125 139 230h-40q-75 323 -93 387q-6 20 -15 27.5t-28 8.5l16 120q33 6 75 6q61 0 85 -18.5t37 -70.5q20 -78 58 -279h6q101 202 171 362h204q-99 -210 -409 -773z" glyph-name="y" horiz-adv-x="683"/>
<glyph unicode="z" d="M514 126l-18 -126h-507l10 72q27 31 90 104t116 134t92 103v6h-238l18 124h472l9 -72q-67 -73 -304 -339l2 -6h258z" glyph-name="z" horiz-adv-x="588"/>
<glyph unicode="{" d="M366 -98h-133q-74 0 -110.5 27.5t-36.5 88.5q0 18 3 37l19 136q2 20 2 25q0 31 -19 45.5t-63 19.5l15 105q53 7 75.5 25.5t29.5 64.5l19 136q12 82 57 118t130 36h133l-19 -139h-39q-46 0 -67 -13t-27 -55l-13 -95q-13 -100 -112 -129l-1 -3q78 -25 78 -103q0 -12 -2 -26 l-13 -95q-1 -7 -1 -20q0 -30 17.5 -39t57.5 -9h39z" glyph-name="braceleft" horiz-adv-x="499"/>
<glyph unicode="|" d="M280 -150h-162v1050h162v-1050z" glyph-name="bar" horiz-adv-x="404"/>
<glyph unicode="}" d="M5 -98l19 138h39q46 0 66.5 12.5t26.5 55.5l13 95q15 100 113 129l1 3q-79 25 -79 105q0 8 2 24l13 95q2 18 2 22q0 29 -17 37.5t-58 8.5h-39l19 139h133q74 0 110.5 -27.5t36.5 -89.5q0 -17 -3 -37l-19 -130q-2 -20 -2 -31q0 -31 18.5 -45.5t62.5 -19.5l-14 -105 q-54 -7 -76.5 -25.5t-29.5 -64.5l-19 -136q-11 -82 -56 -117.5t-130 -35.5h-133z" glyph-name="braceright" horiz-adv-x="499"/>
<glyph unicode="~" glyph-name="asciitilde" d="M571 387q0 -86 -36 -123.5t-87 -37.5q-42 0 -119.5 20t-101.5 20q-42 0 -44 -46h-110q0 89 37.5 124.5t90.5 35.5q35 0 112 -20t107 -20q41 0 41 47h110z"/>
<glyph unicode=" " glyph-name="uni00A0" horiz-adv-x="260"/>
<glyph unicode="¡" d="M12 -209l98 528h154l-43 -511zM106 465q0 45 31 71.5t83 26.5q42 0 67.5 -21.5t25.5 -59.5q0 -48 -29.5 -75t-81.5 -27q-43 0 -69.5 22.5t-26.5 62.5z" glyph-name="exclamdown" horiz-adv-x="389"/>
<glyph unicode="¢" glyph-name="cent" d="M171 -71l35 137q-155 49 -155 229q0 160 84 269t237 126l35 132l143 -9l-33 -129q64 -12 117 -40l-53 -141q-27 15 -70 27t-82 12q-78 0 -121.5 -63.5t-43.5 -153.5q0 -125 122 -125q78 0 166 35l10 -139q-85 -42 -213 -47l-33 -129z"/>
<glyph unicode="£" glyph-name="sterling" d="M66 370l13 94h80q0 4 2 16q18 130 102 190.5t204 60.5q96 0 167 -28l-47 -129q-56 20 -113 20q-107 0 -125 -118l-2 -12h202l-13 -94h-194q0 -36 -1 -53h187l-13 -93h-181q-14 -68 -58 -103h298l-17 -121h-549l12 87q116 28 129 124q0 2 0.5 6t0.5 7h-105l13 93h96v53 h-88z"/>
<glyph unicode="¤" glyph-name="currency" d="M290 107q-79 0 -132 34l-80 -69l-77 81l89 78q-14 34 -14 74q0 88 49 162l-69 78l99 83l63 -71q61 36 140 36t131 -35l81 70l77 -81l-91 -79q15 -33 15 -77q0 -86 -49 -159l70 -77l-99 -83l-63 70q-61 -35 -140 -35zM308 220q61 0 101 44.5t40 112.5q0 48 -29.5 75.5 t-79.5 27.5q-61 0 -101.5 -44.5t-40.5 -111.5q0 -48 29.5 -76t80.5 -28z"/>
<glyph unicode="¥" glyph-name="yen" d="M179 0l15 110h-151l12 93h151l8 54h-151l13 93h126q-9 22 -45 101t-39 86q-21 43 -55 43l20 142q32 5 55 5q41 0 68.5 -16.5t50.5 -71.5q3 -6 35 -86t38 -94h5q66 96 167 261h178q-120 -184 -254 -370h132l-13 -93h-148l-8 -54h147l-12 -93h-147l-15 -110h-183z"/>
<glyph unicode="¦" d="M280 510h-162v390h162v-390zM280 -150h-162v392h162v-392z" glyph-name="brokenbar" horiz-adv-x="404"/>
<glyph unicode="§" d="M215 -161q-125 0 -236 49l46 134q42 -20 102.5 -33.5t104.5 -13.5q35 0 58 14.5t23 43.5q0 21 -30 39.5t-72.5 36t-84.5 38.5t-72 55t-30 78q0 70 44.5 113t116.5 62q-57 44 -57 105q0 65 43.5 112t105 68t131.5 21q127 0 236 -49l-46 -134q-41 20 -102 33.5t-104 13.5 q-35 0 -58 -14t-23 -44q0 -21 29.5 -40t72 -36t85 -38t72 -55t29.5 -78q0 -132 -161 -176q57 -45 57 -104q0 -64 -44 -111.5t-106 -68.5t-130 -21zM410 299q0 24 -22 43t-64 39q-110 -11 -110 -80q0 -25 21.5 -43.5t63.5 -38.5q111 11 111 80z" glyph-name="section" horiz-adv-x="647"/>
<glyph unicode="¨" d="M83 729q0 42 27 67t73 25q36 0 58.5 -20t22.5 -56q0 -46 -25.5 -71t-72.5 -25q-38 0 -60.5 20.5t-22.5 59.5zM361 729q0 42 27.5 67t73.5 25q36 0 58.5 -20t22.5 -56q0 -46 -26 -71t-73 -25q-38 0 -60.5 20.5t-22.5 59.5z" glyph-name="dieresis" horiz-adv-x="520"/>
<glyph unicode="©" d="M450 157q-101 0 -169 56t-68 164q0 112 66 170t169 58q79 0 138 -32l-14 -93q-51 27 -106 27q-59 0 -91 -35t-32 -94q0 -61 34 -91.5t92 -30.5q62 0 112 23l8 -92q-56 -30 -139 -30zM429 -11q-163 0 -275 109t-112 279q0 168 112 276t275 108t275 -109t112 -278 q0 -168 -112 -276.5t-275 -108.5zM430 37q142 0 237.5 94.5t95.5 243.5q0 150 -95.5 244.5t-237.5 94.5q-141 0 -238 -95t-97 -244t97 -243.5t238 -94.5z" glyph-name="copyright" horiz-adv-x="852"/>
<glyph unicode="ª" d="M424 460l-7 -67q-36 -17 -81 -17q-50 0 -60 46l-3 1q-53 -47 -104 -47q-52 0 -79.5 36.5t-27.5 99.5q0 92 49.5 148t146.5 56q59 0 101 -29l29 23h36l-33 -227q0 -3 -0.5 -6.5t-0.5 -4.5q0 -13 14 -13zM214 459q34 0 65 34l17 127q-13 12 -42 12q-42 0 -61.5 -30.5 t-19.5 -77.5q0 -65 41 -65z" glyph-name="ordfeminine" horiz-adv-x="431"/>
<glyph unicode="«" d="M34 253l9 66l311 236l-23 -157l-149 -113l118 -113l-22 -157zM316 253l10 66l310 236l-22 -157l-150 -113l118 -113l-22 -157z" glyph-name="guillemotleft" horiz-adv-x="672"/>
<glyph unicode="¬" glyph-name="logicalnot" d="M585 477v-311h-122v190h-404v121h526z"/>
<glyph unicode="­" d="M5 219l16 115l382 23l-16 -115z" glyph-name="uni00AD" horiz-adv-x="428"/>
<glyph unicode="®" d="M295 359q-90 0 -149 59t-59 143q0 87 58.5 143.5t149.5 56.5q90 0 149 -56.5t59 -143.5q0 -84 -59.5 -143t-148.5 -59zM298 401q71 0 116.5 45.5t45.5 117.5q0 70 -45.5 112t-118.5 42t-118 -41.5t-45 -112.5q0 -73 45.5 -118t119.5 -45zM387 478q-9 -3 -31 -3 q-19 0 -33 16.5t-33 49.5h-17v-63h-53v186h75q77 0 77 -58q0 -36 -32 -53q9 -16 25 -34q6 -9 22 -9v-32zM273 622v-43h16q32 0 32 22q0 21 -30 21h-18z" glyph-name="registered" horiz-adv-x="524"/>
<glyph unicode="¯" d="M501 781l-16 -117h-364l17 117h363z" glyph-name="macron" horiz-adv-x="520"/>
<glyph unicode="°" d="M213 437q-56 0 -91.5 35t-35.5 88q0 68 49 119.5t122 51.5q59 0 94.5 -34t35.5 -88q0 -71 -48.5 -121.5t-125.5 -50.5zM225 505q38 0 62.5 28.5t24.5 66.5q0 30 -16.5 47t-48.5 17q-36 0 -61 -28t-25 -67q0 -30 17.5 -47t46.5 -17z" glyph-name="degree" horiz-adv-x="409"/>
<glyph unicode="±" glyph-name="plusminus" d="M383 219h-122v163h-194v122h194v182h122v-182h194v-122h-194v-163zM577 27h-510v122h510v-122z"/>
<glyph unicode="²" d="M47 382l9 61q53 28 87.5 48.5t68.5 54t34 63.5q0 35 -38 35q-56 0 -111 -37l-15 76q68 43 156 43q136 0 136 -97q0 -48 -33 -84.5t-94 -78.5l1 -3h116l-11 -81h-306z" glyph-name="twosuperior" horiz-adv-x="396"/>
<glyph unicode="³" d="M186 376q-87 0 -142 38l35 73q49 -34 104 -34q65 0 65 39q0 36 -95 38l6 45q93 19 93 51q0 23 -38 23q-55 0 -102 -29l-20 66q69 40 156 40q133 0 133 -76q0 -59 -76 -83l-1 -3q67 -16 67 -70q0 -56 -55 -87t-130 -31z" glyph-name="threesuperior" horiz-adv-x="396"/>
<glyph unicode="´" d="M233 620l-67 36l177 254l119 -75z" glyph-name="acute" horiz-adv-x="520"/>
<glyph unicode="µ" d="M647 148l22 -84q-85 -75 -171 -75q-40 0 -68 19.5t-33 53.5l-8 2q-66 -75 -141 -75q-40 0 -64 24q-4 -56 -4 -103q0 -60 6 -102l-172 -34q-5 52 -5 98q0 109 31 335l46 336h186l-46 -324q-2 -15 -2 -27q0 -34 17.5 -53t47.5 -19q29 0 59.5 16.5t50.5 39.5l51 367h185 l-50 -362q-3 -18 -3 -29q0 -26 20 -26q17 0 45 22z" glyph-name="mu" horiz-adv-x="699"/>
<glyph unicode="¶" d="M539 -150l107 756h-74l-106 -756h-189l54 382q-136 0 -209 55.5t-73 157.5q0 147 100.5 226t256.5 79h546l-20 -145h-95l-107 -755h-191zM351 376l32 230q-64 -1 -107.5 -36t-43.5 -101q0 -41 28.5 -66.5t90.5 -26.5z" glyph-name="paragraph" horiz-adv-x="936"/>
<glyph unicode="·" d="M44 323q0 45 29.5 72t79.5 27q40 0 64.5 -21.5t24.5 -59.5q0 -49 -28.5 -76t-78.5 -27q-41 0 -66 22.5t-25 62.5z" glyph-name="periodcentered" horiz-adv-x="294"/>
<glyph unicode="¸" d="M200 0h112l-73 -55q77 -10 77 -69q0 -54 -45 -82.5t-105 -28.5q-65 0 -110 26l24 51q34 -19 76 -19q47 0 47 34q0 28 -60 28h-35l-10 32z" glyph-name="cedilla" horiz-adv-x="520"/>
<glyph unicode="¹" d="M58 382l11 77h90l25 172l-92 -4l10 64q58 4 168 32h43l-37 -265h88l-11 -76h-295z" glyph-name="onesuperior" horiz-adv-x="396"/>
<glyph unicode="º" d="M224 458q33 0 51 30t18 84q0 63 -46 63q-71 0 -71 -115q0 -62 48 -62zM213 376q-71 0 -111 34t-40 103q0 94 50 148.5t148 54.5q72 0 109.5 -36t37.5 -100q0 -100 -51 -152t-143 -52z" glyph-name="ordmasculine" horiz-adv-x="410"/>
<glyph unicode="»" d="M626 253l-310 -238l22 157l150 113l-118 113l22 157l244 -236zM344 253l-310 -238l22 157l150 113l-119 113l23 157l243 -236z" glyph-name="guillemotright" horiz-adv-x="690"/>
<glyph unicode="¼" d="M812 344l89 -6l-29 -201h35l-17 -72h-28l-9 -65h-106l9 65h-186l8 56q9 8 234 223zM777 216q-43 -38 -81 -76l1 -3h71l12 79h-3zM58 382l11 77h90l25 172l-92 -4l10 64q58 4 168 32h43l-37 -265h88l-11 -76h-295zM337 -11l-113 75l506 667l115 -73z" glyph-name="onequarter" horiz-adv-x="988"/>
<glyph unicode="½" d="M573 0l9 61q53 28 87.5 48.5t68.5 54t34 63.5q0 35 -38 35q-56 0 -111 -37l-15 76q68 43 156 43q136 0 136 -97q0 -48 -33 -84.5t-94 -78.5l1 -3h116l-11 -81h-306zM58 382l11 77h90l25 172l-92 -4l10 64q58 4 168 32h43l-37 -265h88l-11 -76h-295zM297 -11l-113 75 l506 667l115 -73z" glyph-name="onehalf" horiz-adv-x="988"/>
<glyph unicode="¾" d="M812 344l89 -6l-29 -201h35l-17 -72h-28l-9 -65h-106l9 65h-186l8 56q9 8 234 223zM777 216q-43 -38 -81 -76l1 -3h71l12 79h-3zM186 376q-87 0 -142 38l35 73q49 -34 104 -34q65 0 65 39q0 36 -95 38l6 45q93 19 93 51q0 23 -38 23q-55 0 -102 -29l-20 66q69 40 156 40 q133 0 133 -76q0 -59 -76 -83l-1 -3q67 -16 67 -70q0 -56 -55 -87t-130 -31zM324 -11l-113 75l506 667l115 -73z" glyph-name="threequarters" horiz-adv-x="988"/>
<glyph unicode="¿" d="M368 334q11 -29 11 -64q0 -39 -20 -72t-48.5 -56t-57.5 -44t-49 -44.5t-20 -48.5q0 -52 67 -52q65 0 132 38l30 -131q-99 -55 -218 -55q-100 0 -155 40t-55 115q0 47 22.5 88t54.5 70t64.5 55.5t55 56t22.5 59.5t-7 45h171zM199 480q0 44 31 71t83 27q42 0 67.5 -21.5 t25.5 -59.5q0 -49 -29.5 -75.5t-82.5 -26.5q-43 0 -69 22t-26 63z" glyph-name="questiondown" horiz-adv-x="518"/>
<glyph unicode="À" d="M548 0l-40 184h-255q-63 -132 -86 -184h-198q237 453 405 750h175q128 -464 198 -750h-199zM431 524h-6q-60 -114 -106 -206h160q-11 48 -28.5 123.5t-19.5 82.5zM575 825l-269 92l94 130l231 -154z" glyph-name="Agrave" horiz-adv-x="816"/>
<glyph unicode="Á" d="M548 0l-40 184h-255q-63 -132 -86 -184h-198q237 453 405 750h175q128 -464 198 -750h-199zM431 524h-6q-60 -114 -106 -206h160q-11 48 -28.5 123.5t-19.5 82.5zM370 825l-35 68l275 154l56 -130z" glyph-name="Aacute" horiz-adv-x="816"/>
<glyph unicode="Â" d="M548 0l-40 184h-255q-63 -132 -86 -184h-198q237 453 405 750h175q128 -464 198 -750h-199zM431 524h-6q-60 -114 -106 -206h160q-11 48 -28.5 123.5t-19.5 82.5zM414 1034h150l153 -137l-62 -72l-182 90l-210 -90l-41 72z" glyph-name="Acircumflex" horiz-adv-x="816"/>
<glyph unicode="Ã" d="M548 0l-40 184h-255q-63 -132 -86 -184h-198q237 453 405 750h175q128 -464 198 -750h-199zM431 524h-6q-60 -114 -106 -206h160q-11 48 -28.5 123.5t-19.5 82.5zM691 987q-12 -81 -49.5 -118.5t-83.5 -37.5q-34 0 -89 14.5t-73 14.5q-30 0 -39 -40h-106q12 84 50.5 120 t86.5 36q27 0 82 -14.5t78 -14.5q30 0 37 40h106z" glyph-name="Atilde" horiz-adv-x="816"/>
<glyph unicode="Ä" d="M548 0l-40 184h-255q-63 -132 -86 -184h-198q237 453 405 750h175q128 -464 198 -750h-199zM431 524h-6q-60 -114 -106 -206h160q-11 48 -28.5 123.5t-19.5 82.5zM244 898q0 42 27.5 67t73.5 25q36 0 58.5 -20t22.5 -56q0 -46 -26 -71t-73 -25q-38 0 -60.5 20.5 t-22.5 59.5zM522 898q0 42 27.5 67t73.5 25q36 0 58.5 -20t22.5 -56q0 -46 -25.5 -71t-72.5 -25q-38 0 -61 20.5t-23 59.5z" glyph-name="Adieresis" horiz-adv-x="816"/>
<glyph unicode="Å" d="M548 0l-40 184h-255q-63 -132 -86 -184h-198q237 453 405 750h175q128 -464 198 -750h-199zM431 524h-6q-60 -114 -106 -206h160q-11 48 -28.5 123.5t-19.5 82.5zM457 781q-56 0 -91 33.5t-35 86.5q0 65 48.5 113.5t117.5 48.5q57 0 92 -32.5t35 -85.5q0 -67 -49 -115.5 t-118 -48.5zM467 851q32 0 57 23.5t25 60.5q0 27 -17 43.5t-45 16.5q-33 0 -57 -24.5t-24 -60.5q0 -27 17 -43t44 -16z" glyph-name="Aring" horiz-adv-x="816"/>
<glyph unicode="Æ" d="M489 0l19 134h-240l-105 -134h-217q130 158 335 398t307 352h463l-20 -143h-264l-23 -165h198l-35 -126h-181l-25 -172h269l-20 -144h-461zM552 485q-101 -120 -177 -217h151l30 215z" glyph-name="AE" horiz-adv-x="1039"/>
<glyph unicode="Ç" d="M628 40q-86 -39 -192 -49l-61 -46q77 -10 77 -69q0 -54 -45 -82.5t-105 -28.5q-65 0 -110 26l24 51q34 -19 76 -19q47 0 47 34q0 28 -60 28h-35l-10 32l92 75q-128 15 -209 91t-81 215q0 201 124 332t329 131q143 0 226 -53l-53 -142q-79 43 -165 43q-116 0 -185.5 -79 t-69.5 -204q0 -91 54.5 -137t143.5 -46q98 0 186 40z" glyph-name="Ccedilla" horiz-adv-x="712"/>
<glyph unicode="È" d="M453 825l-269 92l94 130l231 -154zM14 0l105 750h457l-20 -143h-264l-24 -165h198l-34 -126h-181l-25 -172h269l-20 -144h-461z" glyph-name="Egrave" horiz-adv-x="564"/>
<glyph unicode="É" d="M14 0l105 750h457l-20 -143h-264l-24 -165h198l-34 -126h-181l-25 -172h269l-20 -144h-461zM228 825l-35 68l275 154l56 -130z" glyph-name="Eacute" horiz-adv-x="564"/>
<glyph unicode="Ê" d="M305 1034h150l153 -137l-62 -72l-182 90l-210 -90l-41 72zM14 0l105 750h457l-20 -143h-264l-24 -165h198l-34 -126h-181l-25 -172h269l-20 -144h-461z" glyph-name="Ecircumflex" horiz-adv-x="564"/>
<glyph unicode="Ë" d="M14 0l105 750h457l-20 -143h-264l-24 -165h198l-34 -126h-181l-25 -172h269l-20 -144h-461zM130 898q0 42 27.5 67t73.5 25q36 0 58.5 -20t22.5 -56q0 -46 -26 -71t-73 -25q-38 0 -60.5 20.5t-22.5 59.5zM408 898q0 42 27.5 67t73.5 25q36 0 58.5 -20t22.5 -56 q0 -46 -25.5 -71t-72.5 -25q-38 0 -61 20.5t-23 59.5z" glyph-name="Edieresis" horiz-adv-x="564"/>
<glyph unicode="Ì" d="M14 0l105 750h192l-105 -750h-192zM331 825l-269 92l94 130l231 -154z" glyph-name="Igrave" horiz-adv-x="320"/>
<glyph unicode="Í" d="M14 0l105 750h192l-105 -750h-192zM119 825l-35 68l275 154l56 -130z" glyph-name="Iacute" horiz-adv-x="320"/>
<glyph unicode="Î" d="M14 0l105 750h192l-105 -750h-192zM180 1034h150l153 -137l-62 -72l-182 90l-210 -90l-41 72z" glyph-name="Icircumflex" horiz-adv-x="320"/>
<glyph unicode="Ï" d="M14 0l105 750h192l-105 -750h-192zM5 898q0 42 27.5 67t73.5 25q36 0 58.5 -20t22.5 -56q0 -46 -26 -71t-73 -25q-38 0 -60.5 20.5t-22.5 59.5zM283 898q0 42 27.5 67t73.5 25q36 0 58.5 -20t22.5 -56q0 -46 -25.5 -71t-72.5 -25q-38 0 -61 20.5t-23 59.5z" glyph-name="Idieresis" horiz-adv-x="320"/>
<glyph unicode="Ð" d="M9 316l18 130h75l43 304h307q168 0 252 -75.5t84 -218.5q0 -204 -113.5 -330t-321.5 -126h-313l44 316h-75zM317 606l-23 -160h115l-18 -130h-115l-24 -173h94q113 0 174.5 85t61.5 210q0 168 -176 168h-89z" glyph-name="Eth" horiz-adv-x="822"/>
<glyph unicode="Ñ" d="M716 987q-12 -81 -49.5 -118.5t-83.5 -37.5q-34 0 -89 14.5t-73 14.5q-30 0 -39 -40h-106q12 84 50.5 120t86.5 36q27 0 82 -14.5t78 -14.5q30 0 37 40h106zM722 0l-123 -11q-161 245 -327 477h-7l-65 -466h-186l105 750h162q54 -69 140.5 -191.5t152.5 -226.5l7 2 l58 416h188z" glyph-name="Ntilde" horiz-adv-x="836"/>
<glyph unicode="Ò" d="M606 825l-269 92l94 130l231 -154zM371 -11q-158 0 -244.5 80.5t-86.5 227.5q0 202 115.5 333t323.5 131q163 0 247 -80t84 -223q0 -206 -116 -337.5t-323 -131.5zM389 129q58 0 102.5 29t69 77.5t36.5 103t12 113.5q0 171 -150 171q-58 0 -102 -29.5t-68.5 -78.5 t-36.5 -102.5t-12 -109.5q0 -174 149 -174z" glyph-name="Ograve" horiz-adv-x="843"/>
<glyph unicode="Ó" d="M369 825l-35 68l275 154l56 -130zM371 -11q-158 0 -244.5 80.5t-86.5 227.5q0 202 115.5 333t323.5 131q163 0 247 -80t84 -223q0 -206 -116 -337.5t-323 -131.5zM389 129q58 0 102.5 29t69 77.5t36.5 103t12 113.5q0 171 -150 171q-58 0 -102 -29.5t-68.5 -78.5 t-36.5 -102.5t-12 -109.5q0 -174 149 -174z" glyph-name="Oacute" horiz-adv-x="843"/>
<glyph unicode="Ô" d="M442 1034h150l153 -137l-62 -72l-182 90l-210 -90l-41 72zM371 -11q-158 0 -244.5 80.5t-86.5 227.5q0 202 115.5 333t323.5 131q163 0 247 -80t84 -223q0 -206 -116 -337.5t-323 -131.5zM389 129q58 0 102.5 29t69 77.5t36.5 103t12 113.5q0 171 -150 171 q-58 0 -102 -29.5t-68.5 -78.5t-36.5 -102.5t-12 -109.5q0 -174 149 -174z" glyph-name="Ocircumflex" horiz-adv-x="843"/>
<glyph unicode="Õ" d="M371 -11q-158 0 -244.5 80.5t-86.5 227.5q0 202 115.5 333t323.5 131q163 0 247 -80t84 -223q0 -206 -116 -337.5t-323 -131.5zM389 129q58 0 102.5 29t69 77.5t36.5 103t12 113.5q0 171 -150 171q-58 0 -102 -29.5t-68.5 -78.5t-36.5 -102.5t-12 -109.5q0 -174 149 -174 zM719 987q-12 -81 -49.5 -118.5t-83.5 -37.5q-34 0 -89 14.5t-73 14.5q-30 0 -39 -40h-106q12 84 50.5 120t86.5 36q27 0 82 -14.5t78 -14.5q30 0 37 40h106z" glyph-name="Otilde" horiz-adv-x="843"/>
<glyph unicode="Ö" d="M371 -11q-158 0 -244.5 80.5t-86.5 227.5q0 202 115.5 333t323.5 131q163 0 247 -80t84 -223q0 -206 -116 -337.5t-323 -131.5zM389 129q58 0 102.5 29t69 77.5t36.5 103t12 113.5q0 171 -150 171q-58 0 -102 -29.5t-68.5 -78.5t-36.5 -102.5t-12 -109.5q0 -174 149 -174 zM267 898q0 42 27.5 67t73.5 25q36 0 58.5 -20t22.5 -56q0 -46 -26 -71t-73 -25q-38 0 -60.5 20.5t-22.5 59.5zM545 898q0 42 27.5 67t73.5 25q36 0 58.5 -20t22.5 -56q0 -46 -25.5 -71t-72.5 -25q-38 0 -61 20.5t-23 59.5z" glyph-name="Odieresis" horiz-adv-x="843"/>
<glyph unicode="×" glyph-name="multiply" d="M473 64l-151 151l-152 -151l-85 86l151 151l-151 151l86 85l151 -151l151 151l86 -85l-152 -151l152 -151z"/>
<glyph unicode="Ø" d="M799 777l-77 -93q88 -78 88 -226q0 -206 -116 -337.5t-323 -131.5q-113 0 -190 41l-42 -50h-70l67 81q-96 79 -96 236q0 202 115.5 333t323.5 131q120 0 199 -45l51 61h70zM240 303q0 -59 17 -96l311 376q-38 40 -109 40q-58 0 -102 -29.5t-68.5 -78.5t-36.5 -102.5 t-12 -109.5zM389 129q58 0 102.5 29t69 77.5t36.5 103t12 113.5q0 46 -12 81l-308 -372q37 -32 100 -32z" glyph-name="Oslash" horiz-adv-x="843"/>
<glyph unicode="Ù" d="M558 825l-269 92l94 130l231 -154zM349 -11q-301 0 -301 262q0 40 5 75l60 424h193l-61 -432q-4 -34 -4 -46q0 -68 35.5 -101t94.5 -33q66 0 114 43t61 137l61 432h193l-62 -437q-23 -165 -125 -244.5t-264 -79.5z" glyph-name="Ugrave" horiz-adv-x="801"/>
<glyph unicode="Ú" d="M349 -11q-301 0 -301 262q0 40 5 75l60 424h193l-61 -432q-4 -34 -4 -46q0 -68 35.5 -101t94.5 -33q66 0 114 43t61 137l61 432h193l-62 -437q-23 -165 -125 -244.5t-264 -79.5zM367 825l-35 68l275 154l56 -130z" glyph-name="Uacute" horiz-adv-x="801"/>
<glyph unicode="Û" d="M421 1034h150l153 -137l-62 -72l-182 90l-210 -90l-41 72zM349 -11q-301 0 -301 262q0 40 5 75l60 424h193l-61 -432q-4 -34 -4 -46q0 -68 35.5 -101t94.5 -33q66 0 114 43t61 137l61 432h193l-62 -437q-23 -165 -125 -244.5t-264 -79.5z" glyph-name="Ucircumflex" horiz-adv-x="801"/>
<glyph unicode="Ü" d="M349 -11q-301 0 -301 262q0 40 5 75l60 424h193l-61 -432q-4 -34 -4 -46q0 -68 35.5 -101t94.5 -33q66 0 114 43t61 137l61 432h193l-62 -437q-23 -165 -125 -244.5t-264 -79.5zM247 898q0 42 27.5 67t73.5 25q36 0 58.5 -20t22.5 -56q0 -46 -26 -71t-73 -25 q-38 0 -60.5 20.5t-22.5 59.5zM525 898q0 42 27.5 67t73.5 25q36 0 58.5 -20t22.5 -56q0 -46 -25.5 -71t-72.5 -25q-38 0 -61 20.5t-23 59.5z" glyph-name="Udieresis" horiz-adv-x="801"/>
<glyph unicode="Ý" d="M206 0l44 316q-89 181 -129 246q-27 45 -66 45l19 142q32 4 76 4q49 0 81 -19t56 -68q71 -154 80 -177h6q52 68 176 261h209q-111 -163 -317 -432l-44 -318h-191zM327 825l-35 68l275 154l56 -130z" glyph-name="Yacute" horiz-adv-x="719"/>
<glyph unicode="Þ" d="M293 122q-34 0 -70 2l-16 -124h-193l105 750h193l-18 -120h111q123 0 184.5 -50.5t61.5 -143.5q0 -148 -100.5 -231t-257.5 -83zM275 487l-31 -216q22 -2 52 -2q159 0 159 139q0 43 -28 61t-83 18h-69z" glyph-name="Thorn" horiz-adv-x="672"/>
<glyph unicode="ß" d="M462 -11q-107 0 -178 43l38 117q69 -39 146 -39q32 0 55.5 12.5t23.5 40.5q0 21 -32 39t-70 31t-70 45t-32 79q0 38 17 68.5t41.5 49t49 35.5t41.5 39t17 48q0 49 -73 49q-34 0 -58.5 -11t-37.5 -31.5t-19.5 -40.5t-10.5 -48l-103 -745h-185l90 650h-85l18 123h85l1 8 q14 115 100.5 171t219.5 56q66 0 123 -13t99.5 -48t42.5 -87q0 -42 -19 -74.5t-45.5 -52t-53.5 -35.5t-46 -34t-19 -39q0 -18 19.5 -33t47.5 -29t55.5 -31.5t47 -48.5t19.5 -72q0 -96 -76.5 -144t-183.5 -48z" glyph-name="germandbls" horiz-adv-x="771"/>
<glyph unicode="à" d="M493 -11q-47 0 -71 19t-31 58l-5 2q-85 -79 -187 -79q-84 0 -128 63t-44 162q0 150 81 245t237 95q107 0 186 -45l43 34h57l-54 -384q-2 -14 -2 -20q0 -21 23 -21l35 2l-14 -104q-63 -27 -126 -27zM288 119q60 0 108 59l31 224q-32 22 -73 22q-37 0 -64.5 -17.5t-43 -46 t-22.5 -61t-7 -68.5q0 -112 71 -112zM396 620l-169 214l139 75l107 -253z" glyph-name="agrave" horiz-adv-x="689"/>
<glyph unicode="á" d="M493 -11q-47 0 -71 19t-31 58l-5 2q-85 -79 -187 -79q-84 0 -128 63t-44 162q0 150 81 245t237 95q107 0 186 -45l43 34h57l-54 -384q-2 -14 -2 -20q0 -21 23 -21l35 2l-14 -104q-63 -27 -126 -27zM288 119q60 0 108 59l31 224q-32 22 -73 22q-37 0 -64.5 -17.5t-43 -46 t-22.5 -61t-7 -68.5q0 -112 71 -112zM319 620l-67 36l177 254l119 -75z" glyph-name="aacute" horiz-adv-x="689"/>
<glyph unicode="â" d="M493 -11q-47 0 -71 19t-31 58l-5 2q-85 -79 -187 -79q-84 0 -128 63t-44 162q0 150 81 245t237 95q107 0 186 -45l43 34h57l-54 -384q-2 -14 -2 -20q0 -21 23 -21l35 2l-14 -104q-63 -27 -126 -27zM288 119q60 0 108 59l31 224q-32 22 -73 22q-37 0 -64.5 -17.5t-43 -46 t-22.5 -61t-7 -68.5q0 -112 71 -112zM483 892l109 -222l-98 -50l-104 151l-145 -151l-84 50l171 222h151z" glyph-name="acircumflex" horiz-adv-x="689"/>
<glyph unicode="ã" d="M493 -11q-47 0 -71 19t-31 58l-5 2q-85 -79 -187 -79q-84 0 -128 63t-44 162q0 150 81 245t237 95q107 0 186 -45l43 34h57l-54 -384q-2 -14 -2 -20q0 -21 23 -21l35 2l-14 -104q-63 -27 -126 -27zM288 119q60 0 108 59l31 224q-32 22 -73 22q-37 0 -64.5 -17.5t-43 -46 t-22.5 -61t-7 -68.5q0 -112 71 -112zM595 810q-12 -81 -49.5 -118.5t-82.5 -37.5q-34 0 -89.5 14.5t-72.5 14.5q-32 0 -39 -40h-106q12 84 50 120t86 36q27 0 82 -14.5t78 -14.5q30 0 37 40h106z" glyph-name="atilde" horiz-adv-x="689"/>
<glyph unicode="ä" d="M493 -11q-47 0 -71 19t-31 58l-5 2q-85 -79 -187 -79q-84 0 -128 63t-44 162q0 150 81 245t237 95q107 0 186 -45l43 34h57l-54 -384q-2 -14 -2 -20q0 -21 23 -21l35 2l-14 -104q-63 -27 -126 -27zM288 119q60 0 108 59l31 224q-32 22 -73 22q-37 0 -64.5 -17.5t-43 -46 t-22.5 -61t-7 -68.5q0 -112 71 -112zM148 729q0 42 27 67t73 25q36 0 58.5 -20t22.5 -56q0 -46 -25.5 -71t-72.5 -25q-38 0 -60.5 20.5t-22.5 59.5zM426 729q0 42 27.5 67t73.5 25q36 0 58.5 -20t22.5 -56q0 -46 -26 -71t-73 -25q-38 0 -60.5 20.5t-22.5 59.5z" glyph-name="adieresis" horiz-adv-x="689"/>
<glyph unicode="å" d="M493 -11q-47 0 -71 19t-31 58l-5 2q-85 -79 -187 -79q-84 0 -128 63t-44 162q0 150 81 245t237 95q107 0 186 -45l43 34h57l-54 -384q-2 -14 -2 -20q0 -21 23 -21l35 2l-14 -104q-63 -27 -126 -27zM288 119q60 0 108 59l31 224q-32 22 -73 22q-37 0 -64.5 -17.5t-43 -46 t-22.5 -61t-7 -68.5q0 -112 71 -112zM354 629q-56 0 -91 33t-35 86q0 66 49 114.5t118 48.5q57 0 92 -33t35 -86q0 -67 -49 -115t-119 -48zM365 698q32 0 56.5 23.5t24.5 60.5q0 28 -17 44t-45 16q-33 0 -56.5 -24.5t-23.5 -60.5q0 -26 16.5 -42.5t44.5 -16.5z" glyph-name="aring" horiz-adv-x="689"/>
<glyph unicode="æ" d="M842 155l11 -124q-102 -42 -229 -42q-147 0 -212 90q-110 -90 -240 -90q-75 0 -123 35t-48 100q0 62 40 100.5t107 53.5l225 52q5 25 5 39q0 28 -16.5 42.5t-58.5 14.5q-84 0 -190 -47l-37 111q122 64 260 64q114 0 160 -58q73 57 186 57q105 0 163.5 -46.5t58.5 -144.5 q0 -52 -13 -99h-346q-3 -24 -3 -38q0 -104 119 -104q78 0 181 34zM252 104q22 0 51.5 14.5t47.5 37.5l12 95q-70 -15 -116 -29q-53 -17 -53 -65q0 -53 58 -53zM560 340h178q2 20 2 27q0 74 -68 74q-39 0 -69 -25.5t-43 -75.5z" glyph-name="ae" horiz-adv-x="938"/>
<glyph unicode="ç" d="M478 32q-60 -29 -144 -38l-64 -49q77 -10 77 -69q0 -54 -45 -82.5t-105 -28.5q-65 0 -110 26l24 51q34 -19 76 -19q47 0 47 34q0 28 -60 28h-35l-10 32l91 75q-93 11 -143 70t-50 158q0 68 18 126.5t55 106t99 74.5t144 27q107 0 182 -37l-43 -134q-64 30 -127 30 q-72 0 -105 -51.5t-33 -122.5q0 -48 24.5 -77.5t76.5 -29.5q80 0 148 30z" glyph-name="ccedilla" horiz-adv-x="547"/>
<glyph unicode="è" d="M515 155l11 -124q-102 -42 -229 -42q-52 0 -98 12t-85.5 38t-63 73.5t-23.5 111.5q0 152 86.5 241t241.5 89q105 0 163.5 -47t58.5 -145q0 -52 -13 -99h-346q-3 -16 -3 -38q0 -104 118 -104q79 0 182 34zM233 340h178q2 20 2 27q0 74 -68 74q-39 0 -69 -25.5t-43 -75.5z M355 620l-169 214l139 75l107 -253z" glyph-name="egrave" horiz-adv-x="611"/>
<glyph unicode="é" d="M284 620l-67 36l177 254l119 -75zM515 155l11 -124q-102 -42 -229 -42q-52 0 -98 12t-85.5 38t-63 73.5t-23.5 111.5q0 152 86.5 241t241.5 89q105 0 163.5 -47t58.5 -145q0 -52 -13 -99h-346q-3 -16 -3 -38q0 -104 118 -104q79 0 182 34zM233 340h178q2 20 2 27 q0 74 -68 74q-39 0 -69 -25.5t-43 -75.5z" glyph-name="eacute" horiz-adv-x="611"/>
<glyph unicode="ê" d="M465 892l109 -222l-98 -50l-104 151l-145 -151l-84 50l171 222h151zM515 155l11 -124q-102 -42 -229 -42q-52 0 -98 12t-85.5 38t-63 73.5t-23.5 111.5q0 152 86.5 241t241.5 89q105 0 163.5 -47t58.5 -145q0 -52 -13 -99h-346q-3 -16 -3 -38q0 -104 118 -104 q79 0 182 34zM233 340h178q2 20 2 27q0 74 -68 74q-39 0 -69 -25.5t-43 -75.5z" glyph-name="ecircumflex" horiz-adv-x="611"/>
<glyph unicode="ë" d="M124 729q0 42 27 67t73 25q36 0 58.5 -20t22.5 -56q0 -46 -25.5 -71t-72.5 -25q-38 0 -60.5 20.5t-22.5 59.5zM402 729q0 42 27.5 67t73.5 25q36 0 58.5 -20t22.5 -56q0 -46 -26 -71t-73 -25q-38 0 -60.5 20.5t-22.5 59.5zM515 155l11 -124q-102 -42 -229 -42 q-52 0 -98 12t-85.5 38t-63 73.5t-23.5 111.5q0 152 86.5 241t241.5 89q105 0 163.5 -47t58.5 -145q0 -52 -13 -99h-346q-3 -16 -3 -38q0 -104 118 -104q79 0 182 34zM233 340h178q2 20 2 27q0 74 -68 74q-39 0 -69 -25.5t-43 -75.5z" glyph-name="edieresis" horiz-adv-x="611"/>
<glyph unicode="ì" d="M11 0l75 543h185l-75 -543h-185zM198 620l-169 214l139 75l107 -253z" glyph-name="igrave" horiz-adv-x="300"/>
<glyph unicode="í" d="M157 620l-67 36l177 254l119 -75zM11 0l75 543h185l-75 -543h-185z" glyph-name="iacute" horiz-adv-x="300"/>
<glyph unicode="î" d="M303 892l109 -222l-98 -50l-104 151l-145 -151l-84 50l171 222h151zM11 0l75 543h185l-75 -543h-185z" glyph-name="icircumflex" horiz-adv-x="300"/>
<glyph unicode="ï" d="M-34 729q0 42 27 67t73 25q36 0 58.5 -20t22.5 -56q0 -46 -25.5 -71t-72.5 -25q-38 0 -60.5 20.5t-22.5 59.5zM244 729q0 42 27.5 67t73.5 25q36 0 58.5 -20t22.5 -56q0 -46 -26 -71t-73 -25q-38 0 -60.5 20.5t-22.5 59.5zM11 0l75 543h185l-75 -543h-185z" glyph-name="idieresis" horiz-adv-x="300"/>
<glyph unicode="ð" d="M202 488l14 91l62 22q-35 27 -105 51l67 126q127 -32 214 -113l151 55l-13 -96l-78 -27q72 -104 72 -234q0 -76 -21.5 -143t-63 -119t-106.5 -82t-147 -30q-90 0 -156 49.5t-66 144.5q0 129 81.5 199t215.5 70q34 0 75 -12l4 2q-14 60 -44 100zM280 115q46 0 76 36.5 t41 81t13 96.5q-39 13 -80 13q-59 0 -95.5 -38.5t-36.5 -101.5q0 -40 21.5 -63.5t60.5 -23.5z" glyph-name="eth" horiz-adv-x="629"/>
<glyph unicode="ñ" d="M11 0l76 543h160l7 -72l7 -1q86 83 192 83q155 0 155 -157q0 -22 -4 -56l-47 -340h-186l44 315q2 18 2 27q0 69 -60 69q-71 0 -112 -63l-49 -348h-185zM567 810q-12 -81 -49.5 -118.5t-82.5 -37.5q-34 0 -89.5 14.5t-72.5 14.5q-32 0 -39 -40h-106q12 84 50 120t86 36 q27 0 82 -14.5t78 -14.5q30 0 37 40h106z" glyph-name="ntilde" horiz-adv-x="657"/>
<glyph unicode="ò" d="M303 118q118 0 118 186q0 120 -85 120q-62 0 -90.5 -51t-28.5 -136q0 -119 86 -119zM280 -11q-120 0 -186.5 58t-66.5 171q0 72 16.5 129.5t53.5 105.5t105 74.5t163 26.5q120 0 183 -64t63 -166q0 -71 -17.5 -129t-54.5 -105.5t-103 -74t-156 -26.5zM366 620l-169 214 l139 75l107 -253z" glyph-name="ograve" horiz-adv-x="652"/>
<glyph unicode="ó" d="M291 620l-67 36l177 254l119 -75zM303 118q118 0 118 186q0 120 -85 120q-62 0 -90.5 -51t-28.5 -136q0 -119 86 -119zM280 -11q-120 0 -186.5 58t-66.5 171q0 72 16.5 129.5t53.5 105.5t105 74.5t163 26.5q120 0 183 -64t63 -166q0 -71 -17.5 -129t-54.5 -105.5 t-103 -74t-156 -26.5z" glyph-name="oacute" horiz-adv-x="652"/>
<glyph unicode="ô" d="M458 892l109 -222l-98 -50l-104 151l-145 -151l-84 50l171 222h151zM303 118q118 0 118 186q0 120 -85 120q-62 0 -90.5 -51t-28.5 -136q0 -119 86 -119zM280 -11q-120 0 -186.5 58t-66.5 171q0 72 16.5 129.5t53.5 105.5t105 74.5t163 26.5q120 0 183 -64t63 -166 q0 -71 -17.5 -129t-54.5 -105.5t-103 -74t-156 -26.5z" glyph-name="ocircumflex" horiz-adv-x="652"/>
<glyph unicode="õ" d="M303 118q118 0 118 186q0 120 -85 120q-62 0 -90.5 -51t-28.5 -136q0 -119 86 -119zM280 -11q-120 0 -186.5 58t-66.5 171q0 72 16.5 129.5t53.5 105.5t105 74.5t163 26.5q120 0 183 -64t63 -166q0 -71 -17.5 -129t-54.5 -105.5t-103 -74t-156 -26.5zM564 810 q-12 -81 -49.5 -118.5t-82.5 -37.5q-34 0 -89.5 14.5t-72.5 14.5q-32 0 -39 -40h-106q12 84 50 120t86 36q27 0 82 -14.5t78 -14.5q30 0 37 40h106z" glyph-name="otilde" horiz-adv-x="652"/>
<glyph unicode="ö" d="M121 729q0 42 27 67t73 25q36 0 58.5 -20t22.5 -56q0 -46 -25.5 -71t-72.5 -25q-38 0 -60.5 20.5t-22.5 59.5zM399 729q0 42 27.5 67t73.5 25q36 0 58.5 -20t22.5 -56q0 -46 -26 -71t-73 -25q-38 0 -60.5 20.5t-22.5 59.5zM303 118q118 0 118 186q0 120 -85 120 q-62 0 -90.5 -51t-28.5 -136q0 -119 86 -119zM280 -11q-120 0 -186.5 58t-66.5 171q0 72 16.5 129.5t53.5 105.5t105 74.5t163 26.5q120 0 183 -64t63 -166q0 -71 -17.5 -129t-54.5 -105.5t-103 -74t-156 -26.5z" glyph-name="odieresis" horiz-adv-x="652"/>
<glyph unicode="÷" glyph-name="divide" d="M585 240h-526v121h526v-121zM322 42q-34 0 -54 18t-20 50q0 31 20.5 50.5t53.5 19.5q34 0 54 -19t20 -51t-20 -50t-54 -18zM322 421q-34 0 -54 19t-20 50q0 32 20 50.5t54 18.5t54 -18.5t20 -50.5q0 -31 -20.5 -50t-53.5 -19z"/>
<glyph unicode="ø" d="M115 -26h-68l53 66q-73 59 -73 178q0 72 16.5 129t53.5 105t105 74.5t163 26.5q74 0 127 -25l28 34h68l-51 -63q74 -61 74 -175q0 -71 -17.5 -129t-54.5 -105.5t-103 -74t-156 -26.5q-77 0 -133 24zM217 237q0 -29 4 -46l171 212q-21 21 -56 21q-62 0 -90.5 -51 t-28.5 -136zM303 118q118 0 118 186q0 19 -4 45l-170 -211q22 -20 56 -20z" glyph-name="oslash" horiz-adv-x="652"/>
<glyph unicode="ù" d="M625 543l-75 -543h-153l-13 65l-7 1q-50 -46 -94 -61.5t-100 -15.5q-69 0 -112.5 42.5t-43.5 123.5q0 18 4 48l47 340h185l-44 -322q-3 -13 -3 -27q0 -74 61 -74q31 0 61.5 16.5t50.5 40.5l51 366h185zM378 620l-169 214l139 75l107 -253z" glyph-name="ugrave" horiz-adv-x="654"/>
<glyph unicode="ú" d="M329 620l-67 36l177 254l119 -75zM625 543l-75 -543h-153l-13 65l-7 1q-50 -46 -94 -61.5t-100 -15.5q-69 0 -112.5 42.5t-43.5 123.5q0 18 4 48l47 340h185l-44 -322q-3 -13 -3 -27q0 -74 61 -74q31 0 61.5 16.5t50.5 40.5l51 366h185z" glyph-name="uacute" horiz-adv-x="654"/>
<glyph unicode="û" d="M474 892l109 -222l-98 -50l-104 151l-145 -151l-84 50l171 222h151zM625 543l-75 -543h-153l-13 65l-7 1q-50 -46 -94 -61.5t-100 -15.5q-69 0 -112.5 42.5t-43.5 123.5q0 18 4 48l47 340h185l-44 -322q-3 -13 -3 -27q0 -74 61 -74q31 0 61.5 16.5t50.5 40.5l51 366h185z " glyph-name="ucircumflex" horiz-adv-x="654"/>
<glyph unicode="ü" d="M139 729q0 42 27 67t73 25q36 0 58.5 -20t22.5 -56q0 -46 -25.5 -71t-72.5 -25q-38 0 -60.5 20.5t-22.5 59.5zM417 729q0 42 27.5 67t73.5 25q36 0 58.5 -20t22.5 -56q0 -46 -26 -71t-73 -25q-38 0 -60.5 20.5t-22.5 59.5zM625 543l-75 -543h-153l-13 65l-7 1 q-50 -46 -94 -61.5t-100 -15.5q-69 0 -112.5 42.5t-43.5 123.5q0 18 4 48l47 340h185l-44 -322q-3 -13 -3 -27q0 -74 61 -74q31 0 61.5 16.5t50.5 40.5l51 366h185z" glyph-name="udieresis" horiz-adv-x="654"/>
<glyph unicode="ý" d="M283 -230h-206q80 125 139 230h-40q-75 323 -93 387q-6 20 -15 27.5t-28 8.5l16 120q33 6 75 6q61 0 85 -18.5t37 -70.5q20 -78 58 -279h6q101 202 171 362h204q-99 -210 -409 -773zM341 620l-67 36l177 254l119 -75z" glyph-name="yacute" horiz-adv-x="683"/>
<glyph unicode="þ" d="M441 554q85 0 130 -59.5t45 -158.5q0 -153 -77 -250t-223 -97q-80 0 -123 23l-34 -242h-181l141 1000h185l-30 -217l-12 -77l5 -1q41 39 79 59t95 20zM295 119q67 0 100.5 55.5t33.5 138.5q0 110 -74 110q-56 0 -108 -58l-31 -225q27 -21 79 -21z" glyph-name="thorn" horiz-adv-x="658"/>
</font>
</defs>
</svg>
